%TF.GenerationSoftware,KiCad,Pcbnew,9.0.4*%
%TF.CreationDate,2025-11-02T13:41:35-05:00*%
%TF.ProjectId,C3I_TETRIS,4333495f-5445-4545-9249-532e6b696361,rev?*%
%TF.SameCoordinates,Original*%
%TF.FileFunction,Copper,L2,Bot*%
%TF.FilePolarity,Positive*%
%FSLAX46Y46*%
G04 Gerber Fmt 4.6, Leading zero omitted, Abs format (unit mm)*
G04 Created by KiCad (PCBNEW 9.0.4) date 2025-11-02 13:41:35*
%MOMM*%
%LPD*%
G01*
G04 APERTURE LIST*
G04 Aperture macros list*
%AMRoundRect*
0 Rectangle with rounded corners*
0 $1 Rounding radius*
0 $2 $3 $4 $5 $6 $7 $8 $9 X,Y pos of 4 corners*
0 Add a 4 corners polygon primitive as box body*
4,1,4,$2,$3,$4,$5,$6,$7,$8,$9,$2,$3,0*
0 Add four circle primitives for the rounded corners*
1,1,$1+$1,$2,$3*
1,1,$1+$1,$4,$5*
1,1,$1+$1,$6,$7*
1,1,$1+$1,$8,$9*
0 Add four rect primitives between the rounded corners*
20,1,$1+$1,$2,$3,$4,$5,0*
20,1,$1+$1,$4,$5,$6,$7,0*
20,1,$1+$1,$6,$7,$8,$9,0*
20,1,$1+$1,$8,$9,$2,$3,0*%
G04 Aperture macros list end*
%TA.AperFunction,ComponentPad*%
%ADD10C,1.676400*%
%TD*%
%TA.AperFunction,ComponentPad*%
%ADD11R,1.524000X1.524000*%
%TD*%
%TA.AperFunction,ComponentPad*%
%ADD12C,1.524000*%
%TD*%
%TA.AperFunction,ComponentPad*%
%ADD13C,3.500000*%
%TD*%
%TA.AperFunction,HeatsinkPad*%
%ADD14C,0.600000*%
%TD*%
%TA.AperFunction,SMDPad,CuDef*%
%ADD15R,1.400000X1.600000*%
%TD*%
%TA.AperFunction,SMDPad,CuDef*%
%ADD16RoundRect,0.250000X-0.450000X0.262500X-0.450000X-0.262500X0.450000X-0.262500X0.450000X0.262500X0*%
%TD*%
%TA.AperFunction,ViaPad*%
%ADD17C,0.600000*%
%TD*%
%TA.AperFunction,Conductor*%
%ADD18C,0.200000*%
%TD*%
%TA.AperFunction,Conductor*%
%ADD19C,0.254000*%
%TD*%
%TA.AperFunction,Conductor*%
%ADD20C,0.500000*%
%TD*%
G04 APERTURE END LIST*
D10*
%TO.P,JP4,1,1*%
%TO.N,unconnected-(JP4-Pad1)*%
X155380000Y-82400000D03*
%TO.P,JP4,2,2*%
%TO.N,unconnected-(JP4-Pad2)*%
X152840000Y-82400000D03*
%TO.P,JP4,3,3*%
%TO.N,unconnected-(JP4-Pad3)*%
X150300000Y-82400000D03*
%TO.P,JP4,4,4*%
%TO.N,unconnected-(JP4-Pad4)*%
X147760000Y-82400000D03*
%TO.P,JP4,5,5*%
%TO.N,CB1*%
X145220000Y-82400000D03*
%TO.P,JP4,6,6*%
%TO.N,CB2*%
X142680000Y-82400000D03*
%TO.P,JP4,7,7*%
%TO.N,CB3*%
X140140000Y-82400000D03*
%TO.P,JP4,8,8*%
%TO.N,CB4*%
X137600000Y-82400000D03*
%TO.P,JP4,9,9*%
%TO.N,CB5*%
X135060000Y-82400000D03*
%TO.P,JP4,10,10*%
%TO.N,CB6*%
X132520000Y-82400000D03*
%TO.P,JP4,11,11*%
%TO.N,CB7*%
X129980000Y-82400000D03*
%TO.P,JP4,12,12*%
%TO.N,CB8*%
X127440000Y-82400000D03*
%TO.P,JP4,13,13*%
%TO.N,CB9*%
X124900000Y-82400000D03*
%TD*%
%TO.P,JP1,1,1*%
%TO.N,CA1*%
X155507000Y-107800000D03*
%TO.P,JP1,2,2*%
%TO.N,CA2*%
X152967000Y-107800000D03*
%TO.P,JP1,3,3*%
%TO.N,CA3*%
X150427000Y-107800000D03*
%TO.P,JP1,4,4*%
%TO.N,CA4*%
X147887000Y-107800000D03*
%TO.P,JP1,5,5*%
%TO.N,CA5*%
X145347000Y-107800000D03*
%TO.P,JP1,6,6*%
%TO.N,CA6*%
X142807000Y-107800000D03*
%TO.P,JP1,7,7*%
%TO.N,CA7*%
X140267000Y-107800000D03*
%TO.P,JP1,8,8*%
%TO.N,CA8*%
X137727000Y-107800000D03*
%TO.P,JP1,9,9*%
%TO.N,CA9*%
X135187000Y-107800000D03*
%TO.P,JP1,10,10*%
%TO.N,unconnected-(JP1-Pad10)*%
X132647000Y-107800000D03*
%TO.P,JP1,11,11*%
%TO.N,unconnected-(JP1-Pad11)*%
X130107000Y-107800000D03*
%TO.P,JP1,12,12*%
%TO.N,unconnected-(JP1-Pad12)*%
X127567000Y-107800000D03*
%TO.P,JP1,13,13*%
%TO.N,unconnected-(JP1-Pad13)*%
X125027000Y-107800000D03*
%TD*%
D11*
%TO.P,J1,1,VBUS*%
%TO.N,+5V*%
X194222500Y-98000000D03*
D12*
%TO.P,J1,2,D-*%
%TO.N,D-*%
X194222500Y-95500000D03*
%TO.P,J1,3,D+*%
%TO.N,D+*%
X194222500Y-93500000D03*
%TO.P,J1,4,GND*%
%TO.N,GND*%
X194222500Y-91000000D03*
D13*
%TO.P,J1,5,Shield*%
X196932500Y-101175000D03*
X196932500Y-87825000D03*
%TD*%
D14*
%TO.P,U1,19,GND*%
%TO.N,GND*%
X124200000Y-94640000D03*
X125300000Y-94640000D03*
X123650000Y-94090000D03*
X124750000Y-94090000D03*
X125850000Y-94090000D03*
X124200000Y-93540000D03*
X125300000Y-93540000D03*
X123650000Y-92990000D03*
X124750000Y-92990000D03*
X125850000Y-92990000D03*
X124200000Y-92440000D03*
X125300000Y-92440000D03*
%TD*%
D15*
%TO.P,SW2,1,1*%
%TO.N,BTN2*%
X183800000Y-90500000D03*
X183800000Y-98500000D03*
%TO.P,SW2,2,2*%
%TO.N,GND*%
X188300000Y-90500000D03*
X188300000Y-98500000D03*
%TD*%
D16*
%TO.P,R6,1*%
%TO.N,BTN1*%
X178650000Y-78187500D03*
%TO.P,R6,2*%
%TO.N,+3.3V*%
X178650000Y-80012500D03*
%TD*%
%TO.P,R8,1*%
%TO.N,BTN3*%
X178650000Y-108987500D03*
%TO.P,R8,2*%
%TO.N,+3.3V*%
X178650000Y-110812500D03*
%TD*%
%TO.P,R7,1*%
%TO.N,BTN2*%
X178650000Y-93587500D03*
%TO.P,R7,2*%
%TO.N,+3.3V*%
X178650000Y-95412500D03*
%TD*%
D15*
%TO.P,SW3,1,1*%
%TO.N,BTN3*%
X183800000Y-105900000D03*
X183800000Y-113900000D03*
%TO.P,SW3,2,2*%
%TO.N,GND*%
X188300000Y-105900000D03*
X188300000Y-113900000D03*
%TD*%
%TO.P,SW1,1,1*%
%TO.N,BTN1*%
X183800000Y-75100000D03*
X183800000Y-83100000D03*
%TO.P,SW1,2,2*%
%TO.N,GND*%
X188300000Y-75100000D03*
X188300000Y-83100000D03*
%TD*%
D17*
%TO.N,GND*%
X186000000Y-94500000D03*
%TO.N,CA9*%
X138050000Y-90600000D03*
%TO.N,CB9*%
X142050000Y-98600000D03*
%TO.N,GND*%
X145050000Y-96600000D03*
X136550000Y-84600000D03*
X131550000Y-103100000D03*
X174550000Y-92100000D03*
X121454174Y-106695826D03*
X138050000Y-92100000D03*
%TO.N,D+*%
X128050000Y-84100000D03*
X129050000Y-80100000D03*
%TO.N,+5V*%
X137742628Y-91357938D03*
X139023153Y-94023153D03*
%TO.N,Net-(U2-R_EXT)*%
X138050000Y-86600000D03*
X138550000Y-88600000D03*
%TO.N,BTN1*%
X123050000Y-84600000D03*
%TO.N,BTN2*%
X121550000Y-104600000D03*
%TO.N,BTN3*%
X123050000Y-109600000D03*
%TO.N,+3.3V*%
X177050000Y-110600000D03*
X177550000Y-95100000D03*
X172550000Y-92100000D03*
%TD*%
D18*
%TO.N,CA9*%
X142654200Y-95204200D02*
X142654200Y-100332800D01*
X142654200Y-100332800D02*
X135187000Y-107800000D01*
X138050000Y-90600000D02*
X142654200Y-95204200D01*
D19*
%TO.N,CB2*%
X141918000Y-82400000D02*
X142680000Y-82400000D01*
%TO.N,CB5*%
X134552000Y-82400000D02*
X135060000Y-82400000D01*
%TO.N,CB6*%
X132393000Y-82400000D02*
X132520000Y-82400000D01*
%TO.N,CB7*%
X129345000Y-82400000D02*
X129980000Y-82400000D01*
D18*
%TO.N,CB9*%
X142050000Y-98600000D02*
X141100000Y-98600000D01*
X141100000Y-98600000D02*
X124900000Y-82400000D01*
%TO.N,D+*%
X129050000Y-80100000D02*
X129050000Y-80164800D01*
X128582400Y-83567600D02*
X128050000Y-84100000D01*
X129050000Y-80164800D02*
X128582400Y-80632400D01*
X128582400Y-80632400D02*
X128582400Y-83567600D01*
%TO.N,+5V*%
X137445800Y-91654766D02*
X137742628Y-91357938D01*
D20*
X139023153Y-94023153D02*
X137445800Y-92445800D01*
X137445800Y-92445800D02*
X137445800Y-91654766D01*
D18*
%TO.N,Net-(U2-R_EXT)*%
X138550000Y-88600000D02*
X138050000Y-88100000D01*
X138050000Y-88100000D02*
X138050000Y-86600000D01*
%TO.N,BTN1*%
X123050000Y-82624191D02*
X127486691Y-78187500D01*
X181737500Y-75100000D02*
X178650000Y-78187500D01*
X183800000Y-75100000D02*
X181737500Y-75100000D01*
X183562500Y-83100000D02*
X178650000Y-78187500D01*
X183800000Y-83100000D02*
X183562500Y-83100000D01*
X127486691Y-78187500D02*
X178650000Y-78187500D01*
X123050000Y-84600000D02*
X123050000Y-82624191D01*
%TO.N,BTN2*%
X181737500Y-90500000D02*
X178650000Y-93587500D01*
X123000000Y-107694299D02*
X124248101Y-108942400D01*
X124248101Y-108942400D02*
X161707600Y-108942400D01*
X183562500Y-98500000D02*
X178650000Y-93587500D01*
X177062500Y-93587500D02*
X178650000Y-93587500D01*
X121550000Y-105550000D02*
X123000000Y-107000000D01*
X161707600Y-108942400D02*
X177062500Y-93587500D01*
X183800000Y-98500000D02*
X183562500Y-98500000D01*
X123000000Y-107000000D02*
X123000000Y-107694299D01*
X183800000Y-90500000D02*
X181737500Y-90500000D01*
X121550000Y-104600000D02*
X121550000Y-105550000D01*
%TO.N,BTN3*%
X178037500Y-109600000D02*
X178650000Y-108987500D01*
X183800000Y-113900000D02*
X183562500Y-113900000D01*
X181737500Y-105900000D02*
X178650000Y-108987500D01*
X183800000Y-105900000D02*
X181737500Y-105900000D01*
X183562500Y-113900000D02*
X178650000Y-108987500D01*
X123050000Y-109600000D02*
X178037500Y-109600000D01*
%TO.N,+3.3V*%
X178650000Y-80012500D02*
X178650000Y-86000000D01*
X178650000Y-86000000D02*
X172550000Y-92100000D01*
X177262500Y-110812500D02*
X177050000Y-110600000D01*
X178650000Y-110812500D02*
X177262500Y-110812500D01*
X178650000Y-95412500D02*
X177862500Y-95412500D01*
X177862500Y-95412500D02*
X177550000Y-95100000D01*
%TD*%
%TA.AperFunction,Conductor*%
%TO.N,GND*%
G36*
X199867539Y-69145185D02*
G01*
X199913294Y-69197989D01*
X199924500Y-69249500D01*
X199924500Y-119750500D01*
X199904815Y-119817539D01*
X199852011Y-119863294D01*
X199800500Y-119874500D01*
X111199500Y-119874500D01*
X111132461Y-119854815D01*
X111086706Y-119802011D01*
X111075500Y-119750500D01*
X111075500Y-108624000D01*
X111095185Y-108556961D01*
X111147989Y-108511206D01*
X111199500Y-108500000D01*
X117450000Y-108500000D01*
X117450000Y-104521153D01*
X120749500Y-104521153D01*
X120749500Y-104678846D01*
X120780261Y-104833489D01*
X120780264Y-104833501D01*
X120840602Y-104979172D01*
X120840609Y-104979185D01*
X120928602Y-105110874D01*
X120949480Y-105177551D01*
X120949500Y-105179765D01*
X120949500Y-105851928D01*
X120949499Y-105851946D01*
X120949499Y-106017652D01*
X120949498Y-106017652D01*
X120990423Y-106170383D01*
X121019358Y-106220498D01*
X121019359Y-106220502D01*
X121019360Y-106220502D01*
X121069479Y-106307312D01*
X121069481Y-106307315D01*
X121188349Y-106426183D01*
X121188355Y-106426188D01*
X123380091Y-108617925D01*
X123413576Y-108679248D01*
X123408592Y-108748940D01*
X123366720Y-108804873D01*
X123301256Y-108829290D01*
X123268219Y-108827223D01*
X123128846Y-108799500D01*
X123128842Y-108799500D01*
X122971158Y-108799500D01*
X122971155Y-108799500D01*
X122816510Y-108830261D01*
X122816498Y-108830264D01*
X122670827Y-108890602D01*
X122670814Y-108890609D01*
X122539711Y-108978210D01*
X122539707Y-108978213D01*
X122428213Y-109089707D01*
X122428210Y-109089711D01*
X122340609Y-109220814D01*
X122340602Y-109220827D01*
X122280264Y-109366498D01*
X122280261Y-109366510D01*
X122249500Y-109521153D01*
X122249500Y-109678846D01*
X122280261Y-109833489D01*
X122280264Y-109833501D01*
X122340602Y-109979172D01*
X122340609Y-109979185D01*
X122428210Y-110110288D01*
X122428213Y-110110292D01*
X122539707Y-110221786D01*
X122539711Y-110221789D01*
X122670814Y-110309390D01*
X122670827Y-110309397D01*
X122808695Y-110366503D01*
X122816503Y-110369737D01*
X122971153Y-110400499D01*
X122971156Y-110400500D01*
X122971158Y-110400500D01*
X123128844Y-110400500D01*
X123128845Y-110400499D01*
X123283497Y-110369737D01*
X123429179Y-110309394D01*
X123483663Y-110272989D01*
X123560875Y-110221398D01*
X123627553Y-110200520D01*
X123629766Y-110200500D01*
X176163445Y-110200500D01*
X176230484Y-110220185D01*
X176276239Y-110272989D01*
X176286183Y-110342147D01*
X176281159Y-110360411D01*
X176282031Y-110360676D01*
X176280261Y-110366510D01*
X176249500Y-110521153D01*
X176249500Y-110678846D01*
X176280261Y-110833489D01*
X176280264Y-110833501D01*
X176340602Y-110979172D01*
X176340609Y-110979185D01*
X176428210Y-111110288D01*
X176428213Y-111110292D01*
X176539707Y-111221786D01*
X176539711Y-111221789D01*
X176670814Y-111309390D01*
X176670827Y-111309397D01*
X176816498Y-111369735D01*
X176816503Y-111369737D01*
X176940145Y-111394331D01*
X176971153Y-111400499D01*
X176971156Y-111400500D01*
X177120467Y-111400500D01*
X177152559Y-111404724D01*
X177183442Y-111413000D01*
X177183443Y-111413000D01*
X177457492Y-111413000D01*
X177524531Y-111432685D01*
X177563029Y-111471901D01*
X177607288Y-111543656D01*
X177731344Y-111667712D01*
X177880666Y-111759814D01*
X178047203Y-111814999D01*
X178149991Y-111825500D01*
X179150008Y-111825499D01*
X179150016Y-111825498D01*
X179150019Y-111825498D01*
X179206302Y-111819748D01*
X179252797Y-111814999D01*
X179419334Y-111759814D01*
X179568656Y-111667712D01*
X179692712Y-111543656D01*
X179784814Y-111394334D01*
X179826808Y-111267604D01*
X179866580Y-111210161D01*
X179931095Y-111183338D01*
X179999871Y-111195653D01*
X180032194Y-111218929D01*
X182563181Y-113749916D01*
X182596666Y-113811239D01*
X182599500Y-113837597D01*
X182599500Y-114747870D01*
X182599501Y-114747876D01*
X182605908Y-114807483D01*
X182656202Y-114942328D01*
X182656206Y-114942335D01*
X182742452Y-115057544D01*
X182742455Y-115057547D01*
X182857664Y-115143793D01*
X182857671Y-115143797D01*
X182992517Y-115194091D01*
X182992516Y-115194091D01*
X182999444Y-115194835D01*
X183052127Y-115200500D01*
X184547872Y-115200499D01*
X184607483Y-115194091D01*
X184742331Y-115143796D01*
X184857546Y-115057546D01*
X184943796Y-114942331D01*
X184994091Y-114807483D01*
X185000500Y-114747873D01*
X185000500Y-114747844D01*
X187100000Y-114747844D01*
X187106401Y-114807372D01*
X187106403Y-114807379D01*
X187156645Y-114942086D01*
X187156649Y-114942093D01*
X187242809Y-115057187D01*
X187242812Y-115057190D01*
X187357906Y-115143350D01*
X187357913Y-115143354D01*
X187492620Y-115193596D01*
X187492627Y-115193598D01*
X187552155Y-115199999D01*
X187552172Y-115200000D01*
X188050000Y-115200000D01*
X188550000Y-115200000D01*
X189047828Y-115200000D01*
X189047844Y-115199999D01*
X189107372Y-115193598D01*
X189107379Y-115193596D01*
X189242086Y-115143354D01*
X189242093Y-115143350D01*
X189357187Y-115057190D01*
X189357190Y-115057187D01*
X189443350Y-114942093D01*
X189443354Y-114942086D01*
X189493596Y-114807379D01*
X189493598Y-114807372D01*
X189499999Y-114747844D01*
X189500000Y-114747827D01*
X189500000Y-114150000D01*
X188550000Y-114150000D01*
X188550000Y-115200000D01*
X188050000Y-115200000D01*
X188050000Y-114150000D01*
X187100000Y-114150000D01*
X187100000Y-114747844D01*
X185000500Y-114747844D01*
X185000499Y-113837597D01*
X185000499Y-113052155D01*
X187100000Y-113052155D01*
X187100000Y-113650000D01*
X188050000Y-113650000D01*
X188550000Y-113650000D01*
X189500000Y-113650000D01*
X189500000Y-113052172D01*
X189499999Y-113052155D01*
X189493598Y-112992627D01*
X189493596Y-112992620D01*
X189443354Y-112857913D01*
X189443350Y-112857906D01*
X189357190Y-112742812D01*
X189357187Y-112742809D01*
X189242093Y-112656649D01*
X189242086Y-112656645D01*
X189107379Y-112606403D01*
X189107372Y-112606401D01*
X189047844Y-112600000D01*
X188550000Y-112600000D01*
X188550000Y-113650000D01*
X188050000Y-113650000D01*
X188050000Y-112600000D01*
X187552155Y-112600000D01*
X187492627Y-112606401D01*
X187492620Y-112606403D01*
X187357913Y-112656645D01*
X187357906Y-112656649D01*
X187242812Y-112742809D01*
X187242809Y-112742812D01*
X187156649Y-112857906D01*
X187156645Y-112857913D01*
X187106403Y-112992620D01*
X187106401Y-112992627D01*
X187100000Y-113052155D01*
X185000499Y-113052155D01*
X185000499Y-113052129D01*
X185000498Y-113052123D01*
X184994091Y-112992516D01*
X184943797Y-112857671D01*
X184943793Y-112857664D01*
X184857547Y-112742455D01*
X184857544Y-112742452D01*
X184742335Y-112656206D01*
X184742328Y-112656202D01*
X184607482Y-112605908D01*
X184607483Y-112605908D01*
X184547883Y-112599501D01*
X184547881Y-112599500D01*
X184547873Y-112599500D01*
X184547865Y-112599500D01*
X183162597Y-112599500D01*
X183095558Y-112579815D01*
X183074916Y-112563181D01*
X179886818Y-109375083D01*
X179853333Y-109313760D01*
X179850499Y-109287411D01*
X179850499Y-108687595D01*
X179870184Y-108620557D01*
X179886813Y-108599920D01*
X181949916Y-106536819D01*
X182011239Y-106503334D01*
X182037597Y-106500500D01*
X182475501Y-106500500D01*
X182542540Y-106520185D01*
X182588295Y-106572989D01*
X182599501Y-106624500D01*
X182599501Y-106747876D01*
X182605908Y-106807483D01*
X182656202Y-106942328D01*
X182656206Y-106942335D01*
X182742452Y-107057544D01*
X182742455Y-107057547D01*
X182857664Y-107143793D01*
X182857671Y-107143797D01*
X182992517Y-107194091D01*
X182992516Y-107194091D01*
X182996563Y-107194526D01*
X183052127Y-107200500D01*
X184547872Y-107200499D01*
X184607483Y-107194091D01*
X184742331Y-107143796D01*
X184857546Y-107057546D01*
X184943796Y-106942331D01*
X184994091Y-106807483D01*
X185000500Y-106747873D01*
X185000500Y-106747844D01*
X187100000Y-106747844D01*
X187106401Y-106807372D01*
X187106403Y-106807379D01*
X187156645Y-106942086D01*
X187156649Y-106942093D01*
X187242809Y-107057187D01*
X187242812Y-107057190D01*
X187357906Y-107143350D01*
X187357913Y-107143354D01*
X187492620Y-107193596D01*
X187492627Y-107193598D01*
X187552155Y-107199999D01*
X187552172Y-107200000D01*
X188050000Y-107200000D01*
X188550000Y-107200000D01*
X189047828Y-107200000D01*
X189047844Y-107199999D01*
X189107372Y-107193598D01*
X189107379Y-107193596D01*
X189242086Y-107143354D01*
X189242093Y-107143350D01*
X189357187Y-107057190D01*
X189357190Y-107057187D01*
X189443350Y-106942093D01*
X189443354Y-106942086D01*
X189493596Y-106807379D01*
X189493598Y-106807372D01*
X189499999Y-106747844D01*
X189500000Y-106747827D01*
X189500000Y-106150000D01*
X188550000Y-106150000D01*
X188550000Y-107200000D01*
X188050000Y-107200000D01*
X188050000Y-106150000D01*
X187100000Y-106150000D01*
X187100000Y-106747844D01*
X185000500Y-106747844D01*
X185000499Y-105859541D01*
X185000499Y-105052155D01*
X187100000Y-105052155D01*
X187100000Y-105650000D01*
X188050000Y-105650000D01*
X188550000Y-105650000D01*
X189500000Y-105650000D01*
X189500000Y-105052172D01*
X189499999Y-105052155D01*
X189493598Y-104992627D01*
X189493596Y-104992620D01*
X189443354Y-104857913D01*
X189443350Y-104857906D01*
X189357190Y-104742812D01*
X189357187Y-104742809D01*
X189242093Y-104656649D01*
X189242086Y-104656645D01*
X189107379Y-104606403D01*
X189107372Y-104606401D01*
X189047844Y-104600000D01*
X188550000Y-104600000D01*
X188550000Y-105650000D01*
X188050000Y-105650000D01*
X188050000Y-104600000D01*
X187552155Y-104600000D01*
X187492627Y-104606401D01*
X187492620Y-104606403D01*
X187357913Y-104656645D01*
X187357906Y-104656649D01*
X187242812Y-104742809D01*
X187242809Y-104742812D01*
X187156649Y-104857906D01*
X187156645Y-104857913D01*
X187106403Y-104992620D01*
X187106401Y-104992627D01*
X187100000Y-105052155D01*
X185000499Y-105052155D01*
X185000499Y-105052129D01*
X185000498Y-105052123D01*
X185000497Y-105052116D01*
X184994091Y-104992517D01*
X184989118Y-104979185D01*
X184943797Y-104857671D01*
X184943793Y-104857664D01*
X184857547Y-104742455D01*
X184857544Y-104742452D01*
X184742335Y-104656206D01*
X184742328Y-104656202D01*
X184607482Y-104605908D01*
X184607483Y-104605908D01*
X184547883Y-104599501D01*
X184547881Y-104599500D01*
X184547873Y-104599500D01*
X184547864Y-104599500D01*
X183052129Y-104599500D01*
X183052123Y-104599501D01*
X182992516Y-104605908D01*
X182857671Y-104656202D01*
X182857664Y-104656206D01*
X182742455Y-104742452D01*
X182742452Y-104742455D01*
X182656206Y-104857664D01*
X182656202Y-104857671D01*
X182605908Y-104992517D01*
X182599501Y-105052116D01*
X182599501Y-105052123D01*
X182599500Y-105052135D01*
X182599500Y-105175500D01*
X182579815Y-105242539D01*
X182527011Y-105288294D01*
X182475500Y-105299500D01*
X181658441Y-105299500D01*
X181621517Y-105309393D01*
X181621518Y-105309394D01*
X181505714Y-105340423D01*
X181505709Y-105340426D01*
X181368790Y-105419475D01*
X181368782Y-105419481D01*
X181256978Y-105531286D01*
X178850082Y-107938181D01*
X178788759Y-107971666D01*
X178762401Y-107974500D01*
X178149998Y-107974500D01*
X178149980Y-107974501D01*
X178047203Y-107985000D01*
X178047200Y-107985001D01*
X177880668Y-108040185D01*
X177880663Y-108040187D01*
X177731342Y-108132289D01*
X177607289Y-108256342D01*
X177515187Y-108405663D01*
X177515186Y-108405666D01*
X177460001Y-108572203D01*
X177460001Y-108572204D01*
X177460000Y-108572204D01*
X177449500Y-108674984D01*
X177449500Y-108674991D01*
X177449500Y-108830264D01*
X177449501Y-108875499D01*
X177429817Y-108942539D01*
X177377013Y-108988294D01*
X177325501Y-108999500D01*
X162799097Y-108999500D01*
X162732058Y-108979815D01*
X162686303Y-108927011D01*
X162676359Y-108857853D01*
X162705384Y-108794297D01*
X162711416Y-108787819D01*
X170471702Y-101027533D01*
X194682500Y-101027533D01*
X194682500Y-101322466D01*
X194682501Y-101322483D01*
X194720996Y-101614884D01*
X194720999Y-101614897D01*
X194797335Y-101899790D01*
X194797338Y-101899800D01*
X194910204Y-102172281D01*
X194910209Y-102172292D01*
X195057674Y-102427707D01*
X195057680Y-102427715D01*
X195174277Y-102579667D01*
X195960412Y-101793532D01*
X196055329Y-101924175D01*
X196183325Y-102052171D01*
X196313966Y-102147086D01*
X195527831Y-102933221D01*
X195679784Y-103049819D01*
X195679792Y-103049825D01*
X195935207Y-103197290D01*
X195935218Y-103197295D01*
X196207699Y-103310161D01*
X196207709Y-103310164D01*
X196492602Y-103386500D01*
X196492615Y-103386503D01*
X196785016Y-103424998D01*
X196785034Y-103425000D01*
X197079966Y-103425000D01*
X197079983Y-103424998D01*
X197372384Y-103386503D01*
X197372397Y-103386500D01*
X197657290Y-103310164D01*
X197657300Y-103310161D01*
X197929781Y-103197295D01*
X197929792Y-103197290D01*
X198185207Y-103049825D01*
X198185225Y-103049813D01*
X198337167Y-102933222D01*
X198337167Y-102933220D01*
X197551033Y-102147086D01*
X197681675Y-102052171D01*
X197809671Y-101924175D01*
X197904586Y-101793533D01*
X198690720Y-102579667D01*
X198690722Y-102579667D01*
X198807313Y-102427725D01*
X198807325Y-102427707D01*
X198954790Y-102172292D01*
X198954795Y-102172281D01*
X199067661Y-101899800D01*
X199067664Y-101899790D01*
X199144000Y-101614897D01*
X199144003Y-101614884D01*
X199182498Y-101322483D01*
X199182500Y-101322466D01*
X199182500Y-101027533D01*
X199182498Y-101027516D01*
X199144003Y-100735115D01*
X199144000Y-100735102D01*
X199067664Y-100450209D01*
X199067661Y-100450199D01*
X198954795Y-100177718D01*
X198954790Y-100177707D01*
X198807325Y-99922292D01*
X198807319Y-99922284D01*
X198690721Y-99770331D01*
X197904586Y-100556466D01*
X197809671Y-100425825D01*
X197681675Y-100297829D01*
X197551032Y-100202912D01*
X198337167Y-99416777D01*
X198185215Y-99300180D01*
X198185207Y-99300174D01*
X197929792Y-99152709D01*
X197929781Y-99152704D01*
X197657300Y-99039838D01*
X197657290Y-99039835D01*
X197372397Y-98963499D01*
X197372384Y-98963496D01*
X197079983Y-98925001D01*
X197079966Y-98925000D01*
X196785034Y-98925000D01*
X196785016Y-98925001D01*
X196492615Y-98963496D01*
X196492602Y-98963499D01*
X196207709Y-99039835D01*
X196207699Y-99039838D01*
X195935218Y-99152704D01*
X195935207Y-99152709D01*
X195679792Y-99300174D01*
X195679776Y-99300185D01*
X195527831Y-99416775D01*
X195527831Y-99416777D01*
X196313966Y-100202912D01*
X196183325Y-100297829D01*
X196055329Y-100425825D01*
X195960412Y-100556466D01*
X195174277Y-99770331D01*
X195174275Y-99770331D01*
X195057685Y-99922276D01*
X195057674Y-99922292D01*
X194910209Y-100177707D01*
X194910204Y-100177718D01*
X194797338Y-100450199D01*
X194797335Y-100450209D01*
X194720999Y-100735102D01*
X194720996Y-100735115D01*
X194682501Y-101027516D01*
X194682500Y-101027533D01*
X170471702Y-101027533D01*
X176537819Y-94961416D01*
X176599142Y-94927931D01*
X176668834Y-94932915D01*
X176724767Y-94974787D01*
X176749184Y-95040251D01*
X176749500Y-95049097D01*
X176749500Y-95178846D01*
X176780261Y-95333489D01*
X176780264Y-95333501D01*
X176840602Y-95479172D01*
X176840609Y-95479185D01*
X176928210Y-95610288D01*
X176928213Y-95610292D01*
X177039707Y-95721786D01*
X177039711Y-95721789D01*
X177170814Y-95809390D01*
X177170827Y-95809397D01*
X177311358Y-95867606D01*
X177316503Y-95869737D01*
X177390598Y-95884475D01*
X177414198Y-95889170D01*
X177476109Y-95921555D01*
X177507712Y-95971781D01*
X177515184Y-95994331D01*
X177515186Y-95994334D01*
X177607288Y-96143656D01*
X177731344Y-96267712D01*
X177880666Y-96359814D01*
X178047203Y-96414999D01*
X178149991Y-96425500D01*
X179150008Y-96425499D01*
X179150016Y-96425498D01*
X179150019Y-96425498D01*
X179206302Y-96419748D01*
X179252797Y-96414999D01*
X179419334Y-96359814D01*
X179568656Y-96267712D01*
X179692712Y-96143656D01*
X179784814Y-95994334D01*
X179826808Y-95867604D01*
X179866580Y-95810161D01*
X179931095Y-95783338D01*
X179999871Y-95795653D01*
X180032194Y-95818929D01*
X182563181Y-98349916D01*
X182596666Y-98411239D01*
X182599500Y-98437597D01*
X182599500Y-99347870D01*
X182599501Y-99347876D01*
X182605908Y-99407483D01*
X182656202Y-99542328D01*
X182656206Y-99542335D01*
X182742452Y-99657544D01*
X182742455Y-99657547D01*
X182857664Y-99743793D01*
X182857671Y-99743797D01*
X182992517Y-99794091D01*
X182992516Y-99794091D01*
X182999444Y-99794835D01*
X183052127Y-99800500D01*
X184547872Y-99800499D01*
X184607483Y-99794091D01*
X184742331Y-99743796D01*
X184857546Y-99657546D01*
X184943796Y-99542331D01*
X184994091Y-99407483D01*
X185000500Y-99347873D01*
X185000500Y-99347844D01*
X187100000Y-99347844D01*
X187106401Y-99407372D01*
X187106403Y-99407379D01*
X187156645Y-99542086D01*
X187156649Y-99542093D01*
X187242809Y-99657187D01*
X187242812Y-99657190D01*
X187357906Y-99743350D01*
X187357913Y-99743354D01*
X187492620Y-99793596D01*
X187492627Y-99793598D01*
X187552155Y-99799999D01*
X187552172Y-99800000D01*
X188050000Y-99800000D01*
X188550000Y-99800000D01*
X189047828Y-99800000D01*
X189047844Y-99799999D01*
X189107372Y-99793598D01*
X189107379Y-99793596D01*
X189242086Y-99743354D01*
X189242093Y-99743350D01*
X189357187Y-99657190D01*
X189357190Y-99657187D01*
X189443350Y-99542093D01*
X189443354Y-99542086D01*
X189488369Y-99421397D01*
X189488369Y-99421396D01*
X189493595Y-99407383D01*
X189493598Y-99407372D01*
X189499999Y-99347844D01*
X189500000Y-99347827D01*
X189500000Y-98750000D01*
X188550000Y-98750000D01*
X188550000Y-99800000D01*
X188050000Y-99800000D01*
X188050000Y-98750000D01*
X187100000Y-98750000D01*
X187100000Y-99347844D01*
X185000500Y-99347844D01*
X185000499Y-98437597D01*
X185000499Y-97652155D01*
X187100000Y-97652155D01*
X187100000Y-98250000D01*
X188050000Y-98250000D01*
X188550000Y-98250000D01*
X189500000Y-98250000D01*
X189500000Y-97652172D01*
X189499999Y-97652155D01*
X189493598Y-97592627D01*
X189493596Y-97592620D01*
X189443354Y-97457913D01*
X189443350Y-97457906D01*
X189357190Y-97342812D01*
X189357187Y-97342809D01*
X189242093Y-97256649D01*
X189242086Y-97256645D01*
X189107379Y-97206403D01*
X189107372Y-97206401D01*
X189047844Y-97200000D01*
X188550000Y-97200000D01*
X188550000Y-98250000D01*
X188050000Y-98250000D01*
X188050000Y-97200000D01*
X187552155Y-97200000D01*
X187492627Y-97206401D01*
X187492620Y-97206403D01*
X187357913Y-97256645D01*
X187357906Y-97256649D01*
X187242812Y-97342809D01*
X187242809Y-97342812D01*
X187156649Y-97457906D01*
X187156645Y-97457913D01*
X187106403Y-97592620D01*
X187106401Y-97592627D01*
X187100000Y-97652155D01*
X185000499Y-97652155D01*
X185000499Y-97652129D01*
X185000498Y-97652123D01*
X184994091Y-97592516D01*
X184943797Y-97457671D01*
X184943793Y-97457664D01*
X184857547Y-97342455D01*
X184857544Y-97342452D01*
X184742335Y-97256206D01*
X184742328Y-97256202D01*
X184607482Y-97205908D01*
X184607483Y-97205908D01*
X184547883Y-97199501D01*
X184547881Y-97199500D01*
X184547873Y-97199500D01*
X184547865Y-97199500D01*
X183162597Y-97199500D01*
X183095558Y-97179815D01*
X183074916Y-97163181D01*
X179886818Y-93975083D01*
X179853333Y-93913760D01*
X179850499Y-93887411D01*
X179850499Y-93400639D01*
X192960000Y-93400639D01*
X192960000Y-93599360D01*
X192991087Y-93795637D01*
X193052493Y-93984629D01*
X193052494Y-93984632D01*
X193142713Y-94161694D01*
X193259519Y-94322464D01*
X193259521Y-94322466D01*
X193349374Y-94412319D01*
X193382859Y-94473642D01*
X193377875Y-94543334D01*
X193349374Y-94587681D01*
X193259521Y-94677533D01*
X193142713Y-94838305D01*
X193052494Y-95015367D01*
X193052493Y-95015370D01*
X192991087Y-95204362D01*
X192960000Y-95400639D01*
X192960000Y-95599360D01*
X192991087Y-95795637D01*
X193052493Y-95984629D01*
X193052494Y-95984632D01*
X193057439Y-95994336D01*
X193142713Y-96161694D01*
X193259519Y-96322464D01*
X193400036Y-96462981D01*
X193458374Y-96505366D01*
X193470387Y-96514094D01*
X193513052Y-96569425D01*
X193519031Y-96639038D01*
X193486425Y-96700833D01*
X193425586Y-96735190D01*
X193410755Y-96737702D01*
X193353016Y-96743909D01*
X193218171Y-96794202D01*
X193218164Y-96794206D01*
X193102955Y-96880452D01*
X193102952Y-96880455D01*
X193016706Y-96995664D01*
X193016702Y-96995671D01*
X192966408Y-97130517D01*
X192960001Y-97190116D01*
X192960001Y-97190123D01*
X192960000Y-97190135D01*
X192960000Y-98809870D01*
X192960001Y-98809876D01*
X192966408Y-98869483D01*
X193016702Y-99004328D01*
X193016706Y-99004335D01*
X193102952Y-99119544D01*
X193102955Y-99119547D01*
X193218164Y-99205793D01*
X193218171Y-99205797D01*
X193353017Y-99256091D01*
X193353016Y-99256091D01*
X193359944Y-99256835D01*
X193412627Y-99262500D01*
X195032372Y-99262499D01*
X195091983Y-99256091D01*
X195226831Y-99205796D01*
X195342046Y-99119546D01*
X195428296Y-99004331D01*
X195478591Y-98869483D01*
X195485000Y-98809873D01*
X195484999Y-97190128D01*
X195478591Y-97130517D01*
X195428296Y-96995669D01*
X195428295Y-96995668D01*
X195428293Y-96995664D01*
X195342047Y-96880455D01*
X195342044Y-96880452D01*
X195226835Y-96794206D01*
X195226828Y-96794202D01*
X195091983Y-96743908D01*
X195034241Y-96737700D01*
X194969690Y-96710961D01*
X194929843Y-96653568D01*
X194927350Y-96583743D01*
X194963004Y-96523655D01*
X194974602Y-96514101D01*
X195044964Y-96462981D01*
X195185481Y-96322464D01*
X195302287Y-96161694D01*
X195392505Y-95984632D01*
X195453913Y-95795636D01*
X195485000Y-95599361D01*
X195485000Y-95400639D01*
X195453913Y-95204364D01*
X195399187Y-95035932D01*
X195392506Y-95015370D01*
X195392505Y-95015367D01*
X195302286Y-94838305D01*
X195300238Y-94835486D01*
X195185481Y-94677536D01*
X195095626Y-94587681D01*
X195062141Y-94526358D01*
X195067125Y-94456666D01*
X195095626Y-94412319D01*
X195129269Y-94378676D01*
X195185481Y-94322464D01*
X195302287Y-94161694D01*
X195392505Y-93984632D01*
X195453913Y-93795636D01*
X195485000Y-93599361D01*
X195485000Y-93400639D01*
X195453913Y-93204364D01*
X195402144Y-93045033D01*
X195392506Y-93015370D01*
X195392505Y-93015367D01*
X195346061Y-92924216D01*
X195302287Y-92838306D01*
X195185481Y-92677536D01*
X195044964Y-92537019D01*
X194884194Y-92420213D01*
X194766419Y-92360203D01*
X194715624Y-92312229D01*
X194698829Y-92244408D01*
X194721366Y-92178273D01*
X194766421Y-92139234D01*
X194883922Y-92079364D01*
X194921216Y-92052268D01*
X194319250Y-91450302D01*
X194400053Y-91428651D01*
X194504946Y-91368091D01*
X194590591Y-91282446D01*
X194651151Y-91177553D01*
X194672802Y-91096749D01*
X195274768Y-91698715D01*
X195301862Y-91661425D01*
X195392042Y-91484437D01*
X195453424Y-91295523D01*
X195453424Y-91295520D01*
X195484500Y-91099321D01*
X195484500Y-90900678D01*
X195453424Y-90704479D01*
X195453424Y-90704476D01*
X195392042Y-90515562D01*
X195301858Y-90338567D01*
X195274768Y-90301283D01*
X194672802Y-90903249D01*
X194651151Y-90822447D01*
X194590591Y-90717554D01*
X194504946Y-90631909D01*
X194400053Y-90571349D01*
X194319249Y-90549697D01*
X194921216Y-89947731D01*
X194921215Y-89947730D01*
X194883932Y-89920641D01*
X194706937Y-89830457D01*
X194518022Y-89769075D01*
X194321821Y-89738000D01*
X194123179Y-89738000D01*
X193926979Y-89769075D01*
X193926976Y-89769075D01*
X193738062Y-89830457D01*
X193561064Y-89920643D01*
X193523783Y-89947729D01*
X193523782Y-89947730D01*
X194125750Y-90549697D01*
X194044947Y-90571349D01*
X193940054Y-90631909D01*
X193854409Y-90717554D01*
X193793849Y-90822447D01*
X193772197Y-90903250D01*
X193170230Y-90301282D01*
X193170229Y-90301283D01*
X193143143Y-90338564D01*
X193052957Y-90515562D01*
X192991575Y-90704476D01*
X192991575Y-90704479D01*
X192960500Y-90900678D01*
X192960500Y-91099321D01*
X192991575Y-91295520D01*
X192991575Y-91295523D01*
X193052957Y-91484437D01*
X193143141Y-91661432D01*
X193170230Y-91698715D01*
X193170231Y-91698716D01*
X193772197Y-91096749D01*
X193793849Y-91177553D01*
X193854409Y-91282446D01*
X193940054Y-91368091D01*
X194044947Y-91428651D01*
X194125750Y-91450302D01*
X193523783Y-92052268D01*
X193523783Y-92052269D01*
X193561067Y-92079358D01*
X193678579Y-92139234D01*
X193729375Y-92187209D01*
X193746170Y-92255030D01*
X193723633Y-92321165D01*
X193678579Y-92360204D01*
X193560805Y-92420213D01*
X193400033Y-92537021D01*
X193259521Y-92677533D01*
X193142713Y-92838305D01*
X193052494Y-93015367D01*
X193052493Y-93015370D01*
X192991087Y-93204362D01*
X192960000Y-93400639D01*
X179850499Y-93400639D01*
X179850499Y-93287595D01*
X179870184Y-93220557D01*
X179886813Y-93199920D01*
X181949916Y-91136819D01*
X182011239Y-91103334D01*
X182037597Y-91100500D01*
X182475501Y-91100500D01*
X182542540Y-91120185D01*
X182588295Y-91172989D01*
X182599501Y-91224500D01*
X182599501Y-91347876D01*
X182605908Y-91407483D01*
X182656202Y-91542328D01*
X182656206Y-91542335D01*
X182742452Y-91657544D01*
X182742455Y-91657547D01*
X182857664Y-91743793D01*
X182857671Y-91743797D01*
X182992517Y-91794091D01*
X182992516Y-91794091D01*
X182999444Y-91794835D01*
X183052127Y-91800500D01*
X184547872Y-91800499D01*
X184607483Y-91794091D01*
X184742331Y-91743796D01*
X184857546Y-91657546D01*
X184943796Y-91542331D01*
X184994091Y-91407483D01*
X185000500Y-91347873D01*
X185000500Y-91347844D01*
X187100000Y-91347844D01*
X187106401Y-91407372D01*
X187106403Y-91407379D01*
X187156645Y-91542086D01*
X187156649Y-91542093D01*
X187242809Y-91657187D01*
X187242812Y-91657190D01*
X187357906Y-91743350D01*
X187357913Y-91743354D01*
X187492620Y-91793596D01*
X187492627Y-91793598D01*
X187552155Y-91799999D01*
X187552172Y-91800000D01*
X188050000Y-91800000D01*
X188550000Y-91800000D01*
X189047828Y-91800000D01*
X189047844Y-91799999D01*
X189107372Y-91793598D01*
X189107379Y-91793596D01*
X189242086Y-91743354D01*
X189242093Y-91743350D01*
X189357187Y-91657190D01*
X189357190Y-91657187D01*
X189443350Y-91542093D01*
X189443354Y-91542086D01*
X189493596Y-91407379D01*
X189493598Y-91407372D01*
X189499999Y-91347844D01*
X189500000Y-91347827D01*
X189500000Y-90750000D01*
X188550000Y-90750000D01*
X188550000Y-91800000D01*
X188050000Y-91800000D01*
X188050000Y-90750000D01*
X187100000Y-90750000D01*
X187100000Y-91347844D01*
X185000500Y-91347844D01*
X185000499Y-90366510D01*
X185000499Y-89652155D01*
X187100000Y-89652155D01*
X187100000Y-90250000D01*
X188050000Y-90250000D01*
X188550000Y-90250000D01*
X189500000Y-90250000D01*
X189500000Y-89652172D01*
X189499999Y-89652155D01*
X189493598Y-89592627D01*
X189493596Y-89592619D01*
X189488369Y-89578604D01*
X189488368Y-89578602D01*
X189443354Y-89457913D01*
X189443350Y-89457906D01*
X189357190Y-89342812D01*
X189357187Y-89342809D01*
X189242093Y-89256649D01*
X189242086Y-89256645D01*
X189107379Y-89206403D01*
X189107372Y-89206401D01*
X189047844Y-89200000D01*
X188550000Y-89200000D01*
X188550000Y-90250000D01*
X188050000Y-90250000D01*
X188050000Y-89200000D01*
X187552155Y-89200000D01*
X187492627Y-89206401D01*
X187492620Y-89206403D01*
X187357913Y-89256645D01*
X187357906Y-89256649D01*
X187242812Y-89342809D01*
X187242809Y-89342812D01*
X187156649Y-89457906D01*
X187156645Y-89457913D01*
X187106403Y-89592620D01*
X187106401Y-89592627D01*
X187100000Y-89652155D01*
X185000499Y-89652155D01*
X185000499Y-89652129D01*
X185000498Y-89652123D01*
X185000497Y-89652116D01*
X184994091Y-89592517D01*
X184990624Y-89583222D01*
X184943797Y-89457671D01*
X184943793Y-89457664D01*
X184857547Y-89342455D01*
X184857544Y-89342452D01*
X184742335Y-89256206D01*
X184742328Y-89256202D01*
X184607482Y-89205908D01*
X184607483Y-89205908D01*
X184547883Y-89199501D01*
X184547881Y-89199500D01*
X184547873Y-89199500D01*
X184547864Y-89199500D01*
X183052129Y-89199500D01*
X183052123Y-89199501D01*
X182992516Y-89205908D01*
X182857671Y-89256202D01*
X182857664Y-89256206D01*
X182742455Y-89342452D01*
X182742452Y-89342455D01*
X182656206Y-89457664D01*
X182656202Y-89457671D01*
X182605908Y-89592517D01*
X182599501Y-89652116D01*
X182599501Y-89652123D01*
X182599500Y-89652135D01*
X182599500Y-89775500D01*
X182579815Y-89842539D01*
X182527011Y-89888294D01*
X182475500Y-89899500D01*
X181658440Y-89899500D01*
X181617519Y-89910464D01*
X181617519Y-89910465D01*
X181580251Y-89920451D01*
X181505714Y-89940423D01*
X181505709Y-89940426D01*
X181368790Y-90019475D01*
X181368782Y-90019481D01*
X181256978Y-90131286D01*
X178850082Y-92538181D01*
X178788759Y-92571666D01*
X178762401Y-92574500D01*
X178149998Y-92574500D01*
X178149980Y-92574501D01*
X178047203Y-92585000D01*
X178047200Y-92585001D01*
X177880668Y-92640185D01*
X177880663Y-92640187D01*
X177731342Y-92732289D01*
X177607289Y-92856342D01*
X177592353Y-92880556D01*
X177565422Y-92924221D01*
X177563031Y-92928097D01*
X177511083Y-92974821D01*
X177457492Y-92987000D01*
X177149169Y-92987000D01*
X177149153Y-92986999D01*
X177141557Y-92986999D01*
X176983443Y-92986999D01*
X176877574Y-93015367D01*
X176830714Y-93027923D01*
X176801080Y-93045033D01*
X176801079Y-93045033D01*
X176693787Y-93106977D01*
X176693782Y-93106981D01*
X176581978Y-93218786D01*
X161495184Y-108305581D01*
X161433861Y-108339066D01*
X161407503Y-108341900D01*
X156909191Y-108341900D01*
X156842152Y-108322215D01*
X156796397Y-108269411D01*
X156786453Y-108200253D01*
X156791260Y-108179582D01*
X156812736Y-108113484D01*
X156812736Y-108113483D01*
X156812737Y-108113480D01*
X156835198Y-107971666D01*
X156845700Y-107905363D01*
X156845700Y-107694636D01*
X156812737Y-107486519D01*
X156747620Y-107286112D01*
X156703743Y-107200000D01*
X156651959Y-107098368D01*
X156622301Y-107057547D01*
X156528109Y-106927900D01*
X156379099Y-106778890D01*
X156208635Y-106655043D01*
X156208634Y-106655042D01*
X156208632Y-106655041D01*
X156148692Y-106624500D01*
X156020887Y-106559379D01*
X155820480Y-106494262D01*
X155612363Y-106461300D01*
X155612358Y-106461300D01*
X155401642Y-106461300D01*
X155401637Y-106461300D01*
X155193519Y-106494262D01*
X154993112Y-106559379D01*
X154805364Y-106655043D01*
X154634900Y-106778890D01*
X154485890Y-106927900D01*
X154362041Y-107098366D01*
X154347484Y-107126936D01*
X154299509Y-107177732D01*
X154231688Y-107194526D01*
X154165553Y-107171988D01*
X154126516Y-107126936D01*
X154111958Y-107098366D01*
X153988109Y-106927900D01*
X153839099Y-106778890D01*
X153668635Y-106655043D01*
X153668634Y-106655042D01*
X153668632Y-106655041D01*
X153608692Y-106624500D01*
X153480887Y-106559379D01*
X153280480Y-106494262D01*
X153072363Y-106461300D01*
X153072358Y-106461300D01*
X152861642Y-106461300D01*
X152861637Y-106461300D01*
X152653519Y-106494262D01*
X152453112Y-106559379D01*
X152265364Y-106655043D01*
X152094900Y-106778890D01*
X151945890Y-106927900D01*
X151822041Y-107098366D01*
X151807484Y-107126936D01*
X151759509Y-107177732D01*
X151691688Y-107194526D01*
X151625553Y-107171988D01*
X151586516Y-107126936D01*
X151571958Y-107098366D01*
X151448109Y-106927900D01*
X151299099Y-106778890D01*
X151128635Y-106655043D01*
X151128634Y-106655042D01*
X151128632Y-106655041D01*
X151068692Y-106624500D01*
X150940887Y-106559379D01*
X150740480Y-106494262D01*
X150532363Y-106461300D01*
X150532358Y-106461300D01*
X150321642Y-106461300D01*
X150321637Y-106461300D01*
X150113519Y-106494262D01*
X149913112Y-106559379D01*
X149725364Y-106655043D01*
X149554900Y-106778890D01*
X149405890Y-106927900D01*
X149282041Y-107098366D01*
X149267484Y-107126936D01*
X149219509Y-107177732D01*
X149151688Y-107194526D01*
X149085553Y-107171988D01*
X149046516Y-107126936D01*
X149031958Y-107098366D01*
X148908109Y-106927900D01*
X148759099Y-106778890D01*
X148588635Y-106655043D01*
X148588634Y-106655042D01*
X148588632Y-106655041D01*
X148528692Y-106624500D01*
X148400887Y-106559379D01*
X148200480Y-106494262D01*
X147992363Y-106461300D01*
X147992358Y-106461300D01*
X147781642Y-106461300D01*
X147781637Y-106461300D01*
X147573519Y-106494262D01*
X147373112Y-106559379D01*
X147185364Y-106655043D01*
X147014900Y-106778890D01*
X146865890Y-106927900D01*
X146742041Y-107098366D01*
X146727484Y-107126936D01*
X146679509Y-107177732D01*
X146611688Y-107194526D01*
X146545553Y-107171988D01*
X146506516Y-107126936D01*
X146491958Y-107098366D01*
X146368109Y-106927900D01*
X146219099Y-106778890D01*
X146048635Y-106655043D01*
X146048634Y-106655042D01*
X146048632Y-106655041D01*
X145988692Y-106624500D01*
X145860887Y-106559379D01*
X145660480Y-106494262D01*
X145452363Y-106461300D01*
X145452358Y-106461300D01*
X145241642Y-106461300D01*
X145241637Y-106461300D01*
X145033519Y-106494262D01*
X144833112Y-106559379D01*
X144645364Y-106655043D01*
X144474900Y-106778890D01*
X144325890Y-106927900D01*
X144202041Y-107098366D01*
X144187484Y-107126936D01*
X144139509Y-107177732D01*
X144071688Y-107194526D01*
X144005553Y-107171988D01*
X143966516Y-107126936D01*
X143951958Y-107098366D01*
X143828109Y-106927900D01*
X143679099Y-106778890D01*
X143508635Y-106655043D01*
X143508634Y-106655042D01*
X143508632Y-106655041D01*
X143448692Y-106624500D01*
X143320887Y-106559379D01*
X143120480Y-106494262D01*
X142912363Y-106461300D01*
X142912358Y-106461300D01*
X142701642Y-106461300D01*
X142701637Y-106461300D01*
X142493519Y-106494262D01*
X142293112Y-106559379D01*
X142105364Y-106655043D01*
X141934900Y-106778890D01*
X141785890Y-106927900D01*
X141662041Y-107098366D01*
X141647484Y-107126936D01*
X141599509Y-107177732D01*
X141531688Y-107194526D01*
X141465553Y-107171988D01*
X141426516Y-107126936D01*
X141411958Y-107098366D01*
X141288109Y-106927900D01*
X141139099Y-106778890D01*
X140968635Y-106655043D01*
X140968634Y-106655042D01*
X140968632Y-106655041D01*
X140908692Y-106624500D01*
X140780887Y-106559379D01*
X140580480Y-106494262D01*
X140372363Y-106461300D01*
X140372358Y-106461300D01*
X140161642Y-106461300D01*
X140161637Y-106461300D01*
X139953519Y-106494262D01*
X139753112Y-106559379D01*
X139565364Y-106655043D01*
X139394900Y-106778890D01*
X139245890Y-106927900D01*
X139122041Y-107098366D01*
X139107484Y-107126936D01*
X139059509Y-107177732D01*
X138991688Y-107194526D01*
X138925553Y-107171988D01*
X138886516Y-107126936D01*
X138871958Y-107098366D01*
X138748109Y-106927900D01*
X138599099Y-106778890D01*
X138428635Y-106655043D01*
X138428634Y-106655042D01*
X138428632Y-106655041D01*
X138368692Y-106624500D01*
X138240887Y-106559379D01*
X138040480Y-106494262D01*
X137832363Y-106461300D01*
X137832358Y-106461300D01*
X137674296Y-106461300D01*
X137607257Y-106441615D01*
X137561502Y-106388811D01*
X137551558Y-106319653D01*
X137580583Y-106256097D01*
X137586615Y-106249619D01*
X138725945Y-105110289D01*
X143134720Y-100701516D01*
X143213777Y-100564584D01*
X143254701Y-100411857D01*
X143254701Y-100253742D01*
X143254701Y-100246147D01*
X143254700Y-100246129D01*
X143254700Y-95125145D01*
X143254700Y-95125143D01*
X143230796Y-95035931D01*
X143213777Y-94972415D01*
X143164876Y-94887717D01*
X143134720Y-94835484D01*
X143022916Y-94723680D01*
X143022915Y-94723679D01*
X143018585Y-94719349D01*
X143018574Y-94719339D01*
X138884574Y-90585339D01*
X138851089Y-90524016D01*
X138850638Y-90521849D01*
X138819738Y-90366510D01*
X138819737Y-90366503D01*
X138808166Y-90338567D01*
X138759397Y-90220827D01*
X138759390Y-90220814D01*
X138671789Y-90089711D01*
X138671786Y-90089707D01*
X138560292Y-89978213D01*
X138560288Y-89978210D01*
X138429185Y-89890609D01*
X138429172Y-89890602D01*
X138283501Y-89830264D01*
X138283489Y-89830261D01*
X138128845Y-89799500D01*
X138128842Y-89799500D01*
X137971158Y-89799500D01*
X137971155Y-89799500D01*
X137816510Y-89830261D01*
X137816498Y-89830264D01*
X137670827Y-89890602D01*
X137670814Y-89890609D01*
X137539711Y-89978210D01*
X137539707Y-89978213D01*
X137428213Y-90089707D01*
X137428210Y-90089711D01*
X137340609Y-90220814D01*
X137340602Y-90220827D01*
X137280264Y-90366498D01*
X137280261Y-90366510D01*
X137249500Y-90521153D01*
X137249500Y-90667625D01*
X137229815Y-90734664D01*
X137213181Y-90755306D01*
X137120841Y-90847645D01*
X137120838Y-90847649D01*
X137033237Y-90978752D01*
X137033234Y-90978759D01*
X137019532Y-91011838D01*
X136975690Y-91066241D01*
X136973865Y-91067484D01*
X136967385Y-91071813D01*
X136967378Y-91071819D01*
X136862851Y-91176346D01*
X136862848Y-91176350D01*
X136780719Y-91299264D01*
X136780712Y-91299277D01*
X136724143Y-91435848D01*
X136724140Y-91435858D01*
X136695300Y-91580845D01*
X136695300Y-91580848D01*
X136695300Y-92519718D01*
X136695300Y-92519720D01*
X136695299Y-92519720D01*
X136724140Y-92664707D01*
X136724142Y-92664713D01*
X136752132Y-92732288D01*
X136780717Y-92801297D01*
X136780718Y-92801298D01*
X136786122Y-92809385D01*
X136786125Y-92809395D01*
X136786128Y-92809394D01*
X136862851Y-92924220D01*
X136862852Y-92924221D01*
X138277080Y-94338448D01*
X138303960Y-94378676D01*
X138313757Y-94402328D01*
X138313762Y-94402338D01*
X138401363Y-94533441D01*
X138401366Y-94533445D01*
X138512860Y-94644939D01*
X138512864Y-94644942D01*
X138643967Y-94732543D01*
X138643980Y-94732550D01*
X138789651Y-94792888D01*
X138789656Y-94792890D01*
X138944306Y-94823652D01*
X138944309Y-94823653D01*
X138944311Y-94823653D01*
X139101997Y-94823653D01*
X139101998Y-94823652D01*
X139256650Y-94792890D01*
X139402332Y-94732547D01*
X139533442Y-94644942D01*
X139644942Y-94533442D01*
X139732547Y-94402332D01*
X139792890Y-94256650D01*
X139823653Y-94101995D01*
X139823653Y-93944311D01*
X139823653Y-93944308D01*
X139823652Y-93944306D01*
X139812333Y-93887402D01*
X139792890Y-93789656D01*
X139792888Y-93789651D01*
X139732550Y-93643980D01*
X139732543Y-93643967D01*
X139644942Y-93512864D01*
X139644939Y-93512860D01*
X139533445Y-93401366D01*
X139533441Y-93401363D01*
X139402338Y-93313762D01*
X139402328Y-93313757D01*
X139378676Y-93303960D01*
X139338448Y-93277080D01*
X138232778Y-92171410D01*
X138199293Y-92110087D01*
X138204277Y-92040395D01*
X138234569Y-91994292D01*
X138242459Y-91986714D01*
X138252917Y-91979727D01*
X138329956Y-91902687D01*
X138330814Y-91901864D01*
X138360754Y-91886292D01*
X138390344Y-91870135D01*
X138391644Y-91870228D01*
X138392802Y-91869626D01*
X138426420Y-91872715D01*
X138460036Y-91875119D01*
X138461279Y-91875917D01*
X138462379Y-91876019D01*
X138466768Y-91879445D01*
X138504385Y-91903620D01*
X142017381Y-95416616D01*
X142050866Y-95477939D01*
X142053700Y-95504297D01*
X142053700Y-97681316D01*
X142034015Y-97748355D01*
X141981211Y-97794110D01*
X141953892Y-97802933D01*
X141816508Y-97830261D01*
X141816498Y-97830264D01*
X141670827Y-97890602D01*
X141670814Y-97890609D01*
X141539125Y-97978602D01*
X141521078Y-97984252D01*
X141505169Y-97994477D01*
X141474207Y-97998928D01*
X141472447Y-97999480D01*
X141470234Y-97999500D01*
X141400098Y-97999500D01*
X141333059Y-97979815D01*
X141312417Y-97963181D01*
X135661465Y-92312229D01*
X129870388Y-86521153D01*
X137249500Y-86521153D01*
X137249500Y-86678846D01*
X137280261Y-86833489D01*
X137280264Y-86833501D01*
X137340602Y-86979172D01*
X137340609Y-86979185D01*
X137428602Y-87110874D01*
X137449480Y-87177551D01*
X137449500Y-87179765D01*
X137449500Y-88013330D01*
X137449499Y-88013348D01*
X137449499Y-88179054D01*
X137449498Y-88179054D01*
X137449499Y-88179057D01*
X137490423Y-88331785D01*
X137510468Y-88366503D01*
X137545818Y-88427731D01*
X137569479Y-88468715D01*
X137681284Y-88580520D01*
X137715425Y-88614660D01*
X137748911Y-88675983D01*
X137749362Y-88678151D01*
X137780261Y-88833491D01*
X137780264Y-88833501D01*
X137840602Y-88979172D01*
X137840609Y-88979185D01*
X137928210Y-89110288D01*
X137928213Y-89110292D01*
X138039707Y-89221786D01*
X138039711Y-89221789D01*
X138170814Y-89309390D01*
X138170827Y-89309397D01*
X138316498Y-89369735D01*
X138316503Y-89369737D01*
X138471153Y-89400499D01*
X138471156Y-89400500D01*
X138471158Y-89400500D01*
X138628844Y-89400500D01*
X138628845Y-89400499D01*
X138783497Y-89369737D01*
X138929179Y-89309394D01*
X139060289Y-89221789D01*
X139171789Y-89110289D01*
X139259394Y-88979179D01*
X139319737Y-88833497D01*
X139350500Y-88678842D01*
X139350500Y-88521158D01*
X139350500Y-88521155D01*
X139350499Y-88521153D01*
X139319737Y-88366503D01*
X139319735Y-88366498D01*
X139259397Y-88220827D01*
X139259390Y-88220814D01*
X139171789Y-88089711D01*
X139171786Y-88089707D01*
X139060292Y-87978213D01*
X139060288Y-87978210D01*
X138929185Y-87890609D01*
X138929172Y-87890602D01*
X138783501Y-87830264D01*
X138783489Y-87830261D01*
X138750309Y-87823661D01*
X138688398Y-87791276D01*
X138653824Y-87730561D01*
X138650500Y-87702044D01*
X138650500Y-87179765D01*
X138670185Y-87112726D01*
X138671398Y-87110874D01*
X138759390Y-86979185D01*
X138759390Y-86979184D01*
X138759394Y-86979179D01*
X138772380Y-86947829D01*
X138819735Y-86833501D01*
X138819737Y-86833497D01*
X138850500Y-86678842D01*
X138850500Y-86521158D01*
X138850500Y-86521155D01*
X138850499Y-86521153D01*
X138820177Y-86368716D01*
X138819737Y-86366503D01*
X138819735Y-86366498D01*
X138759397Y-86220827D01*
X138759390Y-86220814D01*
X138671789Y-86089711D01*
X138671786Y-86089707D01*
X138560292Y-85978213D01*
X138560288Y-85978210D01*
X138429185Y-85890609D01*
X138429172Y-85890602D01*
X138283501Y-85830264D01*
X138283489Y-85830261D01*
X138128845Y-85799500D01*
X138128842Y-85799500D01*
X137971158Y-85799500D01*
X137971155Y-85799500D01*
X137816510Y-85830261D01*
X137816498Y-85830264D01*
X137670827Y-85890602D01*
X137670814Y-85890609D01*
X137539711Y-85978210D01*
X137539707Y-85978213D01*
X137428213Y-86089707D01*
X137428210Y-86089711D01*
X137340609Y-86220814D01*
X137340602Y-86220827D01*
X137280264Y-86366498D01*
X137280261Y-86366510D01*
X137249500Y-86521153D01*
X129870388Y-86521153D01*
X128369094Y-85019859D01*
X128335610Y-84958537D01*
X128340594Y-84888845D01*
X128382466Y-84832912D01*
X128409323Y-84817618D01*
X128429179Y-84809394D01*
X128560289Y-84721789D01*
X128671789Y-84610289D01*
X128759394Y-84479179D01*
X128819737Y-84333497D01*
X128842151Y-84220814D01*
X128850638Y-84178151D01*
X128859402Y-84161396D01*
X128863422Y-84142916D01*
X128882167Y-84117874D01*
X128883023Y-84116240D01*
X128884573Y-84114662D01*
X128940903Y-84058331D01*
X128940908Y-84058327D01*
X128951114Y-84048120D01*
X128951116Y-84048120D01*
X129062920Y-83936316D01*
X129124149Y-83830263D01*
X129141977Y-83799385D01*
X129179749Y-83658415D01*
X129181028Y-83654637D01*
X129198890Y-83629180D01*
X129215077Y-83602624D01*
X129218789Y-83600820D01*
X129221160Y-83597442D01*
X129249954Y-83585681D01*
X129277924Y-83572095D01*
X129282021Y-83572584D01*
X129285843Y-83571024D01*
X129316429Y-83576699D01*
X129347299Y-83580390D01*
X129354503Y-83583763D01*
X129354538Y-83583769D01*
X129354541Y-83583771D01*
X129354561Y-83583790D01*
X129354772Y-83583889D01*
X129391542Y-83602624D01*
X129466110Y-83640619D01*
X129466113Y-83640619D01*
X129466117Y-83640622D01*
X129604531Y-83685595D01*
X129666519Y-83705737D01*
X129874637Y-83738700D01*
X129874642Y-83738700D01*
X130085363Y-83738700D01*
X130293480Y-83705737D01*
X130293483Y-83705736D01*
X130493883Y-83640622D01*
X130681632Y-83544959D01*
X130777344Y-83475420D01*
X130852099Y-83421109D01*
X130852101Y-83421106D01*
X130852105Y-83421104D01*
X131001104Y-83272105D01*
X131001106Y-83272101D01*
X131001109Y-83272099D01*
X131124956Y-83101636D01*
X131124957Y-83101635D01*
X131124959Y-83101632D01*
X131139515Y-83073063D01*
X131187490Y-83022268D01*
X131255311Y-83005473D01*
X131321446Y-83028010D01*
X131360485Y-83073064D01*
X131375043Y-83101636D01*
X131498890Y-83272099D01*
X131647900Y-83421109D01*
X131740717Y-83488543D01*
X131818368Y-83544959D01*
X131921372Y-83597442D01*
X132006112Y-83640620D01*
X132006114Y-83640620D01*
X132006117Y-83640622D01*
X132100534Y-83671300D01*
X132206519Y-83705737D01*
X132414637Y-83738700D01*
X132414642Y-83738700D01*
X132625363Y-83738700D01*
X132833480Y-83705737D01*
X132833483Y-83705736D01*
X133033883Y-83640622D01*
X133221632Y-83544959D01*
X133317344Y-83475420D01*
X133392099Y-83421109D01*
X133392101Y-83421106D01*
X133392105Y-83421104D01*
X133541104Y-83272105D01*
X133541106Y-83272101D01*
X133541109Y-83272099D01*
X133664956Y-83101636D01*
X133664957Y-83101635D01*
X133664959Y-83101632D01*
X133679515Y-83073063D01*
X133727490Y-83022268D01*
X133795311Y-83005473D01*
X133861446Y-83028010D01*
X133900485Y-83073064D01*
X133915043Y-83101636D01*
X134038890Y-83272099D01*
X134187900Y-83421109D01*
X134280717Y-83488543D01*
X134358368Y-83544959D01*
X134461372Y-83597442D01*
X134546112Y-83640620D01*
X134546114Y-83640620D01*
X134546117Y-83640622D01*
X134640534Y-83671300D01*
X134746519Y-83705737D01*
X134954637Y-83738700D01*
X134954642Y-83738700D01*
X135165363Y-83738700D01*
X135373480Y-83705737D01*
X135373483Y-83705736D01*
X135573883Y-83640622D01*
X135761632Y-83544959D01*
X135857344Y-83475420D01*
X135932099Y-83421109D01*
X135932101Y-83421106D01*
X135932105Y-83421104D01*
X136081104Y-83272105D01*
X136081106Y-83272101D01*
X136081109Y-83272099D01*
X136204956Y-83101636D01*
X136204957Y-83101635D01*
X136204959Y-83101632D01*
X136219515Y-83073063D01*
X136267490Y-83022268D01*
X136335311Y-83005473D01*
X136401446Y-83028010D01*
X136440485Y-83073064D01*
X136455043Y-83101636D01*
X136578890Y-83272099D01*
X136727900Y-83421109D01*
X136820717Y-83488543D01*
X136898368Y-83544959D01*
X137001372Y-83597442D01*
X137086112Y-83640620D01*
X137086114Y-83640620D01*
X137086117Y-83640622D01*
X137180534Y-83671300D01*
X137286519Y-83705737D01*
X137494637Y-83738700D01*
X137494642Y-83738700D01*
X137705363Y-83738700D01*
X137913480Y-83705737D01*
X137913483Y-83705736D01*
X138113883Y-83640622D01*
X138301632Y-83544959D01*
X138397344Y-83475420D01*
X138472099Y-83421109D01*
X138472101Y-83421106D01*
X138472105Y-83421104D01*
X138621104Y-83272105D01*
X138621106Y-83272101D01*
X138621109Y-83272099D01*
X138744956Y-83101636D01*
X138744957Y-83101635D01*
X138744959Y-83101632D01*
X138759515Y-83073063D01*
X138807490Y-83022268D01*
X138875311Y-83005473D01*
X138941446Y-83028010D01*
X138980485Y-83073064D01*
X138995043Y-83101636D01*
X139118890Y-83272099D01*
X139267900Y-83421109D01*
X139360717Y-83488543D01*
X139438368Y-83544959D01*
X139541372Y-83597442D01*
X139626112Y-83640620D01*
X139626114Y-83640620D01*
X139626117Y-83640622D01*
X139720534Y-83671300D01*
X139826519Y-83705737D01*
X140034637Y-83738700D01*
X140034642Y-83738700D01*
X140245363Y-83738700D01*
X140453480Y-83705737D01*
X140453483Y-83705736D01*
X140653883Y-83640622D01*
X140841632Y-83544959D01*
X140937344Y-83475420D01*
X141012099Y-83421109D01*
X141012101Y-83421106D01*
X141012105Y-83421104D01*
X141161104Y-83272105D01*
X141161106Y-83272101D01*
X141161109Y-83272099D01*
X141284956Y-83101636D01*
X141284957Y-83101635D01*
X141284959Y-83101632D01*
X141299515Y-83073063D01*
X141347490Y-83022268D01*
X141415311Y-83005473D01*
X141481446Y-83028010D01*
X141520485Y-83073064D01*
X141535043Y-83101636D01*
X141658890Y-83272099D01*
X141807900Y-83421109D01*
X141900717Y-83488543D01*
X141978368Y-83544959D01*
X142081372Y-83597442D01*
X142166112Y-83640620D01*
X142166114Y-83640620D01*
X142166117Y-83640622D01*
X142260534Y-83671300D01*
X142366519Y-83705737D01*
X142574637Y-83738700D01*
X142574642Y-83738700D01*
X142785363Y-83738700D01*
X142993480Y-83705737D01*
X142993483Y-83705736D01*
X143193883Y-83640622D01*
X143381632Y-83544959D01*
X143477344Y-83475420D01*
X143552099Y-83421109D01*
X143552101Y-83421106D01*
X143552105Y-83421104D01*
X143701104Y-83272105D01*
X143701106Y-83272101D01*
X143701109Y-83272099D01*
X143824956Y-83101636D01*
X143824957Y-83101635D01*
X143824959Y-83101632D01*
X143839515Y-83073063D01*
X143887490Y-83022268D01*
X143955311Y-83005473D01*
X144021446Y-83028010D01*
X144060485Y-83073064D01*
X144075043Y-83101636D01*
X144198890Y-83272099D01*
X144347900Y-83421109D01*
X144440717Y-83488543D01*
X144518368Y-83544959D01*
X144621372Y-83597442D01*
X144706112Y-83640620D01*
X144706114Y-83640620D01*
X144706117Y-83640622D01*
X144800534Y-83671300D01*
X144906519Y-83705737D01*
X145114637Y-83738700D01*
X145114642Y-83738700D01*
X145325363Y-83738700D01*
X145533480Y-83705737D01*
X145533483Y-83705736D01*
X145733883Y-83640622D01*
X145921632Y-83544959D01*
X146017344Y-83475420D01*
X146092099Y-83421109D01*
X146092101Y-83421106D01*
X146092105Y-83421104D01*
X146241104Y-83272105D01*
X146241106Y-83272101D01*
X146241109Y-83272099D01*
X146364956Y-83101636D01*
X146364957Y-83101635D01*
X146364959Y-83101632D01*
X146379515Y-83073063D01*
X146427490Y-83022268D01*
X146495311Y-83005473D01*
X146561446Y-83028010D01*
X146600485Y-83073064D01*
X146615043Y-83101636D01*
X146738890Y-83272099D01*
X146887900Y-83421109D01*
X146980717Y-83488543D01*
X147058368Y-83544959D01*
X147161372Y-83597442D01*
X147246112Y-83640620D01*
X147246114Y-83640620D01*
X147246117Y-83640622D01*
X147340534Y-83671300D01*
X147446519Y-83705737D01*
X147654637Y-83738700D01*
X147654642Y-83738700D01*
X147865363Y-83738700D01*
X148073480Y-83705737D01*
X148073483Y-83705736D01*
X148273883Y-83640622D01*
X148461632Y-83544959D01*
X148557344Y-83475420D01*
X148632099Y-83421109D01*
X148632101Y-83421106D01*
X148632105Y-83421104D01*
X148781104Y-83272105D01*
X148781106Y-83272101D01*
X148781109Y-83272099D01*
X148904956Y-83101636D01*
X148904957Y-83101635D01*
X148904959Y-83101632D01*
X148919515Y-83073063D01*
X148967490Y-83022268D01*
X149035311Y-83005473D01*
X149101446Y-83028010D01*
X149140485Y-83073064D01*
X149155043Y-83101636D01*
X149278890Y-83272099D01*
X149427900Y-83421109D01*
X149520717Y-83488543D01*
X149598368Y-83544959D01*
X149701372Y-83597442D01*
X149786112Y-83640620D01*
X149786114Y-83640620D01*
X149786117Y-83640622D01*
X149880534Y-83671300D01*
X149986519Y-83705737D01*
X150194637Y-83738700D01*
X150194642Y-83738700D01*
X150405363Y-83738700D01*
X150613480Y-83705737D01*
X150613483Y-83705736D01*
X150813883Y-83640622D01*
X151001632Y-83544959D01*
X151097344Y-83475420D01*
X151172099Y-83421109D01*
X151172101Y-83421106D01*
X151172105Y-83421104D01*
X151321104Y-83272105D01*
X151321106Y-83272101D01*
X151321109Y-83272099D01*
X151444956Y-83101636D01*
X151444957Y-83101635D01*
X151444959Y-83101632D01*
X151459515Y-83073063D01*
X151507490Y-83022268D01*
X151575311Y-83005473D01*
X151641446Y-83028010D01*
X151680485Y-83073064D01*
X151695043Y-83101636D01*
X151818890Y-83272099D01*
X151967900Y-83421109D01*
X152060717Y-83488543D01*
X152138368Y-83544959D01*
X152241372Y-83597442D01*
X152326112Y-83640620D01*
X152326114Y-83640620D01*
X152326117Y-83640622D01*
X152420534Y-83671300D01*
X152526519Y-83705737D01*
X152734637Y-83738700D01*
X152734642Y-83738700D01*
X152945363Y-83738700D01*
X153153480Y-83705737D01*
X153153483Y-83705736D01*
X153353883Y-83640622D01*
X153541632Y-83544959D01*
X153637344Y-83475420D01*
X153712099Y-83421109D01*
X153712101Y-83421106D01*
X153712105Y-83421104D01*
X153861104Y-83272105D01*
X153861106Y-83272101D01*
X153861109Y-83272099D01*
X153984956Y-83101636D01*
X153984957Y-83101635D01*
X153984959Y-83101632D01*
X153999515Y-83073063D01*
X154047490Y-83022268D01*
X154115311Y-83005473D01*
X154181446Y-83028010D01*
X154220485Y-83073064D01*
X154235043Y-83101636D01*
X154358890Y-83272099D01*
X154507900Y-83421109D01*
X154600717Y-83488543D01*
X154678368Y-83544959D01*
X154781372Y-83597442D01*
X154866112Y-83640620D01*
X154866114Y-83640620D01*
X154866117Y-83640622D01*
X154960534Y-83671300D01*
X155066519Y-83705737D01*
X155274637Y-83738700D01*
X155274642Y-83738700D01*
X155485363Y-83738700D01*
X155693480Y-83705737D01*
X155693483Y-83705736D01*
X155893883Y-83640622D01*
X156081632Y-83544959D01*
X156177344Y-83475420D01*
X156252099Y-83421109D01*
X156252101Y-83421106D01*
X156252105Y-83421104D01*
X156401104Y-83272105D01*
X156401106Y-83272101D01*
X156401109Y-83272099D01*
X156455420Y-83197344D01*
X156524959Y-83101632D01*
X156620622Y-82913883D01*
X156685737Y-82713480D01*
X156712400Y-82545136D01*
X156718700Y-82505363D01*
X156718700Y-82294636D01*
X156685737Y-82086519D01*
X156620620Y-81886112D01*
X156562470Y-81771988D01*
X156524959Y-81698368D01*
X156517001Y-81687415D01*
X156401109Y-81527900D01*
X156252099Y-81378890D01*
X156081635Y-81255043D01*
X156081634Y-81255042D01*
X156081632Y-81255041D01*
X156001336Y-81214128D01*
X155893887Y-81159379D01*
X155693480Y-81094262D01*
X155485363Y-81061300D01*
X155485358Y-81061300D01*
X155274642Y-81061300D01*
X155274637Y-81061300D01*
X155066519Y-81094262D01*
X154866112Y-81159379D01*
X154678364Y-81255043D01*
X154507900Y-81378890D01*
X154358890Y-81527900D01*
X154235041Y-81698366D01*
X154220484Y-81726936D01*
X154172509Y-81777732D01*
X154104688Y-81794526D01*
X154038553Y-81771988D01*
X153999516Y-81726936D01*
X153984958Y-81698366D01*
X153861109Y-81527900D01*
X153712099Y-81378890D01*
X153541635Y-81255043D01*
X153541634Y-81255042D01*
X153541632Y-81255041D01*
X153461336Y-81214128D01*
X153353887Y-81159379D01*
X153153480Y-81094262D01*
X152945363Y-81061300D01*
X152945358Y-81061300D01*
X152734642Y-81061300D01*
X152734637Y-81061300D01*
X152526519Y-81094262D01*
X152326112Y-81159379D01*
X152138364Y-81255043D01*
X151967900Y-81378890D01*
X151818890Y-81527900D01*
X151695041Y-81698366D01*
X151680484Y-81726936D01*
X151632509Y-81777732D01*
X151564688Y-81794526D01*
X151498553Y-81771988D01*
X151459516Y-81726936D01*
X151444958Y-81698366D01*
X151321109Y-81527900D01*
X151172099Y-81378890D01*
X151001635Y-81255043D01*
X151001634Y-81255042D01*
X151001632Y-81255041D01*
X150921336Y-81214128D01*
X150813887Y-81159379D01*
X150613480Y-81094262D01*
X150405363Y-81061300D01*
X150405358Y-81061300D01*
X150194642Y-81061300D01*
X150194637Y-81061300D01*
X149986519Y-81094262D01*
X149786112Y-81159379D01*
X149598364Y-81255043D01*
X149427900Y-81378890D01*
X149278890Y-81527900D01*
X149155041Y-81698366D01*
X149140484Y-81726936D01*
X149092509Y-81777732D01*
X149024688Y-81794526D01*
X148958553Y-81771988D01*
X148919516Y-81726936D01*
X148904958Y-81698366D01*
X148781109Y-81527900D01*
X148632099Y-81378890D01*
X148461635Y-81255043D01*
X148461634Y-81255042D01*
X148461632Y-81255041D01*
X148381336Y-81214128D01*
X148273887Y-81159379D01*
X148073480Y-81094262D01*
X147865363Y-81061300D01*
X147865358Y-81061300D01*
X147654642Y-81061300D01*
X147654637Y-81061300D01*
X147446519Y-81094262D01*
X147246112Y-81159379D01*
X147058364Y-81255043D01*
X146887900Y-81378890D01*
X146738890Y-81527900D01*
X146615041Y-81698366D01*
X146600484Y-81726936D01*
X146552509Y-81777732D01*
X146484688Y-81794526D01*
X146418553Y-81771988D01*
X146379516Y-81726936D01*
X146364958Y-81698366D01*
X146241109Y-81527900D01*
X146092099Y-81378890D01*
X145921635Y-81255043D01*
X145921634Y-81255042D01*
X145921632Y-81255041D01*
X145841336Y-81214128D01*
X145733887Y-81159379D01*
X145533480Y-81094262D01*
X145325363Y-81061300D01*
X145325358Y-81061300D01*
X145114642Y-81061300D01*
X145114637Y-81061300D01*
X144906519Y-81094262D01*
X144706112Y-81159379D01*
X144518364Y-81255043D01*
X144347900Y-81378890D01*
X144198890Y-81527900D01*
X144075041Y-81698366D01*
X144060484Y-81726936D01*
X144012509Y-81777732D01*
X143944688Y-81794526D01*
X143878553Y-81771988D01*
X143839516Y-81726936D01*
X143824958Y-81698366D01*
X143701109Y-81527900D01*
X143552099Y-81378890D01*
X143381635Y-81255043D01*
X143381634Y-81255042D01*
X143381632Y-81255041D01*
X143301336Y-81214128D01*
X143193887Y-81159379D01*
X142993480Y-81094262D01*
X142785363Y-81061300D01*
X142785358Y-81061300D01*
X142574642Y-81061300D01*
X142574637Y-81061300D01*
X142366519Y-81094262D01*
X142166112Y-81159379D01*
X141978364Y-81255043D01*
X141807900Y-81378890D01*
X141658890Y-81527900D01*
X141535041Y-81698366D01*
X141520484Y-81726936D01*
X141472509Y-81777732D01*
X141404688Y-81794526D01*
X141338553Y-81771988D01*
X141299516Y-81726936D01*
X141284958Y-81698366D01*
X141161109Y-81527900D01*
X141012099Y-81378890D01*
X140841635Y-81255043D01*
X140841634Y-81255042D01*
X140841632Y-81255041D01*
X140761336Y-81214128D01*
X140653887Y-81159379D01*
X140453480Y-81094262D01*
X140245363Y-81061300D01*
X140245358Y-81061300D01*
X140034642Y-81061300D01*
X140034637Y-81061300D01*
X139826519Y-81094262D01*
X139626112Y-81159379D01*
X139438364Y-81255043D01*
X139267900Y-81378890D01*
X139118890Y-81527900D01*
X138995041Y-81698366D01*
X138980484Y-81726936D01*
X138932509Y-81777732D01*
X138864688Y-81794526D01*
X138798553Y-81771988D01*
X138759516Y-81726936D01*
X138744958Y-81698366D01*
X138621109Y-81527900D01*
X138472099Y-81378890D01*
X138301635Y-81255043D01*
X138301634Y-81255042D01*
X138301632Y-81255041D01*
X138221336Y-81214128D01*
X138113887Y-81159379D01*
X137913480Y-81094262D01*
X137705363Y-81061300D01*
X137705358Y-81061300D01*
X137494642Y-81061300D01*
X137494637Y-81061300D01*
X137286519Y-81094262D01*
X137086112Y-81159379D01*
X136898364Y-81255043D01*
X136727900Y-81378890D01*
X136578890Y-81527900D01*
X136455041Y-81698366D01*
X136440484Y-81726936D01*
X136392509Y-81777732D01*
X136324688Y-81794526D01*
X136258553Y-81771988D01*
X136219516Y-81726936D01*
X136204958Y-81698366D01*
X136081109Y-81527900D01*
X135932099Y-81378890D01*
X135761635Y-81255043D01*
X135761634Y-81255042D01*
X135761632Y-81255041D01*
X135681336Y-81214128D01*
X135573887Y-81159379D01*
X135373480Y-81094262D01*
X135165363Y-81061300D01*
X135165358Y-81061300D01*
X134954642Y-81061300D01*
X134954637Y-81061300D01*
X134746519Y-81094262D01*
X134546112Y-81159379D01*
X134358364Y-81255043D01*
X134187900Y-81378890D01*
X134038890Y-81527900D01*
X133915041Y-81698366D01*
X133900484Y-81726936D01*
X133852509Y-81777732D01*
X133784688Y-81794526D01*
X133718553Y-81771988D01*
X133679516Y-81726936D01*
X133664958Y-81698366D01*
X133541109Y-81527900D01*
X133392099Y-81378890D01*
X133221635Y-81255043D01*
X133221634Y-81255042D01*
X133221632Y-81255041D01*
X133141336Y-81214128D01*
X133033887Y-81159379D01*
X132833480Y-81094262D01*
X132625363Y-81061300D01*
X132625358Y-81061300D01*
X132414642Y-81061300D01*
X132414637Y-81061300D01*
X132206519Y-81094262D01*
X132006112Y-81159379D01*
X131818364Y-81255043D01*
X131647900Y-81378890D01*
X131498890Y-81527900D01*
X131375041Y-81698366D01*
X131360484Y-81726936D01*
X131312509Y-81777732D01*
X131244688Y-81794526D01*
X131178553Y-81771988D01*
X131139516Y-81726936D01*
X131124958Y-81698366D01*
X131001109Y-81527900D01*
X130852099Y-81378890D01*
X130681635Y-81255043D01*
X130681634Y-81255042D01*
X130681632Y-81255041D01*
X130601336Y-81214128D01*
X130493887Y-81159379D01*
X130293480Y-81094262D01*
X130085363Y-81061300D01*
X130085358Y-81061300D01*
X129874642Y-81061300D01*
X129874637Y-81061300D01*
X129666519Y-81094262D01*
X129466112Y-81159379D01*
X129363195Y-81211819D01*
X129360489Y-81212327D01*
X129358411Y-81214128D01*
X129326359Y-81218736D01*
X129294525Y-81224715D01*
X129291976Y-81223680D01*
X129289253Y-81224072D01*
X129259787Y-81210615D01*
X129229785Y-81198438D01*
X129228200Y-81196190D01*
X129225697Y-81195047D01*
X129208185Y-81167798D01*
X129189528Y-81141332D01*
X129188955Y-81137875D01*
X129187923Y-81136269D01*
X129182900Y-81101334D01*
X129182900Y-80991511D01*
X129202585Y-80924472D01*
X129255389Y-80878717D01*
X129277666Y-80871522D01*
X129277662Y-80871507D01*
X129278540Y-80871240D01*
X129282713Y-80869893D01*
X129282761Y-80869883D01*
X129283497Y-80869737D01*
X129429179Y-80809394D01*
X129560289Y-80721789D01*
X129671789Y-80610289D01*
X129759394Y-80479179D01*
X129819737Y-80333497D01*
X129850500Y-80178842D01*
X129850500Y-80021158D01*
X129850500Y-80021155D01*
X129850499Y-80021153D01*
X129819738Y-79866510D01*
X129819737Y-79866503D01*
X129819735Y-79866498D01*
X129759397Y-79720827D01*
X129759390Y-79720814D01*
X129671789Y-79589711D01*
X129671786Y-79589707D01*
X129560292Y-79478213D01*
X129560288Y-79478210D01*
X129429185Y-79390609D01*
X129429172Y-79390602D01*
X129283501Y-79330264D01*
X129283489Y-79330261D01*
X129128845Y-79299500D01*
X129128842Y-79299500D01*
X128971158Y-79299500D01*
X128971155Y-79299500D01*
X128816510Y-79330261D01*
X128816498Y-79330264D01*
X128670827Y-79390602D01*
X128670814Y-79390609D01*
X128539711Y-79478210D01*
X128539707Y-79478213D01*
X128428213Y-79589707D01*
X128428210Y-79589711D01*
X128340609Y-79720814D01*
X128340602Y-79720827D01*
X128280264Y-79866498D01*
X128280261Y-79866510D01*
X128249500Y-80021153D01*
X128249500Y-80064702D01*
X128229815Y-80131741D01*
X128213181Y-80152383D01*
X128101881Y-80263682D01*
X128101879Y-80263684D01*
X128073548Y-80312755D01*
X128061574Y-80333497D01*
X128061572Y-80333501D01*
X128022823Y-80400614D01*
X128022823Y-80400615D01*
X127981899Y-80553343D01*
X127981899Y-80553345D01*
X127981899Y-80721446D01*
X127981900Y-80721459D01*
X127981900Y-80997809D01*
X127962215Y-81064848D01*
X127909411Y-81110603D01*
X127840253Y-81120547D01*
X127819582Y-81115740D01*
X127753483Y-81094263D01*
X127545363Y-81061300D01*
X127545358Y-81061300D01*
X127334642Y-81061300D01*
X127334637Y-81061300D01*
X127126519Y-81094262D01*
X126926112Y-81159379D01*
X126738364Y-81255043D01*
X126567900Y-81378890D01*
X126418890Y-81527900D01*
X126295041Y-81698366D01*
X126280484Y-81726936D01*
X126232509Y-81777732D01*
X126164688Y-81794526D01*
X126098553Y-81771988D01*
X126059516Y-81726936D01*
X126044958Y-81698366D01*
X125921109Y-81527900D01*
X125772099Y-81378890D01*
X125601635Y-81255043D01*
X125601634Y-81255042D01*
X125601632Y-81255041D01*
X125532937Y-81220039D01*
X125482141Y-81172064D01*
X125465346Y-81104243D01*
X125487884Y-81038108D01*
X125501545Y-81021879D01*
X127699108Y-78824319D01*
X127760431Y-78790834D01*
X127786789Y-78788000D01*
X177457492Y-78788000D01*
X177458854Y-78788400D01*
X177460227Y-78788030D01*
X177492298Y-78798220D01*
X177524531Y-78807685D01*
X177525898Y-78808896D01*
X177526816Y-78809188D01*
X177530170Y-78812681D01*
X177552973Y-78832884D01*
X177558491Y-78839543D01*
X177607288Y-78918656D01*
X177705052Y-79016420D01*
X177708751Y-79020884D01*
X177720360Y-79047865D01*
X177734436Y-79073642D01*
X177734010Y-79079588D01*
X177736367Y-79085064D01*
X177731547Y-79114035D01*
X177729452Y-79143334D01*
X177725702Y-79149167D01*
X177724901Y-79153987D01*
X177717000Y-79162708D01*
X177700951Y-79187681D01*
X177607289Y-79281342D01*
X177515187Y-79430663D01*
X177515186Y-79430666D01*
X177460001Y-79597203D01*
X177460001Y-79597204D01*
X177460000Y-79597204D01*
X177449500Y-79699983D01*
X177449500Y-80325001D01*
X177449501Y-80325019D01*
X177460000Y-80427796D01*
X177460001Y-80427799D01*
X177515185Y-80594331D01*
X177515186Y-80594334D01*
X177607288Y-80743656D01*
X177731344Y-80867712D01*
X177880666Y-80959814D01*
X177964505Y-80987595D01*
X178021948Y-81027366D01*
X178048772Y-81091882D01*
X178049500Y-81105300D01*
X178049500Y-85699902D01*
X178029815Y-85766941D01*
X178013181Y-85787583D01*
X172535339Y-91265425D01*
X172474016Y-91298910D01*
X172471850Y-91299361D01*
X172316508Y-91330261D01*
X172316498Y-91330264D01*
X172170827Y-91390602D01*
X172170814Y-91390609D01*
X172039711Y-91478210D01*
X172039707Y-91478213D01*
X171928213Y-91589707D01*
X171928210Y-91589711D01*
X171840609Y-91720814D01*
X171840602Y-91720827D01*
X171780264Y-91866498D01*
X171780261Y-91866510D01*
X171749500Y-92021153D01*
X171749500Y-92178846D01*
X171780261Y-92333489D01*
X171780264Y-92333501D01*
X171840602Y-92479172D01*
X171840609Y-92479185D01*
X171928210Y-92610288D01*
X171928213Y-92610292D01*
X172039707Y-92721786D01*
X172039711Y-92721789D01*
X172170814Y-92809390D01*
X172170827Y-92809397D01*
X172240621Y-92838306D01*
X172316503Y-92869737D01*
X172471153Y-92900499D01*
X172471156Y-92900500D01*
X172471158Y-92900500D01*
X172628844Y-92900500D01*
X172628845Y-92900499D01*
X172783497Y-92869737D01*
X172929179Y-92809394D01*
X173060289Y-92721789D01*
X173171789Y-92610289D01*
X173259394Y-92479179D01*
X173319737Y-92333497D01*
X173348836Y-92187209D01*
X173350638Y-92178150D01*
X173383023Y-92116239D01*
X173384518Y-92114716D01*
X177821703Y-87677533D01*
X194682500Y-87677533D01*
X194682500Y-87972466D01*
X194682501Y-87972483D01*
X194720996Y-88264884D01*
X194720999Y-88264897D01*
X194797335Y-88549790D01*
X194797338Y-88549800D01*
X194910204Y-88822281D01*
X194910209Y-88822292D01*
X195057674Y-89077707D01*
X195057680Y-89077715D01*
X195174277Y-89229667D01*
X195960412Y-88443532D01*
X196055329Y-88574175D01*
X196183325Y-88702171D01*
X196313966Y-88797086D01*
X195527831Y-89583221D01*
X195679784Y-89699819D01*
X195679792Y-89699825D01*
X195935207Y-89847290D01*
X195935218Y-89847295D01*
X196207699Y-89960161D01*
X196207709Y-89960164D01*
X196492602Y-90036500D01*
X196492615Y-90036503D01*
X196785016Y-90074998D01*
X196785034Y-90075000D01*
X197079966Y-90075000D01*
X197079983Y-90074998D01*
X197372384Y-90036503D01*
X197372397Y-90036500D01*
X197657290Y-89960164D01*
X197657300Y-89960161D01*
X197929781Y-89847295D01*
X197929792Y-89847290D01*
X198185207Y-89699825D01*
X198185225Y-89699813D01*
X198337167Y-89583222D01*
X198337167Y-89583220D01*
X197551033Y-88797086D01*
X197681675Y-88702171D01*
X197809671Y-88574175D01*
X197904586Y-88443533D01*
X198690720Y-89229667D01*
X198690722Y-89229667D01*
X198807313Y-89077725D01*
X198807325Y-89077707D01*
X198954790Y-88822292D01*
X198954795Y-88822281D01*
X199067661Y-88549800D01*
X199067664Y-88549790D01*
X199144000Y-88264897D01*
X199144003Y-88264884D01*
X199182498Y-87972483D01*
X199182500Y-87972466D01*
X199182500Y-87677533D01*
X199182498Y-87677516D01*
X199144003Y-87385115D01*
X199144000Y-87385102D01*
X199067664Y-87100209D01*
X199067661Y-87100199D01*
X198954795Y-86827718D01*
X198954790Y-86827707D01*
X198807325Y-86572292D01*
X198807319Y-86572284D01*
X198690721Y-86420331D01*
X197904586Y-87206466D01*
X197809671Y-87075825D01*
X197681675Y-86947829D01*
X197551032Y-86852912D01*
X198337167Y-86066777D01*
X198185215Y-85950180D01*
X198185207Y-85950174D01*
X197929792Y-85802709D01*
X197929781Y-85802704D01*
X197657300Y-85689838D01*
X197657290Y-85689835D01*
X197372397Y-85613499D01*
X197372384Y-85613496D01*
X197079983Y-85575001D01*
X197079966Y-85575000D01*
X196785034Y-85575000D01*
X196785016Y-85575001D01*
X196492615Y-85613496D01*
X196492602Y-85613499D01*
X196207709Y-85689835D01*
X196207699Y-85689838D01*
X195935218Y-85802704D01*
X195935207Y-85802709D01*
X195679792Y-85950174D01*
X195679776Y-85950185D01*
X195527831Y-86066775D01*
X195527831Y-86066777D01*
X196313966Y-86852912D01*
X196183325Y-86947829D01*
X196055329Y-87075825D01*
X195960412Y-87206466D01*
X195174277Y-86420331D01*
X195174275Y-86420331D01*
X195057685Y-86572276D01*
X195057674Y-86572292D01*
X194910209Y-86827707D01*
X194910204Y-86827718D01*
X194797338Y-87100199D01*
X194797335Y-87100209D01*
X194720999Y-87385102D01*
X194720996Y-87385115D01*
X194682501Y-87677516D01*
X194682500Y-87677533D01*
X177821703Y-87677533D01*
X179130520Y-86368716D01*
X179209577Y-86231784D01*
X179250501Y-86079057D01*
X179250501Y-85920942D01*
X179250500Y-85920938D01*
X179250500Y-81105300D01*
X179270185Y-81038261D01*
X179322989Y-80992506D01*
X179335482Y-80987599D01*
X179419334Y-80959814D01*
X179568656Y-80867712D01*
X179692712Y-80743656D01*
X179784814Y-80594334D01*
X179826808Y-80467604D01*
X179866580Y-80410161D01*
X179931095Y-80383338D01*
X179999871Y-80395653D01*
X180032194Y-80418929D01*
X182563181Y-82949916D01*
X182596666Y-83011239D01*
X182599500Y-83037597D01*
X182599500Y-83947870D01*
X182599501Y-83947876D01*
X182605908Y-84007483D01*
X182656202Y-84142328D01*
X182656206Y-84142335D01*
X182742452Y-84257544D01*
X182742455Y-84257547D01*
X182857664Y-84343793D01*
X182857671Y-84343797D01*
X182992517Y-84394091D01*
X182992516Y-84394091D01*
X182999444Y-84394835D01*
X183052127Y-84400500D01*
X184547872Y-84400499D01*
X184607483Y-84394091D01*
X184742331Y-84343796D01*
X184857546Y-84257546D01*
X184943796Y-84142331D01*
X184994091Y-84007483D01*
X185000500Y-83947873D01*
X185000500Y-83947844D01*
X187100000Y-83947844D01*
X187106401Y-84007372D01*
X187106403Y-84007379D01*
X187156645Y-84142086D01*
X187156649Y-84142093D01*
X187242809Y-84257187D01*
X187242812Y-84257190D01*
X187357906Y-84343350D01*
X187357913Y-84343354D01*
X187492620Y-84393596D01*
X187492627Y-84393598D01*
X187552155Y-84399999D01*
X187552172Y-84400000D01*
X188050000Y-84400000D01*
X188550000Y-84400000D01*
X189047828Y-84400000D01*
X189047844Y-84399999D01*
X189107372Y-84393598D01*
X189107379Y-84393596D01*
X189242086Y-84343354D01*
X189242093Y-84343350D01*
X189357187Y-84257190D01*
X189357190Y-84257187D01*
X189443350Y-84142093D01*
X189443354Y-84142086D01*
X189493596Y-84007379D01*
X189493598Y-84007372D01*
X189499999Y-83947844D01*
X189500000Y-83947827D01*
X189500000Y-83350000D01*
X188550000Y-83350000D01*
X188550000Y-84400000D01*
X188050000Y-84400000D01*
X188050000Y-83350000D01*
X187100000Y-83350000D01*
X187100000Y-83947844D01*
X185000500Y-83947844D01*
X185000499Y-83073064D01*
X185000499Y-82252155D01*
X187100000Y-82252155D01*
X187100000Y-82850000D01*
X188050000Y-82850000D01*
X188550000Y-82850000D01*
X189500000Y-82850000D01*
X189500000Y-82252172D01*
X189499999Y-82252155D01*
X189493598Y-82192627D01*
X189493596Y-82192620D01*
X189443354Y-82057913D01*
X189443350Y-82057906D01*
X189357190Y-81942812D01*
X189357187Y-81942809D01*
X189242093Y-81856649D01*
X189242086Y-81856645D01*
X189107379Y-81806403D01*
X189107372Y-81806401D01*
X189047844Y-81800000D01*
X188550000Y-81800000D01*
X188550000Y-82850000D01*
X188050000Y-82850000D01*
X188050000Y-81800000D01*
X187552155Y-81800000D01*
X187492627Y-81806401D01*
X187492620Y-81806403D01*
X187357913Y-81856645D01*
X187357906Y-81856649D01*
X187242812Y-81942809D01*
X187242809Y-81942812D01*
X187156649Y-82057906D01*
X187156645Y-82057913D01*
X187106403Y-82192620D01*
X187106401Y-82192627D01*
X187100000Y-82252155D01*
X185000499Y-82252155D01*
X185000499Y-82252129D01*
X185000498Y-82252123D01*
X184994091Y-82192516D01*
X184943797Y-82057671D01*
X184943793Y-82057664D01*
X184857547Y-81942455D01*
X184857544Y-81942452D01*
X184742335Y-81856206D01*
X184742328Y-81856202D01*
X184607482Y-81805908D01*
X184607483Y-81805908D01*
X184547883Y-81799501D01*
X184547881Y-81799500D01*
X184547873Y-81799500D01*
X184547865Y-81799500D01*
X183162597Y-81799500D01*
X183095558Y-81779815D01*
X183074916Y-81763181D01*
X179886818Y-78575083D01*
X179853333Y-78513760D01*
X179850499Y-78487411D01*
X179850499Y-77887595D01*
X179870184Y-77820557D01*
X179886813Y-77799920D01*
X181949916Y-75736819D01*
X182011239Y-75703334D01*
X182037597Y-75700500D01*
X182475501Y-75700500D01*
X182542540Y-75720185D01*
X182588295Y-75772989D01*
X182599501Y-75824500D01*
X182599501Y-75947876D01*
X182605908Y-76007483D01*
X182656202Y-76142328D01*
X182656206Y-76142335D01*
X182742452Y-76257544D01*
X182742455Y-76257547D01*
X182857664Y-76343793D01*
X182857671Y-76343797D01*
X182992517Y-76394091D01*
X182992516Y-76394091D01*
X182999444Y-76394835D01*
X183052127Y-76400500D01*
X184547872Y-76400499D01*
X184607483Y-76394091D01*
X184742331Y-76343796D01*
X184857546Y-76257546D01*
X184943796Y-76142331D01*
X184994091Y-76007483D01*
X185000500Y-75947873D01*
X185000500Y-75947844D01*
X187100000Y-75947844D01*
X187106401Y-76007372D01*
X187106403Y-76007379D01*
X187156645Y-76142086D01*
X187156649Y-76142093D01*
X187242809Y-76257187D01*
X187242812Y-76257190D01*
X187357906Y-76343350D01*
X187357913Y-76343354D01*
X187492620Y-76393596D01*
X187492627Y-76393598D01*
X187552155Y-76399999D01*
X187552172Y-76400000D01*
X188050000Y-76400000D01*
X188550000Y-76400000D01*
X189047828Y-76400000D01*
X189047844Y-76399999D01*
X189107372Y-76393598D01*
X189107379Y-76393596D01*
X189242086Y-76343354D01*
X189242093Y-76343350D01*
X189357187Y-76257190D01*
X189357190Y-76257187D01*
X189443350Y-76142093D01*
X189443354Y-76142086D01*
X189493596Y-76007379D01*
X189493598Y-76007372D01*
X189499999Y-75947844D01*
X189500000Y-75947827D01*
X189500000Y-75350000D01*
X188550000Y-75350000D01*
X188550000Y-76400000D01*
X188050000Y-76400000D01*
X188050000Y-75350000D01*
X187100000Y-75350000D01*
X187100000Y-75947844D01*
X185000500Y-75947844D01*
X185000499Y-74850000D01*
X185000499Y-74252155D01*
X187100000Y-74252155D01*
X187100000Y-74850000D01*
X188050000Y-74850000D01*
X188550000Y-74850000D01*
X189500000Y-74850000D01*
X189500000Y-74252172D01*
X189499999Y-74252155D01*
X189493598Y-74192627D01*
X189493596Y-74192620D01*
X189443354Y-74057913D01*
X189443350Y-74057906D01*
X189357190Y-73942812D01*
X189357187Y-73942809D01*
X189242093Y-73856649D01*
X189242086Y-73856645D01*
X189107379Y-73806403D01*
X189107372Y-73806401D01*
X189047844Y-73800000D01*
X188550000Y-73800000D01*
X188550000Y-74850000D01*
X188050000Y-74850000D01*
X188050000Y-73800000D01*
X187552155Y-73800000D01*
X187492627Y-73806401D01*
X187492620Y-73806403D01*
X187357913Y-73856645D01*
X187357906Y-73856649D01*
X187242812Y-73942809D01*
X187242809Y-73942812D01*
X187156649Y-74057906D01*
X187156645Y-74057913D01*
X187106403Y-74192620D01*
X187106401Y-74192627D01*
X187100000Y-74252155D01*
X185000499Y-74252155D01*
X185000499Y-74252129D01*
X185000498Y-74252123D01*
X185000497Y-74252116D01*
X184994091Y-74192517D01*
X184943884Y-74057906D01*
X184943797Y-74057671D01*
X184943793Y-74057664D01*
X184857547Y-73942455D01*
X184857544Y-73942452D01*
X184742335Y-73856206D01*
X184742328Y-73856202D01*
X184607482Y-73805908D01*
X184607483Y-73805908D01*
X184547883Y-73799501D01*
X184547881Y-73799500D01*
X184547873Y-73799500D01*
X184547864Y-73799500D01*
X183052129Y-73799500D01*
X183052123Y-73799501D01*
X182992516Y-73805908D01*
X182857671Y-73856202D01*
X182857664Y-73856206D01*
X182742455Y-73942452D01*
X182742452Y-73942455D01*
X182656206Y-74057664D01*
X182656202Y-74057671D01*
X182605908Y-74192517D01*
X182599501Y-74252116D01*
X182599501Y-74252123D01*
X182599500Y-74252135D01*
X182599500Y-74375500D01*
X182579815Y-74442539D01*
X182527011Y-74488294D01*
X182475500Y-74499500D01*
X181658440Y-74499500D01*
X181617519Y-74510464D01*
X181617519Y-74510465D01*
X181580251Y-74520451D01*
X181505714Y-74540423D01*
X181505709Y-74540426D01*
X181368790Y-74619475D01*
X181368782Y-74619481D01*
X181256978Y-74731286D01*
X178850082Y-77138181D01*
X178788759Y-77171666D01*
X178762401Y-77174500D01*
X178149998Y-77174500D01*
X178149980Y-77174501D01*
X178047203Y-77185000D01*
X178047200Y-77185001D01*
X177880668Y-77240185D01*
X177880663Y-77240187D01*
X177731342Y-77332289D01*
X177607289Y-77456342D01*
X177563031Y-77528097D01*
X177511083Y-77574821D01*
X177457492Y-77587000D01*
X127573361Y-77587000D01*
X127573345Y-77586999D01*
X127565749Y-77586999D01*
X127407634Y-77586999D01*
X127331270Y-77607461D01*
X127254905Y-77627923D01*
X127254900Y-77627926D01*
X127117981Y-77706975D01*
X127117973Y-77706981D01*
X122569481Y-82255473D01*
X122569480Y-82255475D01*
X122521721Y-82338196D01*
X122521721Y-82338197D01*
X122490423Y-82392405D01*
X122490423Y-82392406D01*
X122449499Y-82545134D01*
X122449499Y-82545136D01*
X122449499Y-82713237D01*
X122449500Y-82713250D01*
X122449500Y-84020234D01*
X122429815Y-84087273D01*
X122428602Y-84089125D01*
X122340609Y-84220814D01*
X122340602Y-84220827D01*
X122280264Y-84366498D01*
X122280261Y-84366510D01*
X122249500Y-84521153D01*
X122249500Y-84678846D01*
X122280261Y-84833489D01*
X122280264Y-84833501D01*
X122340602Y-84979172D01*
X122340609Y-84979185D01*
X122428210Y-85110288D01*
X122428213Y-85110292D01*
X122539707Y-85221786D01*
X122539711Y-85221789D01*
X122670814Y-85309390D01*
X122670827Y-85309397D01*
X122816498Y-85369735D01*
X122816503Y-85369737D01*
X122971153Y-85400499D01*
X122971156Y-85400500D01*
X122971158Y-85400500D01*
X123128844Y-85400500D01*
X123128845Y-85400499D01*
X123283497Y-85369737D01*
X123429179Y-85309394D01*
X123560289Y-85221789D01*
X123671789Y-85110289D01*
X123759394Y-84979179D01*
X123819737Y-84833497D01*
X123850500Y-84678842D01*
X123850500Y-84521158D01*
X123850500Y-84521155D01*
X123850499Y-84521153D01*
X123826400Y-84399999D01*
X123819737Y-84366503D01*
X123810330Y-84343793D01*
X123759397Y-84220827D01*
X123759390Y-84220814D01*
X123671398Y-84089125D01*
X123650520Y-84022447D01*
X123650500Y-84020234D01*
X123650500Y-83339378D01*
X123670185Y-83272339D01*
X123722989Y-83226584D01*
X123792147Y-83216640D01*
X123855703Y-83245665D01*
X123874820Y-83266495D01*
X123878894Y-83272103D01*
X124027900Y-83421109D01*
X124120717Y-83488543D01*
X124198368Y-83544959D01*
X124301372Y-83597442D01*
X124386112Y-83640620D01*
X124386114Y-83640620D01*
X124386117Y-83640622D01*
X124480534Y-83671300D01*
X124586519Y-83705737D01*
X124794637Y-83738700D01*
X124794642Y-83738700D01*
X125005363Y-83738700D01*
X125120981Y-83720387D01*
X125213480Y-83705737D01*
X125249158Y-83694143D01*
X125318998Y-83692147D01*
X125375157Y-83724392D01*
X140731284Y-99080520D01*
X140731286Y-99080521D01*
X140731290Y-99080524D01*
X140856320Y-99152709D01*
X140868216Y-99159577D01*
X141020943Y-99200501D01*
X141020945Y-99200501D01*
X141186654Y-99200501D01*
X141186670Y-99200500D01*
X141470234Y-99200500D01*
X141537273Y-99220185D01*
X141539125Y-99221398D01*
X141670814Y-99309390D01*
X141670827Y-99309397D01*
X141763718Y-99347873D01*
X141816503Y-99369737D01*
X141868572Y-99380094D01*
X141953891Y-99397066D01*
X142015802Y-99429451D01*
X142050377Y-99490167D01*
X142053700Y-99518683D01*
X142053700Y-100032702D01*
X142034015Y-100099741D01*
X142017381Y-100120383D01*
X135662158Y-106475605D01*
X135600835Y-106509090D01*
X135536160Y-106505855D01*
X135500483Y-106494263D01*
X135292363Y-106461300D01*
X135292358Y-106461300D01*
X135081642Y-106461300D01*
X135081637Y-106461300D01*
X134873519Y-106494262D01*
X134673112Y-106559379D01*
X134485364Y-106655043D01*
X134314900Y-106778890D01*
X134165890Y-106927900D01*
X134042041Y-107098366D01*
X134027484Y-107126936D01*
X133979509Y-107177732D01*
X133911688Y-107194526D01*
X133845553Y-107171988D01*
X133806516Y-107126936D01*
X133791958Y-107098366D01*
X133668109Y-106927900D01*
X133519099Y-106778890D01*
X133348635Y-106655043D01*
X133348634Y-106655042D01*
X133348632Y-106655041D01*
X133288692Y-106624500D01*
X133160887Y-106559379D01*
X132960480Y-106494262D01*
X132752363Y-106461300D01*
X132752358Y-106461300D01*
X132541642Y-106461300D01*
X132541637Y-106461300D01*
X132333519Y-106494262D01*
X132133112Y-106559379D01*
X131945364Y-106655043D01*
X131774900Y-106778890D01*
X131625890Y-106927900D01*
X131502041Y-107098366D01*
X131487484Y-107126936D01*
X131439509Y-107177732D01*
X131371688Y-107194526D01*
X131305553Y-107171988D01*
X131266516Y-107126936D01*
X131251958Y-107098366D01*
X131128109Y-106927900D01*
X130979099Y-106778890D01*
X130808635Y-106655043D01*
X130808634Y-106655042D01*
X130808632Y-106655041D01*
X130748692Y-106624500D01*
X130620887Y-106559379D01*
X130420480Y-106494262D01*
X130212363Y-106461300D01*
X130212358Y-106461300D01*
X130001642Y-106461300D01*
X130001637Y-106461300D01*
X129793519Y-106494262D01*
X129593112Y-106559379D01*
X129405364Y-106655043D01*
X129234900Y-106778890D01*
X129085890Y-106927900D01*
X128962041Y-107098366D01*
X128947484Y-107126936D01*
X128899509Y-107177732D01*
X128831688Y-107194526D01*
X128765553Y-107171988D01*
X128726516Y-107126936D01*
X128711958Y-107098366D01*
X128588109Y-106927900D01*
X128439099Y-106778890D01*
X128268635Y-106655043D01*
X128268634Y-106655042D01*
X128268632Y-106655041D01*
X128208692Y-106624500D01*
X128080887Y-106559379D01*
X127880480Y-106494262D01*
X127672363Y-106461300D01*
X127672358Y-106461300D01*
X127461642Y-106461300D01*
X127461637Y-106461300D01*
X127253519Y-106494262D01*
X127053112Y-106559379D01*
X126865364Y-106655043D01*
X126694900Y-106778890D01*
X126545890Y-106927900D01*
X126422041Y-107098366D01*
X126407484Y-107126936D01*
X126359509Y-107177732D01*
X126291688Y-107194526D01*
X126225553Y-107171988D01*
X126186516Y-107126936D01*
X126171958Y-107098366D01*
X126048109Y-106927900D01*
X125899099Y-106778890D01*
X125728635Y-106655043D01*
X125728634Y-106655042D01*
X125728632Y-106655041D01*
X125668692Y-106624500D01*
X125540887Y-106559379D01*
X125340480Y-106494262D01*
X125132363Y-106461300D01*
X125132358Y-106461300D01*
X124921642Y-106461300D01*
X124921637Y-106461300D01*
X124713519Y-106494262D01*
X124513112Y-106559379D01*
X124325364Y-106655043D01*
X124154900Y-106778890D01*
X124005890Y-106927900D01*
X123882041Y-107098366D01*
X123850485Y-107160298D01*
X123802510Y-107211093D01*
X123734689Y-107227888D01*
X123668555Y-107205350D01*
X123652320Y-107191683D01*
X122961137Y-106500500D01*
X122186819Y-105726181D01*
X122153334Y-105664858D01*
X122150500Y-105638500D01*
X122150500Y-105179765D01*
X122170185Y-105112726D01*
X122171398Y-105110874D01*
X122259390Y-104979185D01*
X122259390Y-104979184D01*
X122259394Y-104979179D01*
X122319737Y-104833497D01*
X122350500Y-104678842D01*
X122350500Y-104521158D01*
X122350500Y-104521155D01*
X122350499Y-104521153D01*
X122319738Y-104366510D01*
X122319737Y-104366503D01*
X122319735Y-104366498D01*
X122259397Y-104220827D01*
X122259390Y-104220814D01*
X122171789Y-104089711D01*
X122171786Y-104089707D01*
X122060292Y-103978213D01*
X122060288Y-103978210D01*
X121929185Y-103890609D01*
X121929172Y-103890602D01*
X121783501Y-103830264D01*
X121783489Y-103830261D01*
X121628845Y-103799500D01*
X121628842Y-103799500D01*
X121471158Y-103799500D01*
X121471155Y-103799500D01*
X121316510Y-103830261D01*
X121316498Y-103830264D01*
X121170827Y-103890602D01*
X121170814Y-103890609D01*
X121039711Y-103978210D01*
X121039707Y-103978213D01*
X120928213Y-104089707D01*
X120928210Y-104089711D01*
X120840609Y-104220814D01*
X120840602Y-104220827D01*
X120780264Y-104366498D01*
X120780261Y-104366510D01*
X120749500Y-104521153D01*
X117450000Y-104521153D01*
X117450000Y-80500000D01*
X111199500Y-80500000D01*
X111132461Y-80480315D01*
X111086706Y-80427511D01*
X111075500Y-80376000D01*
X111075500Y-69249500D01*
X111095185Y-69182461D01*
X111147989Y-69136706D01*
X111199500Y-69125500D01*
X199800500Y-69125500D01*
X199867539Y-69145185D01*
G37*
%TD.AperFunction*%
%TD*%
M02*
