%TF.GenerationSoftware,KiCad,Pcbnew,9.0.4*%
%TF.CreationDate,2025-11-02T13:41:35-05:00*%
%TF.ProjectId,C3I_TETRIS,4333495f-5445-4545-9249-532e6b696361,rev?*%
%TF.SameCoordinates,Original*%
%TF.FileFunction,Copper,L1,Top*%
%TF.FilePolarity,Positive*%
%FSLAX46Y46*%
G04 Gerber Fmt 4.6, Leading zero omitted, Abs format (unit mm)*
G04 Created by KiCad (PCBNEW 9.0.4) date 2025-11-02 13:41:35*
%MOMM*%
%LPD*%
G01*
G04 APERTURE LIST*
G04 Aperture macros list*
%AMRoundRect*
0 Rectangle with rounded corners*
0 $1 Rounding radius*
0 $2 $3 $4 $5 $6 $7 $8 $9 X,Y pos of 4 corners*
0 Add a 4 corners polygon primitive as box body*
4,1,4,$2,$3,$4,$5,$6,$7,$8,$9,$2,$3,0*
0 Add four circle primitives for the rounded corners*
1,1,$1+$1,$2,$3*
1,1,$1+$1,$4,$5*
1,1,$1+$1,$6,$7*
1,1,$1+$1,$8,$9*
0 Add four rect primitives between the rounded corners*
20,1,$1+$1,$2,$3,$4,$5,0*
20,1,$1+$1,$4,$5,$6,$7,0*
20,1,$1+$1,$6,$7,$8,$9,0*
20,1,$1+$1,$8,$9,$2,$3,0*%
G04 Aperture macros list end*
%TA.AperFunction,SMDPad,CuDef*%
%ADD10RoundRect,0.150000X0.512500X0.150000X-0.512500X0.150000X-0.512500X-0.150000X0.512500X-0.150000X0*%
%TD*%
%TA.AperFunction,ComponentPad*%
%ADD11C,1.676400*%
%TD*%
%TA.AperFunction,SMDPad,CuDef*%
%ADD12RoundRect,0.250000X-0.475000X0.250000X-0.475000X-0.250000X0.475000X-0.250000X0.475000X0.250000X0*%
%TD*%
%TA.AperFunction,SMDPad,CuDef*%
%ADD13R,1.750000X0.450000*%
%TD*%
%TA.AperFunction,SMDPad,CuDef*%
%ADD14RoundRect,0.250000X0.250000X0.475000X-0.250000X0.475000X-0.250000X-0.475000X0.250000X-0.475000X0*%
%TD*%
%TA.AperFunction,ComponentPad*%
%ADD15R,1.524000X1.524000*%
%TD*%
%TA.AperFunction,ComponentPad*%
%ADD16C,1.524000*%
%TD*%
%TA.AperFunction,ComponentPad*%
%ADD17C,3.500000*%
%TD*%
%TA.AperFunction,SMDPad,CuDef*%
%ADD18RoundRect,0.250000X-0.450000X0.262500X-0.450000X-0.262500X0.450000X-0.262500X0.450000X0.262500X0*%
%TD*%
%TA.AperFunction,SMDPad,CuDef*%
%ADD19R,0.900000X1.500000*%
%TD*%
%TA.AperFunction,HeatsinkPad*%
%ADD20C,0.600000*%
%TD*%
%TA.AperFunction,HeatsinkPad*%
%ADD21R,2.900000X2.900000*%
%TD*%
%TA.AperFunction,ViaPad*%
%ADD22C,0.600000*%
%TD*%
%TA.AperFunction,Conductor*%
%ADD23C,0.500000*%
%TD*%
%TA.AperFunction,Conductor*%
%ADD24C,1.000000*%
%TD*%
%TA.AperFunction,Conductor*%
%ADD25C,0.200000*%
%TD*%
%TA.AperFunction,Conductor*%
%ADD26C,0.254000*%
%TD*%
G04 APERTURE END LIST*
D10*
%TO.P,U4,1,Vin*%
%TO.N,+5V*%
X187112500Y-95450000D03*
%TO.P,U4,2,GND*%
%TO.N,GND*%
X187112500Y-94500000D03*
%TO.P,U4,3,EN*%
%TO.N,+5V*%
X187112500Y-93550000D03*
%TO.P,U4,4,FB*%
%TO.N,+3.3V*%
X184837500Y-93550000D03*
%TO.P,U4,5,SW*%
X184837500Y-95450000D03*
%TD*%
D11*
%TO.P,JP4,1,1*%
%TO.N,unconnected-(JP4-Pad1)*%
X155380000Y-82400000D03*
%TO.P,JP4,2,2*%
%TO.N,unconnected-(JP4-Pad2)*%
X152840000Y-82400000D03*
%TO.P,JP4,3,3*%
%TO.N,unconnected-(JP4-Pad3)*%
X150300000Y-82400000D03*
%TO.P,JP4,4,4*%
%TO.N,unconnected-(JP4-Pad4)*%
X147760000Y-82400000D03*
%TO.P,JP4,5,5*%
%TO.N,CB1*%
X145220000Y-82400000D03*
%TO.P,JP4,6,6*%
%TO.N,CB2*%
X142680000Y-82400000D03*
%TO.P,JP4,7,7*%
%TO.N,CB3*%
X140140000Y-82400000D03*
%TO.P,JP4,8,8*%
%TO.N,CB4*%
X137600000Y-82400000D03*
%TO.P,JP4,9,9*%
%TO.N,CB5*%
X135060000Y-82400000D03*
%TO.P,JP4,10,10*%
%TO.N,CB6*%
X132520000Y-82400000D03*
%TO.P,JP4,11,11*%
%TO.N,CB7*%
X129980000Y-82400000D03*
%TO.P,JP4,12,12*%
%TO.N,CB8*%
X127440000Y-82400000D03*
%TO.P,JP4,13,13*%
%TO.N,CB9*%
X124900000Y-82400000D03*
%TD*%
D12*
%TO.P,C1,1*%
%TO.N,GND*%
X146550000Y-97150000D03*
%TO.P,C1,2*%
%TO.N,Net-(U2-C_FILT)*%
X146550000Y-99050000D03*
%TD*%
D11*
%TO.P,JP1,1,1*%
%TO.N,CA1*%
X155507000Y-107800000D03*
%TO.P,JP1,2,2*%
%TO.N,CA2*%
X152967000Y-107800000D03*
%TO.P,JP1,3,3*%
%TO.N,CA3*%
X150427000Y-107800000D03*
%TO.P,JP1,4,4*%
%TO.N,CA4*%
X147887000Y-107800000D03*
%TO.P,JP1,5,5*%
%TO.N,CA5*%
X145347000Y-107800000D03*
%TO.P,JP1,6,6*%
%TO.N,CA6*%
X142807000Y-107800000D03*
%TO.P,JP1,7,7*%
%TO.N,CA7*%
X140267000Y-107800000D03*
%TO.P,JP1,8,8*%
%TO.N,CA8*%
X137727000Y-107800000D03*
%TO.P,JP1,9,9*%
%TO.N,CA9*%
X135187000Y-107800000D03*
%TO.P,JP1,10,10*%
%TO.N,unconnected-(JP1-Pad10)*%
X132647000Y-107800000D03*
%TO.P,JP1,11,11*%
%TO.N,unconnected-(JP1-Pad11)*%
X130107000Y-107800000D03*
%TO.P,JP1,12,12*%
%TO.N,unconnected-(JP1-Pad12)*%
X127567000Y-107800000D03*
%TO.P,JP1,13,13*%
%TO.N,unconnected-(JP1-Pad13)*%
X125027000Y-107800000D03*
%TD*%
D13*
%TO.P,U2,1,CA9*%
%TO.N,CA9*%
X136450000Y-90275000D03*
%TO.P,U2,2,VCC*%
%TO.N,+5V*%
X136450000Y-90925000D03*
%TO.P,U2,3,~{SDB}*%
X136450000Y-91575000D03*
%TO.P,U2,4,~{INTB}*%
%TO.N,unconnected-(U2-~{INTB}-Pad4)*%
X136450000Y-92225000D03*
%TO.P,U2,5,GND*%
%TO.N,GND*%
X136450000Y-92875000D03*
%TO.P,U2,6,R_EXT*%
%TO.N,Net-(U2-R_EXT)*%
X136450000Y-93525000D03*
%TO.P,U2,7,CB1*%
%TO.N,CB1*%
X136450000Y-94175000D03*
%TO.P,U2,8,CB2*%
%TO.N,CB2*%
X136450000Y-94825000D03*
%TO.P,U2,9,CB3*%
%TO.N,CB3*%
X136450000Y-95475000D03*
%TO.P,U2,10,CB4*%
%TO.N,CB4*%
X136450000Y-96125000D03*
%TO.P,U2,11,CB5*%
%TO.N,CB5*%
X136450000Y-96775000D03*
%TO.P,U2,12,CB6*%
%TO.N,CB6*%
X136450000Y-97425000D03*
%TO.P,U2,13,CB7*%
%TO.N,CB7*%
X136450000Y-98075000D03*
%TO.P,U2,14,CB8*%
%TO.N,CB8*%
X136450000Y-98725000D03*
%TO.P,U2,15,CB9*%
%TO.N,CB9*%
X143650000Y-98725000D03*
%TO.P,U2,16,C_FILT*%
%TO.N,Net-(U2-C_FILT)*%
X143650000Y-98075000D03*
%TO.P,U2,17,IN*%
%TO.N,GND*%
X143650000Y-97425000D03*
%TO.P,U2,18,AD*%
X143650000Y-96775000D03*
%TO.P,U2,19,SDA*%
%TO.N,SDA*%
X143650000Y-96125000D03*
%TO.P,U2,20,SCL*%
%TO.N,SCL*%
X143650000Y-95475000D03*
%TO.P,U2,21,CA1*%
%TO.N,CA1*%
X143650000Y-94825000D03*
%TO.P,U2,22,CA2*%
%TO.N,CA2*%
X143650000Y-94175000D03*
%TO.P,U2,23,CA3*%
%TO.N,CA3*%
X143650000Y-93525000D03*
%TO.P,U2,24,CA4*%
%TO.N,CA4*%
X143650000Y-92875000D03*
%TO.P,U2,25,CA5*%
%TO.N,CA5*%
X143650000Y-92225000D03*
%TO.P,U2,26,CA6*%
%TO.N,CA6*%
X143650000Y-91575000D03*
%TO.P,U2,27,CA7*%
%TO.N,CA7*%
X143650000Y-90925000D03*
%TO.P,U2,28,CA8*%
%TO.N,CA8*%
X143650000Y-90275000D03*
%TD*%
D14*
%TO.P,C3,1*%
%TO.N,GND*%
X122050000Y-108100000D03*
%TO.P,C3,2*%
%TO.N,+3.3V*%
X120150000Y-108100000D03*
%TD*%
D15*
%TO.P,J1,1,VBUS*%
%TO.N,+5V*%
X194222500Y-98000000D03*
D16*
%TO.P,J1,2,D-*%
%TO.N,D-*%
X194222500Y-95500000D03*
%TO.P,J1,3,D+*%
%TO.N,D+*%
X194222500Y-93500000D03*
%TO.P,J1,4,GND*%
%TO.N,GND*%
X194222500Y-91000000D03*
D17*
%TO.P,J1,5,Shield*%
X196932500Y-101175000D03*
X196932500Y-87825000D03*
%TD*%
D12*
%TO.P,C2,1*%
%TO.N,GND*%
X174050000Y-93650000D03*
%TO.P,C2,2*%
%TO.N,+3.3V*%
X174050000Y-95550000D03*
%TD*%
D18*
%TO.P,R1,1*%
%TO.N,GND*%
X136550000Y-85687500D03*
%TO.P,R1,2*%
%TO.N,Net-(U2-R_EXT)*%
X136550000Y-87512500D03*
%TD*%
D19*
%TO.P,U1,1,3V3*%
%TO.N,+3.3V*%
X118550000Y-103250000D03*
%TO.P,U1,2,EN*%
X120050000Y-103250000D03*
%TO.P,U1,3,IO4*%
%TO.N,BTN2*%
X121550000Y-103250000D03*
%TO.P,U1,4,IO5*%
%TO.N,BTN3*%
X123050000Y-103250000D03*
%TO.P,U1,5,IO6*%
%TO.N,unconnected-(U1-IO6-Pad5)*%
X124550000Y-103250000D03*
%TO.P,U1,6,IO7*%
%TO.N,unconnected-(U1-IO7-Pad6)*%
X126050000Y-103250000D03*
%TO.P,U1,7,IO8*%
%TO.N,SDA*%
X127550000Y-103250000D03*
%TO.P,U1,8,IO9*%
%TO.N,SCL*%
X129050000Y-103250000D03*
%TO.P,U1,9,GND*%
%TO.N,GND*%
X130550000Y-103250000D03*
%TO.P,U1,10,IO10*%
%TO.N,unconnected-(U1-IO10-Pad10)*%
X130550000Y-85750000D03*
%TO.P,U1,11,IO20/RXD*%
%TO.N,unconnected-(U1-IO20{slash}RXD-Pad11)*%
X129050000Y-85750000D03*
%TO.P,U1,12,IO21/TXD*%
%TO.N,unconnected-(U1-IO21{slash}TXD-Pad12)*%
X127550000Y-85750000D03*
%TO.P,U1,13,IO18*%
%TO.N,D+*%
X126050000Y-85750000D03*
%TO.P,U1,14,IO19*%
%TO.N,D-*%
X124550000Y-85750000D03*
%TO.P,U1,15,IO3*%
%TO.N,BTN1*%
X123050000Y-85750000D03*
%TO.P,U1,16,IO2*%
%TO.N,unconnected-(U1-IO2-Pad16)*%
X121550000Y-85750000D03*
%TO.P,U1,17,IO1*%
%TO.N,unconnected-(U1-IO1-Pad17)*%
X120050000Y-85750000D03*
%TO.P,U1,18,IO0*%
%TO.N,unconnected-(U1-IO0-Pad18)*%
X118550000Y-85750000D03*
D20*
%TO.P,U1,19,GND*%
%TO.N,GND*%
X124200000Y-94640000D03*
X125300000Y-94640000D03*
X123650000Y-94090000D03*
X124750000Y-94090000D03*
X125850000Y-94090000D03*
X124200000Y-93540000D03*
D21*
X124750000Y-93540000D03*
D20*
X125300000Y-93540000D03*
X123650000Y-92990000D03*
X124750000Y-92990000D03*
X125850000Y-92990000D03*
X124200000Y-92440000D03*
X125300000Y-92440000D03*
%TD*%
D22*
%TO.N,GND*%
X186000000Y-94500000D03*
%TO.N,CA9*%
X138050000Y-90600000D03*
%TO.N,CB9*%
X142050000Y-98600000D03*
%TO.N,GND*%
X145050000Y-96600000D03*
X136550000Y-84600000D03*
X131550000Y-103100000D03*
X174550000Y-92100000D03*
X121454174Y-106695826D03*
X138050000Y-92100000D03*
%TO.N,D+*%
X128050000Y-84100000D03*
X129050000Y-80100000D03*
%TO.N,+5V*%
X137742628Y-91357938D03*
X139023153Y-94023153D03*
%TO.N,Net-(U2-R_EXT)*%
X138050000Y-86600000D03*
X138550000Y-88600000D03*
%TO.N,BTN1*%
X123050000Y-84600000D03*
%TO.N,BTN2*%
X121550000Y-104600000D03*
%TO.N,BTN3*%
X123050000Y-109600000D03*
%TO.N,+3.3V*%
X177050000Y-110600000D03*
X177550000Y-95100000D03*
X172550000Y-92100000D03*
%TD*%
D23*
%TO.N,+3.3V*%
X184837500Y-93550000D02*
X184837500Y-95450000D01*
D24*
X180375000Y-95450000D02*
X178325000Y-97500000D01*
X184837500Y-95450000D02*
X180375000Y-95450000D01*
X178325000Y-97500000D02*
X178325000Y-96200000D01*
D23*
%TO.N,+5V*%
X187000000Y-92500000D02*
X187000000Y-93495800D01*
D24*
X179725000Y-92500000D02*
X187000000Y-92500000D01*
X178823796Y-91595800D02*
X179529200Y-92301204D01*
X178820800Y-91595800D02*
X178823796Y-91595800D01*
X176225000Y-89000000D02*
X178820800Y-91595800D01*
X144500000Y-89000000D02*
X176225000Y-89000000D01*
X179529200Y-92301204D02*
X179529200Y-92304200D01*
X179529200Y-92304200D02*
X179725000Y-92500000D01*
D23*
%TO.N,GND*%
X187112500Y-94500000D02*
X186000000Y-94500000D01*
%TO.N,+5V*%
X188995800Y-94770801D02*
X188995800Y-95504200D01*
X187774999Y-93550000D02*
X188995800Y-94770801D01*
X187112500Y-93550000D02*
X187774999Y-93550000D01*
X188995800Y-95504200D02*
X187112500Y-95504200D01*
D24*
X189000000Y-95500000D02*
X188995800Y-95504200D01*
X189000000Y-96000000D02*
X189000000Y-95500000D01*
X191000000Y-98000000D02*
X189000000Y-96000000D01*
X194222500Y-98000000D02*
X191000000Y-98000000D01*
D25*
%TO.N,CA1*%
X145740684Y-94825000D02*
X155507000Y-104591316D01*
X143650000Y-94825000D02*
X145740684Y-94825000D01*
X155507000Y-104591316D02*
X155507000Y-107800000D01*
%TO.N,CA2*%
X143650000Y-94175000D02*
X146125000Y-94175000D01*
X156649400Y-104699400D02*
X156649400Y-108273198D01*
X146125000Y-94175000D02*
X156649400Y-104699400D01*
X155980198Y-108942400D02*
X154109400Y-108942400D01*
X156649400Y-108273198D02*
X155980198Y-108942400D01*
D26*
X153729000Y-107800000D02*
X152967000Y-107800000D01*
D25*
X154109400Y-108942400D02*
X152967000Y-107800000D01*
%TO.N,CA3*%
X143650000Y-93525000D02*
X146475000Y-93525000D01*
X151973600Y-109346600D02*
X150427000Y-107800000D01*
X157550000Y-104600000D02*
X157550000Y-107944223D01*
X146475000Y-93525000D02*
X157550000Y-104600000D01*
X157550000Y-107944223D02*
X156147623Y-109346600D01*
X156147623Y-109346600D02*
X151973600Y-109346600D01*
%TO.N,CA4*%
X157954200Y-108111649D02*
X155965849Y-110100000D01*
X146396625Y-92875000D02*
X157954200Y-104432575D01*
X143650000Y-92875000D02*
X146396625Y-92875000D01*
X150187000Y-110100000D02*
X147887000Y-107800000D01*
X155965849Y-110100000D02*
X150187000Y-110100000D01*
X157954200Y-104432575D02*
X157954200Y-108111649D01*
%TO.N,CA5*%
X158358400Y-104265150D02*
X158358400Y-108279075D01*
X158358400Y-108279075D02*
X156133274Y-110504200D01*
X146318250Y-92225000D02*
X158358400Y-104265150D01*
X156133274Y-110504200D02*
X148051200Y-110504200D01*
X148051200Y-110504200D02*
X145347000Y-107800000D01*
X143650000Y-92225000D02*
X146318250Y-92225000D01*
%TO.N,CA6*%
X158762600Y-108100000D02*
X158762599Y-108446501D01*
X143650000Y-91575000D02*
X146239875Y-91575000D01*
X146239875Y-91575000D02*
X158762600Y-104097725D01*
X158762600Y-104097725D02*
X158762600Y-108100000D01*
X145915400Y-110908400D02*
X142807000Y-107800000D01*
X158762599Y-108446501D02*
X156300699Y-110908400D01*
X156300699Y-110908400D02*
X145915400Y-110908400D01*
%TO.N,CA7*%
X143779600Y-111312600D02*
X140267000Y-107800000D01*
X159166800Y-103930300D02*
X159166799Y-108613927D01*
X156468124Y-111312600D02*
X143779600Y-111312600D01*
X143650000Y-90925000D02*
X146161500Y-90925000D01*
X159166799Y-108613927D02*
X156468124Y-111312600D01*
X146161500Y-90925000D02*
X159166800Y-103930300D01*
%TO.N,CA8*%
X141643800Y-111716800D02*
X137727000Y-107800000D01*
X159570999Y-108100000D02*
X159570998Y-108781353D01*
X159570998Y-108781353D02*
X156635549Y-111716800D01*
X146083125Y-90275000D02*
X159571000Y-103762875D01*
X156635549Y-111716800D02*
X141643800Y-111716800D01*
X159571000Y-103762875D02*
X159570999Y-108100000D01*
X143650000Y-90275000D02*
X146083125Y-90275000D01*
%TO.N,CA9*%
X136450000Y-90275000D02*
X137725000Y-90275000D01*
X137725000Y-90275000D02*
X138050000Y-90600000D01*
%TO.N,CB2*%
X136450000Y-94704200D02*
X137629200Y-94704200D01*
X145624200Y-85447425D02*
X145624200Y-84875800D01*
X143822400Y-81257600D02*
X142680000Y-82400000D01*
X137796625Y-94458400D02*
X138033400Y-94221625D01*
X145624200Y-84875800D02*
X146362400Y-84137600D01*
X137629200Y-94704200D02*
X137629200Y-94458400D01*
X136450000Y-94825000D02*
X136450000Y-94704200D01*
X146362400Y-84137600D02*
X146362400Y-81926802D01*
X138033400Y-94159851D02*
X139462600Y-92730650D01*
X145693198Y-81257600D02*
X143822400Y-81257600D01*
X137629200Y-94458400D02*
X137796625Y-94458400D01*
X138033400Y-94221625D02*
X138033400Y-94159851D01*
X139462600Y-91609026D02*
X145624200Y-85447425D01*
X146362400Y-81926802D02*
X145693198Y-81257600D01*
X139462600Y-92730650D02*
X139462600Y-91609026D01*
%TO.N,CB3*%
X135270800Y-89745800D02*
X135904200Y-89745800D01*
X140140000Y-85510000D02*
X140140000Y-82400000D01*
X135904200Y-89745800D02*
X140140000Y-85510000D01*
X136450000Y-95475000D02*
X135391600Y-95475000D01*
X135391600Y-95475000D02*
X135270800Y-95354200D01*
X135270800Y-95354200D02*
X135270800Y-89745800D01*
%TO.N,CB4*%
X136450000Y-96125000D02*
X135375000Y-96125000D01*
X135375000Y-96125000D02*
X134866600Y-95616600D01*
X134866600Y-85133400D02*
X137600000Y-82400000D01*
X134866600Y-95616600D02*
X134866600Y-85133400D01*
%TO.N,CB5*%
X134221801Y-83238199D02*
X135060000Y-82400000D01*
X136450000Y-96775000D02*
X135453375Y-96775000D01*
X135453375Y-96775000D02*
X134221801Y-95543426D01*
X134221801Y-95543426D02*
X134221801Y-83238199D01*
%TO.N,CB6*%
X133550000Y-95443250D02*
X133550000Y-83430000D01*
X133550000Y-83430000D02*
X132520000Y-82400000D01*
X135531750Y-97425000D02*
X133550000Y-95443250D01*
X136450000Y-97425000D02*
X135531750Y-97425000D01*
%TO.N,CB7*%
X133050000Y-95750000D02*
X133050000Y-84600000D01*
X135375000Y-98075000D02*
X133050000Y-95750000D01*
X136450000Y-98075000D02*
X135375000Y-98075000D01*
X133050000Y-84600000D02*
X130850000Y-82400000D01*
X130850000Y-82400000D02*
X129980000Y-82400000D01*
%TO.N,CB8*%
X131420774Y-83542400D02*
X128582400Y-83542400D01*
X132550000Y-95883400D02*
X132550000Y-84671626D01*
X128582400Y-83542400D02*
X127440000Y-82400000D01*
X132550000Y-84671626D02*
X131420774Y-83542400D01*
X136450000Y-98725000D02*
X135391600Y-98725000D01*
X135391600Y-98725000D02*
X132550000Y-95883400D01*
%TO.N,CB9*%
X142175000Y-98725000D02*
X142050000Y-98600000D01*
X143650000Y-98725000D02*
X142175000Y-98725000D01*
%TO.N,CB1*%
X139058400Y-92563225D02*
X139058400Y-91441600D01*
X137692426Y-93929200D02*
X139058400Y-92563225D01*
X145220000Y-85280000D02*
X145220000Y-82400000D01*
X136450000Y-94175000D02*
X136450000Y-94054200D01*
X137629200Y-93929200D02*
X137692426Y-93929200D01*
X139058400Y-91441600D02*
X145220000Y-85280000D01*
X137629200Y-94054200D02*
X137629200Y-93929200D01*
X136450000Y-94054200D02*
X137629200Y-94054200D01*
%TO.N,Net-(U2-C_FILT)*%
X145575000Y-98075000D02*
X146550000Y-99050000D01*
X143650000Y-98075000D02*
X145575000Y-98075000D01*
D24*
%TO.N,GND*%
X122050000Y-107291652D02*
X122050000Y-108100000D01*
D25*
X143650000Y-97425000D02*
X144225000Y-97425000D01*
D24*
X130550000Y-103250000D02*
X131400000Y-103250000D01*
D25*
X138050000Y-92350000D02*
X138050000Y-92100000D01*
D24*
X174900000Y-92800000D02*
X174050000Y-93650000D01*
D25*
X144875000Y-96775000D02*
X145050000Y-96600000D01*
D24*
X178325000Y-92800000D02*
X175250000Y-92800000D01*
D23*
X144225000Y-97425000D02*
X145050000Y-96600000D01*
D24*
X175250000Y-92800000D02*
X174550000Y-92100000D01*
X121454174Y-106695826D02*
X122050000Y-107291652D01*
D25*
X178325000Y-92800000D02*
X174900000Y-92800000D01*
D23*
X136450000Y-92875000D02*
X137525000Y-92875000D01*
D25*
X131400000Y-103250000D02*
X131550000Y-103100000D01*
D23*
X137525000Y-92875000D02*
X138050000Y-92350000D01*
D24*
X136550000Y-85687500D02*
X136550000Y-84600000D01*
D23*
X146550000Y-97150000D02*
X145600000Y-97150000D01*
X143650000Y-96775000D02*
X144875000Y-96775000D01*
X145600000Y-97150000D02*
X145050000Y-96600000D01*
D25*
%TO.N,D+*%
X127400000Y-84100000D02*
X126050000Y-85450000D01*
X184830335Y-80100000D02*
X195288700Y-90558365D01*
X126050000Y-85450000D02*
X126050000Y-85750000D01*
X129050000Y-80100000D02*
X184830335Y-80100000D01*
X195288700Y-90558365D02*
X195288700Y-92433800D01*
X128050000Y-84100000D02*
X127400000Y-84100000D01*
X195288700Y-92433800D02*
X194222500Y-93500000D01*
D23*
%TO.N,+5V*%
X144500000Y-89000000D02*
X142916600Y-89000000D01*
X140500000Y-91416600D02*
X140500000Y-92546306D01*
X142916600Y-89000000D02*
X140500000Y-91416600D01*
X136882938Y-91357938D02*
X136450000Y-90925000D01*
X137742628Y-91357938D02*
X136882938Y-91357938D01*
X140500000Y-92546306D02*
X139023153Y-94023153D01*
D25*
X139000000Y-94000000D02*
X139023153Y-94023153D01*
%TO.N,D-*%
X184219084Y-80853400D02*
X127371002Y-80853400D01*
X126297600Y-83852400D02*
X124550000Y-85600000D01*
X193050000Y-89684316D02*
X184219084Y-80853400D01*
X193050000Y-94327500D02*
X193050000Y-89684316D01*
X124550000Y-85600000D02*
X124550000Y-85750000D01*
X126297600Y-81926802D02*
X126297600Y-83852400D01*
X194222500Y-95500000D02*
X193050000Y-94327500D01*
X127371002Y-80853400D02*
X126297600Y-81926802D01*
%TO.N,Net-(U2-R_EXT)*%
X137462500Y-86600000D02*
X136550000Y-87512500D01*
X138654200Y-88704200D02*
X138550000Y-88600000D01*
X136450000Y-93525000D02*
X137525000Y-93525000D01*
X138050000Y-86600000D02*
X137462500Y-86600000D01*
X138654200Y-92395800D02*
X138654200Y-88704200D01*
X137525000Y-93525000D02*
X138654200Y-92395800D01*
%TO.N,SDA*%
X128304200Y-104304200D02*
X134412400Y-104304200D01*
X142591600Y-96125000D02*
X143650000Y-96125000D01*
X127550000Y-103550000D02*
X128304200Y-104304200D01*
X127550000Y-103250000D02*
X127550000Y-103550000D01*
X134412400Y-104304200D02*
X142591600Y-96125000D01*
%TO.N,SCL*%
X129050000Y-102950000D02*
X132745800Y-99254200D01*
X138812400Y-99254200D02*
X142591600Y-95475000D01*
X142591600Y-95475000D02*
X143650000Y-95475000D01*
X129050000Y-103250000D02*
X129050000Y-102950000D01*
X132745800Y-99254200D02*
X138812400Y-99254200D01*
%TO.N,BTN1*%
X123050000Y-85750000D02*
X123050000Y-84600000D01*
%TO.N,BTN2*%
X121550000Y-103250000D02*
X121550000Y-104600000D01*
%TO.N,BTN3*%
X123050000Y-103250000D02*
X123050000Y-109600000D01*
D24*
%TO.N,+3.3V*%
X120050000Y-103250000D02*
X119050000Y-104250000D01*
X118550000Y-104600000D02*
X118550000Y-103250000D01*
X120150000Y-106200000D02*
X119050000Y-105100000D01*
X120150000Y-108281370D02*
X120150000Y-108100000D01*
X177550000Y-95100000D02*
X177550000Y-95425000D01*
D25*
X120150001Y-108100000D02*
X120150000Y-108100000D01*
X172550000Y-94050000D02*
X174050000Y-95550000D01*
D24*
X178325000Y-97900000D02*
X178325000Y-97500000D01*
X178325000Y-97900000D02*
X163625000Y-112600000D01*
D25*
X119050000Y-104250000D02*
X119050000Y-105100000D01*
D24*
X177550000Y-95425000D02*
X178325000Y-96200000D01*
X120150000Y-108100000D02*
X120150000Y-106200000D01*
X163625000Y-112600000D02*
X124468630Y-112600000D01*
X119050000Y-105100000D02*
X118550000Y-104600000D01*
D25*
X177050000Y-110600000D02*
X177337500Y-110312500D01*
X177337500Y-98887500D02*
X178325000Y-97900000D01*
D24*
X124468630Y-112600000D02*
X120150000Y-108281370D01*
X176400000Y-97900000D02*
X174050000Y-95550000D01*
D25*
X177337500Y-110312500D02*
X177337500Y-98887500D01*
D24*
X178325000Y-97900000D02*
X176400000Y-97900000D01*
D25*
X172550000Y-92100000D02*
X172550000Y-94050000D01*
%TD*%
M02*
