%TF.GenerationSoftware,KiCad,Pcbnew,9.0.4*%
%TF.CreationDate,2025-11-02T13:41:35-05:00*%
%TF.ProjectId,C3I_TETRIS,4333495f-5445-4545-9249-532e6b696361,rev?*%
%TF.SameCoordinates,Original*%
%TF.FileFunction,Legend,Top*%
%TF.FilePolarity,Positive*%
%FSLAX46Y46*%
G04 Gerber Fmt 4.6, Leading zero omitted, Abs format (unit mm)*
G04 Created by KiCad (PCBNEW 9.0.4) date 2025-11-02 13:41:35*
%MOMM*%
%LPD*%
G01*
G04 APERTURE LIST*
%ADD10C,0.150000*%
%ADD11C,0.120000*%
G04 APERTURE END LIST*
D10*
X185213095Y-96354819D02*
X185213095Y-97164342D01*
X185213095Y-97164342D02*
X185260714Y-97259580D01*
X185260714Y-97259580D02*
X185308333Y-97307200D01*
X185308333Y-97307200D02*
X185403571Y-97354819D01*
X185403571Y-97354819D02*
X185594047Y-97354819D01*
X185594047Y-97354819D02*
X185689285Y-97307200D01*
X185689285Y-97307200D02*
X185736904Y-97259580D01*
X185736904Y-97259580D02*
X185784523Y-97164342D01*
X185784523Y-97164342D02*
X185784523Y-96354819D01*
X186689285Y-96688152D02*
X186689285Y-97354819D01*
X186451190Y-96307200D02*
X186213095Y-97021485D01*
X186213095Y-97021485D02*
X186832142Y-97021485D01*
X148589580Y-98266666D02*
X148637200Y-98314285D01*
X148637200Y-98314285D02*
X148684819Y-98457142D01*
X148684819Y-98457142D02*
X148684819Y-98552380D01*
X148684819Y-98552380D02*
X148637200Y-98695237D01*
X148637200Y-98695237D02*
X148541961Y-98790475D01*
X148541961Y-98790475D02*
X148446723Y-98838094D01*
X148446723Y-98838094D02*
X148256247Y-98885713D01*
X148256247Y-98885713D02*
X148113390Y-98885713D01*
X148113390Y-98885713D02*
X147922914Y-98838094D01*
X147922914Y-98838094D02*
X147827676Y-98790475D01*
X147827676Y-98790475D02*
X147732438Y-98695237D01*
X147732438Y-98695237D02*
X147684819Y-98552380D01*
X147684819Y-98552380D02*
X147684819Y-98457142D01*
X147684819Y-98457142D02*
X147732438Y-98314285D01*
X147732438Y-98314285D02*
X147780057Y-98266666D01*
X148684819Y-97314285D02*
X148684819Y-97885713D01*
X148684819Y-97599999D02*
X147684819Y-97599999D01*
X147684819Y-97599999D02*
X147827676Y-97695237D01*
X147827676Y-97695237D02*
X147922914Y-97790475D01*
X147922914Y-97790475D02*
X147970533Y-97885713D01*
X139288095Y-87704819D02*
X139288095Y-88514342D01*
X139288095Y-88514342D02*
X139335714Y-88609580D01*
X139335714Y-88609580D02*
X139383333Y-88657200D01*
X139383333Y-88657200D02*
X139478571Y-88704819D01*
X139478571Y-88704819D02*
X139669047Y-88704819D01*
X139669047Y-88704819D02*
X139764285Y-88657200D01*
X139764285Y-88657200D02*
X139811904Y-88609580D01*
X139811904Y-88609580D02*
X139859523Y-88514342D01*
X139859523Y-88514342D02*
X139859523Y-87704819D01*
X140288095Y-87800057D02*
X140335714Y-87752438D01*
X140335714Y-87752438D02*
X140430952Y-87704819D01*
X140430952Y-87704819D02*
X140669047Y-87704819D01*
X140669047Y-87704819D02*
X140764285Y-87752438D01*
X140764285Y-87752438D02*
X140811904Y-87800057D01*
X140811904Y-87800057D02*
X140859523Y-87895295D01*
X140859523Y-87895295D02*
X140859523Y-87990533D01*
X140859523Y-87990533D02*
X140811904Y-88133390D01*
X140811904Y-88133390D02*
X140240476Y-88704819D01*
X140240476Y-88704819D02*
X140859523Y-88704819D01*
X120933333Y-110139580D02*
X120885714Y-110187200D01*
X120885714Y-110187200D02*
X120742857Y-110234819D01*
X120742857Y-110234819D02*
X120647619Y-110234819D01*
X120647619Y-110234819D02*
X120504762Y-110187200D01*
X120504762Y-110187200D02*
X120409524Y-110091961D01*
X120409524Y-110091961D02*
X120361905Y-109996723D01*
X120361905Y-109996723D02*
X120314286Y-109806247D01*
X120314286Y-109806247D02*
X120314286Y-109663390D01*
X120314286Y-109663390D02*
X120361905Y-109472914D01*
X120361905Y-109472914D02*
X120409524Y-109377676D01*
X120409524Y-109377676D02*
X120504762Y-109282438D01*
X120504762Y-109282438D02*
X120647619Y-109234819D01*
X120647619Y-109234819D02*
X120742857Y-109234819D01*
X120742857Y-109234819D02*
X120885714Y-109282438D01*
X120885714Y-109282438D02*
X120933333Y-109330057D01*
X121266667Y-109234819D02*
X121885714Y-109234819D01*
X121885714Y-109234819D02*
X121552381Y-109615771D01*
X121552381Y-109615771D02*
X121695238Y-109615771D01*
X121695238Y-109615771D02*
X121790476Y-109663390D01*
X121790476Y-109663390D02*
X121838095Y-109711009D01*
X121838095Y-109711009D02*
X121885714Y-109806247D01*
X121885714Y-109806247D02*
X121885714Y-110044342D01*
X121885714Y-110044342D02*
X121838095Y-110139580D01*
X121838095Y-110139580D02*
X121790476Y-110187200D01*
X121790476Y-110187200D02*
X121695238Y-110234819D01*
X121695238Y-110234819D02*
X121409524Y-110234819D01*
X121409524Y-110234819D02*
X121314286Y-110187200D01*
X121314286Y-110187200D02*
X121266667Y-110139580D01*
X191067780Y-102833333D02*
X191782065Y-102833333D01*
X191782065Y-102833333D02*
X191924922Y-102880952D01*
X191924922Y-102880952D02*
X192020161Y-102976190D01*
X192020161Y-102976190D02*
X192067780Y-103119047D01*
X192067780Y-103119047D02*
X192067780Y-103214285D01*
X192067780Y-101833333D02*
X192067780Y-102404761D01*
X192067780Y-102119047D02*
X191067780Y-102119047D01*
X191067780Y-102119047D02*
X191210637Y-102214285D01*
X191210637Y-102214285D02*
X191305875Y-102309523D01*
X191305875Y-102309523D02*
X191353494Y-102404761D01*
X172409580Y-94766666D02*
X172457200Y-94814285D01*
X172457200Y-94814285D02*
X172504819Y-94957142D01*
X172504819Y-94957142D02*
X172504819Y-95052380D01*
X172504819Y-95052380D02*
X172457200Y-95195237D01*
X172457200Y-95195237D02*
X172361961Y-95290475D01*
X172361961Y-95290475D02*
X172266723Y-95338094D01*
X172266723Y-95338094D02*
X172076247Y-95385713D01*
X172076247Y-95385713D02*
X171933390Y-95385713D01*
X171933390Y-95385713D02*
X171742914Y-95338094D01*
X171742914Y-95338094D02*
X171647676Y-95290475D01*
X171647676Y-95290475D02*
X171552438Y-95195237D01*
X171552438Y-95195237D02*
X171504819Y-95052380D01*
X171504819Y-95052380D02*
X171504819Y-94957142D01*
X171504819Y-94957142D02*
X171552438Y-94814285D01*
X171552438Y-94814285D02*
X171600057Y-94766666D01*
X171600057Y-94385713D02*
X171552438Y-94338094D01*
X171552438Y-94338094D02*
X171504819Y-94242856D01*
X171504819Y-94242856D02*
X171504819Y-94004761D01*
X171504819Y-94004761D02*
X171552438Y-93909523D01*
X171552438Y-93909523D02*
X171600057Y-93861904D01*
X171600057Y-93861904D02*
X171695295Y-93814285D01*
X171695295Y-93814285D02*
X171790533Y-93814285D01*
X171790533Y-93814285D02*
X171933390Y-93861904D01*
X171933390Y-93861904D02*
X172504819Y-94433332D01*
X172504819Y-94433332D02*
X172504819Y-93814285D01*
X135004819Y-86766666D02*
X134528628Y-87099999D01*
X135004819Y-87338094D02*
X134004819Y-87338094D01*
X134004819Y-87338094D02*
X134004819Y-86957142D01*
X134004819Y-86957142D02*
X134052438Y-86861904D01*
X134052438Y-86861904D02*
X134100057Y-86814285D01*
X134100057Y-86814285D02*
X134195295Y-86766666D01*
X134195295Y-86766666D02*
X134338152Y-86766666D01*
X134338152Y-86766666D02*
X134433390Y-86814285D01*
X134433390Y-86814285D02*
X134481009Y-86861904D01*
X134481009Y-86861904D02*
X134528628Y-86957142D01*
X134528628Y-86957142D02*
X134528628Y-87338094D01*
X135004819Y-85814285D02*
X135004819Y-86385713D01*
X135004819Y-86099999D02*
X134004819Y-86099999D01*
X134004819Y-86099999D02*
X134147676Y-86195237D01*
X134147676Y-86195237D02*
X134242914Y-86290475D01*
X134242914Y-86290475D02*
X134290533Y-86385713D01*
X128918095Y-104454819D02*
X128918095Y-105264342D01*
X128918095Y-105264342D02*
X128965714Y-105359580D01*
X128965714Y-105359580D02*
X129013333Y-105407200D01*
X129013333Y-105407200D02*
X129108571Y-105454819D01*
X129108571Y-105454819D02*
X129299047Y-105454819D01*
X129299047Y-105454819D02*
X129394285Y-105407200D01*
X129394285Y-105407200D02*
X129441904Y-105359580D01*
X129441904Y-105359580D02*
X129489523Y-105264342D01*
X129489523Y-105264342D02*
X129489523Y-104454819D01*
X130489523Y-105454819D02*
X129918095Y-105454819D01*
X130203809Y-105454819D02*
X130203809Y-104454819D01*
X130203809Y-104454819D02*
X130108571Y-104597676D01*
X130108571Y-104597676D02*
X130013333Y-104692914D01*
X130013333Y-104692914D02*
X129918095Y-104740533D01*
D11*
%TO.C,U4*%
X185975000Y-96060000D02*
X186775000Y-96060000D01*
X185975000Y-96060000D02*
X185175000Y-96060000D01*
X185975000Y-92940000D02*
X186775000Y-92940000D01*
X185975000Y-92940000D02*
X185175000Y-92940000D01*
X187515000Y-96340000D02*
X187035000Y-96340000D01*
X187275000Y-96010000D01*
X187515000Y-96340000D01*
G36*
X187515000Y-96340000D02*
G01*
X187035000Y-96340000D01*
X187275000Y-96010000D01*
X187515000Y-96340000D01*
G37*
%TO.C,C1*%
X145815000Y-97838748D02*
X145815000Y-98361252D01*
X147285000Y-97838748D02*
X147285000Y-98361252D01*
D10*
%TO.C,U2*%
X137175000Y-89175000D02*
X137175000Y-89750000D01*
X137175000Y-89175000D02*
X142925000Y-89175000D01*
X137175000Y-99250000D02*
X137175000Y-99825000D01*
X137175000Y-99825000D02*
X142925000Y-99825000D01*
X142925000Y-89175000D02*
X142925000Y-89750000D01*
X142925000Y-99250000D02*
X142925000Y-99825000D01*
D11*
X136675000Y-89750000D02*
X136435000Y-89420000D01*
X136915000Y-89420000D01*
X136675000Y-89750000D01*
G36*
X136675000Y-89750000D02*
G01*
X136435000Y-89420000D01*
X136915000Y-89420000D01*
X136675000Y-89750000D01*
G37*
%TO.C,C3*%
X121361252Y-107365000D02*
X120838748Y-107365000D01*
X121361252Y-108835000D02*
X120838748Y-108835000D01*
%TO.C,J1*%
X192222500Y-97500000D02*
X192222500Y-98500000D01*
X192222500Y-98500000D02*
X192722500Y-98000000D01*
X192722500Y-98000000D02*
X192222500Y-97500000D01*
X193102500Y-101860000D02*
X193102500Y-87140000D01*
X193102500Y-101860000D02*
X195082500Y-101860000D01*
X195082500Y-87140000D02*
X193102500Y-87140000D01*
X198782500Y-87140000D02*
X207322500Y-87140000D01*
X198782500Y-101860000D02*
X207322500Y-101860000D01*
X207322500Y-101860000D02*
X207322500Y-87140000D01*
%TO.C,C2*%
X173315000Y-94338748D02*
X173315000Y-94861252D01*
X174785000Y-94338748D02*
X174785000Y-94861252D01*
%TO.C,R1*%
X135815000Y-86372936D02*
X135815000Y-86827064D01*
X137285000Y-86372936D02*
X137285000Y-86827064D01*
%TO.C,U1*%
X111340000Y-85390000D02*
X117840000Y-85390000D01*
X111340000Y-103610000D02*
X111340000Y-85390000D01*
X111340000Y-103610000D02*
X117150000Y-103610000D01*
X131260000Y-85390000D02*
X131560000Y-85390000D01*
X131260000Y-103610000D02*
X131560000Y-103610000D01*
X131560000Y-103610000D02*
X131560000Y-85390000D01*
X117850000Y-104100000D02*
X117350000Y-103600000D01*
X117850000Y-103600000D01*
X117850000Y-104100000D01*
G36*
X117850000Y-104100000D02*
G01*
X117350000Y-103600000D01*
X117850000Y-103600000D01*
X117850000Y-104100000D01*
G37*
%TD*%
M02*
