%TF.GenerationSoftware,KiCad,Pcbnew,9.0.4*%
%TF.CreationDate,2025-11-02T13:41:35-05:00*%
%TF.ProjectId,C3I_TETRIS,4333495f-5445-4545-9249-532e6b696361,rev?*%
%TF.SameCoordinates,Original*%
%TF.FileFunction,Soldermask,Top*%
%TF.FilePolarity,Negative*%
%FSLAX46Y46*%
G04 Gerber Fmt 4.6, Leading zero omitted, Abs format (unit mm)*
G04 Created by KiCad (PCBNEW 9.0.4) date 2025-11-02 13:41:35*
%MOMM*%
%LPD*%
G01*
G04 APERTURE LIST*
G04 Aperture macros list*
%AMRoundRect*
0 Rectangle with rounded corners*
0 $1 Rounding radius*
0 $2 $3 $4 $5 $6 $7 $8 $9 X,Y pos of 4 corners*
0 Add a 4 corners polygon primitive as box body*
4,1,4,$2,$3,$4,$5,$6,$7,$8,$9,$2,$3,0*
0 Add four circle primitives for the rounded corners*
1,1,$1+$1,$2,$3*
1,1,$1+$1,$4,$5*
1,1,$1+$1,$6,$7*
1,1,$1+$1,$8,$9*
0 Add four rect primitives between the rounded corners*
20,1,$1+$1,$2,$3,$4,$5,0*
20,1,$1+$1,$4,$5,$6,$7,0*
20,1,$1+$1,$6,$7,$8,$9,0*
20,1,$1+$1,$8,$9,$2,$3,0*%
G04 Aperture macros list end*
%ADD10C,0.300000*%
%ADD11RoundRect,0.150000X0.512500X0.150000X-0.512500X0.150000X-0.512500X-0.150000X0.512500X-0.150000X0*%
%ADD12C,1.778000*%
%ADD13RoundRect,0.250000X-0.475000X0.250000X-0.475000X-0.250000X0.475000X-0.250000X0.475000X0.250000X0*%
%ADD14R,1.750000X0.450000*%
%ADD15RoundRect,0.250000X0.250000X0.475000X-0.250000X0.475000X-0.250000X-0.475000X0.250000X-0.475000X0*%
%ADD16R,1.524000X1.524000*%
%ADD17C,1.524000*%
%ADD18C,3.500000*%
%ADD19RoundRect,0.250000X-0.450000X0.262500X-0.450000X-0.262500X0.450000X-0.262500X0.450000X0.262500X0*%
%ADD20R,0.900000X1.500000*%
%ADD21C,0.600000*%
%ADD22R,2.900000X2.900000*%
G04 APERTURE END LIST*
D10*
X117933082Y-72627509D02*
X118647368Y-72627509D01*
X117790225Y-73056080D02*
X118290225Y-71556080D01*
X118290225Y-71556080D02*
X118790225Y-73056080D01*
X119933082Y-72056080D02*
X119933082Y-73056080D01*
X119290224Y-72056080D02*
X119290224Y-72841794D01*
X119290224Y-72841794D02*
X119361653Y-72984652D01*
X119361653Y-72984652D02*
X119504510Y-73056080D01*
X119504510Y-73056080D02*
X119718796Y-73056080D01*
X119718796Y-73056080D02*
X119861653Y-72984652D01*
X119861653Y-72984652D02*
X119933082Y-72913223D01*
X120433082Y-72056080D02*
X121004510Y-72056080D01*
X120647367Y-71556080D02*
X120647367Y-72841794D01*
X120647367Y-72841794D02*
X120718796Y-72984652D01*
X120718796Y-72984652D02*
X120861653Y-73056080D01*
X120861653Y-73056080D02*
X121004510Y-73056080D01*
X122075939Y-72984652D02*
X121933082Y-73056080D01*
X121933082Y-73056080D02*
X121647368Y-73056080D01*
X121647368Y-73056080D02*
X121504510Y-72984652D01*
X121504510Y-72984652D02*
X121433082Y-72841794D01*
X121433082Y-72841794D02*
X121433082Y-72270366D01*
X121433082Y-72270366D02*
X121504510Y-72127509D01*
X121504510Y-72127509D02*
X121647368Y-72056080D01*
X121647368Y-72056080D02*
X121933082Y-72056080D01*
X121933082Y-72056080D02*
X122075939Y-72127509D01*
X122075939Y-72127509D02*
X122147368Y-72270366D01*
X122147368Y-72270366D02*
X122147368Y-72413223D01*
X122147368Y-72413223D02*
X121433082Y-72556080D01*
X123433082Y-72056080D02*
X123433082Y-73056080D01*
X122790224Y-72056080D02*
X122790224Y-72841794D01*
X122790224Y-72841794D02*
X122861653Y-72984652D01*
X122861653Y-72984652D02*
X123004510Y-73056080D01*
X123004510Y-73056080D02*
X123218796Y-73056080D01*
X123218796Y-73056080D02*
X123361653Y-72984652D01*
X123361653Y-72984652D02*
X123433082Y-72913223D01*
X124147367Y-73056080D02*
X124147367Y-72056080D01*
X124147367Y-72341794D02*
X124218796Y-72198937D01*
X124218796Y-72198937D02*
X124290225Y-72127509D01*
X124290225Y-72127509D02*
X124433082Y-72056080D01*
X124433082Y-72056080D02*
X124575939Y-72056080D01*
X126218795Y-72913223D02*
X126290224Y-72984652D01*
X126290224Y-72984652D02*
X126218795Y-73056080D01*
X126218795Y-73056080D02*
X126147367Y-72984652D01*
X126147367Y-72984652D02*
X126218795Y-72913223D01*
X126218795Y-72913223D02*
X126218795Y-73056080D01*
X126218795Y-72127509D02*
X126290224Y-72198937D01*
X126290224Y-72198937D02*
X126218795Y-72270366D01*
X126218795Y-72270366D02*
X126147367Y-72198937D01*
X126147367Y-72198937D02*
X126218795Y-72127509D01*
X126218795Y-72127509D02*
X126218795Y-72270366D01*
X128004510Y-72627509D02*
X128718796Y-72627509D01*
X127861653Y-73056080D02*
X128361653Y-71556080D01*
X128361653Y-71556080D02*
X128861653Y-73056080D01*
X129575938Y-73056080D02*
X129433081Y-72984652D01*
X129433081Y-72984652D02*
X129361652Y-72841794D01*
X129361652Y-72841794D02*
X129361652Y-71556080D01*
X130718795Y-72984652D02*
X130575938Y-73056080D01*
X130575938Y-73056080D02*
X130290224Y-73056080D01*
X130290224Y-73056080D02*
X130147366Y-72984652D01*
X130147366Y-72984652D02*
X130075938Y-72841794D01*
X130075938Y-72841794D02*
X130075938Y-72270366D01*
X130075938Y-72270366D02*
X130147366Y-72127509D01*
X130147366Y-72127509D02*
X130290224Y-72056080D01*
X130290224Y-72056080D02*
X130575938Y-72056080D01*
X130575938Y-72056080D02*
X130718795Y-72127509D01*
X130718795Y-72127509D02*
X130790224Y-72270366D01*
X130790224Y-72270366D02*
X130790224Y-72413223D01*
X130790224Y-72413223D02*
X130075938Y-72556080D01*
X131290223Y-73056080D02*
X132075938Y-72056080D01*
X131290223Y-72056080D02*
X132075938Y-73056080D01*
X132647366Y-73056080D02*
X132647366Y-72056080D01*
X132647366Y-71556080D02*
X132575938Y-71627509D01*
X132575938Y-71627509D02*
X132647366Y-71698937D01*
X132647366Y-71698937D02*
X132718795Y-71627509D01*
X132718795Y-71627509D02*
X132647366Y-71556080D01*
X132647366Y-71556080D02*
X132647366Y-71698937D01*
X133290224Y-72984652D02*
X133433081Y-73056080D01*
X133433081Y-73056080D02*
X133718795Y-73056080D01*
X133718795Y-73056080D02*
X133861652Y-72984652D01*
X133861652Y-72984652D02*
X133933081Y-72841794D01*
X133933081Y-72841794D02*
X133933081Y-72770366D01*
X133933081Y-72770366D02*
X133861652Y-72627509D01*
X133861652Y-72627509D02*
X133718795Y-72556080D01*
X133718795Y-72556080D02*
X133504510Y-72556080D01*
X133504510Y-72556080D02*
X133361652Y-72484652D01*
X133361652Y-72484652D02*
X133290224Y-72341794D01*
X133290224Y-72341794D02*
X133290224Y-72270366D01*
X133290224Y-72270366D02*
X133361652Y-72127509D01*
X133361652Y-72127509D02*
X133504510Y-72056080D01*
X133504510Y-72056080D02*
X133718795Y-72056080D01*
X133718795Y-72056080D02*
X133861652Y-72127509D01*
X136433081Y-73056080D02*
X135718795Y-73056080D01*
X135718795Y-73056080D02*
X135718795Y-71556080D01*
X137504510Y-72984652D02*
X137361653Y-73056080D01*
X137361653Y-73056080D02*
X137075939Y-73056080D01*
X137075939Y-73056080D02*
X136933081Y-72984652D01*
X136933081Y-72984652D02*
X136861653Y-72841794D01*
X136861653Y-72841794D02*
X136861653Y-72270366D01*
X136861653Y-72270366D02*
X136933081Y-72127509D01*
X136933081Y-72127509D02*
X137075939Y-72056080D01*
X137075939Y-72056080D02*
X137361653Y-72056080D01*
X137361653Y-72056080D02*
X137504510Y-72127509D01*
X137504510Y-72127509D02*
X137575939Y-72270366D01*
X137575939Y-72270366D02*
X137575939Y-72413223D01*
X137575939Y-72413223D02*
X136861653Y-72556080D01*
X137361653Y-71484652D02*
X137147367Y-71698937D01*
X138004510Y-72056080D02*
X138575938Y-72056080D01*
X138218795Y-71556080D02*
X138218795Y-72841794D01*
X138218795Y-72841794D02*
X138290224Y-72984652D01*
X138290224Y-72984652D02*
X138433081Y-73056080D01*
X138433081Y-73056080D02*
X138575938Y-73056080D01*
X139290224Y-73056080D02*
X139147367Y-72984652D01*
X139147367Y-72984652D02*
X139075938Y-72913223D01*
X139075938Y-72913223D02*
X139004510Y-72770366D01*
X139004510Y-72770366D02*
X139004510Y-72341794D01*
X139004510Y-72341794D02*
X139075938Y-72198937D01*
X139075938Y-72198937D02*
X139147367Y-72127509D01*
X139147367Y-72127509D02*
X139290224Y-72056080D01*
X139290224Y-72056080D02*
X139504510Y-72056080D01*
X139504510Y-72056080D02*
X139647367Y-72127509D01*
X139647367Y-72127509D02*
X139718796Y-72198937D01*
X139718796Y-72198937D02*
X139790224Y-72341794D01*
X139790224Y-72341794D02*
X139790224Y-72770366D01*
X139790224Y-72770366D02*
X139718796Y-72913223D01*
X139718796Y-72913223D02*
X139647367Y-72984652D01*
X139647367Y-72984652D02*
X139504510Y-73056080D01*
X139504510Y-73056080D02*
X139290224Y-73056080D01*
X141075939Y-72056080D02*
X141075939Y-73056080D01*
X140433081Y-72056080D02*
X140433081Y-72841794D01*
X140433081Y-72841794D02*
X140504510Y-72984652D01*
X140504510Y-72984652D02*
X140647367Y-73056080D01*
X140647367Y-73056080D02*
X140861653Y-73056080D01*
X140861653Y-73056080D02*
X141004510Y-72984652D01*
X141004510Y-72984652D02*
X141075939Y-72913223D01*
X141790224Y-73056080D02*
X141790224Y-72056080D01*
X141790224Y-72341794D02*
X141861653Y-72198937D01*
X141861653Y-72198937D02*
X141933082Y-72127509D01*
X141933082Y-72127509D02*
X142075939Y-72056080D01*
X142075939Y-72056080D02*
X142218796Y-72056080D01*
X142718795Y-72056080D02*
X142718795Y-73056080D01*
X142718795Y-72198937D02*
X142790224Y-72127509D01*
X142790224Y-72127509D02*
X142933081Y-72056080D01*
X142933081Y-72056080D02*
X143147367Y-72056080D01*
X143147367Y-72056080D02*
X143290224Y-72127509D01*
X143290224Y-72127509D02*
X143361653Y-72270366D01*
X143361653Y-72270366D02*
X143361653Y-73056080D01*
X144647367Y-72984652D02*
X144504510Y-73056080D01*
X144504510Y-73056080D02*
X144218796Y-73056080D01*
X144218796Y-73056080D02*
X144075938Y-72984652D01*
X144075938Y-72984652D02*
X144004510Y-72841794D01*
X144004510Y-72841794D02*
X144004510Y-72270366D01*
X144004510Y-72270366D02*
X144075938Y-72127509D01*
X144075938Y-72127509D02*
X144218796Y-72056080D01*
X144218796Y-72056080D02*
X144504510Y-72056080D01*
X144504510Y-72056080D02*
X144647367Y-72127509D01*
X144647367Y-72127509D02*
X144718796Y-72270366D01*
X144718796Y-72270366D02*
X144718796Y-72413223D01*
X144718796Y-72413223D02*
X144004510Y-72556080D01*
X146004510Y-73056080D02*
X146004510Y-72270366D01*
X146004510Y-72270366D02*
X145933081Y-72127509D01*
X145933081Y-72127509D02*
X145790224Y-72056080D01*
X145790224Y-72056080D02*
X145504510Y-72056080D01*
X145504510Y-72056080D02*
X145361652Y-72127509D01*
X146004510Y-72984652D02*
X145861652Y-73056080D01*
X145861652Y-73056080D02*
X145504510Y-73056080D01*
X145504510Y-73056080D02*
X145361652Y-72984652D01*
X145361652Y-72984652D02*
X145290224Y-72841794D01*
X145290224Y-72841794D02*
X145290224Y-72698937D01*
X145290224Y-72698937D02*
X145361652Y-72556080D01*
X145361652Y-72556080D02*
X145504510Y-72484652D01*
X145504510Y-72484652D02*
X145861652Y-72484652D01*
X145861652Y-72484652D02*
X146004510Y-72413223D01*
X147361653Y-72056080D02*
X147361653Y-73056080D01*
X146718795Y-72056080D02*
X146718795Y-72841794D01*
X146718795Y-72841794D02*
X146790224Y-72984652D01*
X146790224Y-72984652D02*
X146933081Y-73056080D01*
X146933081Y-73056080D02*
X147147367Y-73056080D01*
X147147367Y-73056080D02*
X147290224Y-72984652D01*
X147290224Y-72984652D02*
X147361653Y-72913223D01*
X118004510Y-75470996D02*
X118004510Y-73970996D01*
X118004510Y-73970996D02*
X118361653Y-73970996D01*
X118361653Y-73970996D02*
X118575939Y-74042425D01*
X118575939Y-74042425D02*
X118718796Y-74185282D01*
X118718796Y-74185282D02*
X118790225Y-74328139D01*
X118790225Y-74328139D02*
X118861653Y-74613853D01*
X118861653Y-74613853D02*
X118861653Y-74828139D01*
X118861653Y-74828139D02*
X118790225Y-75113853D01*
X118790225Y-75113853D02*
X118718796Y-75256710D01*
X118718796Y-75256710D02*
X118575939Y-75399568D01*
X118575939Y-75399568D02*
X118361653Y-75470996D01*
X118361653Y-75470996D02*
X118004510Y-75470996D01*
X120147368Y-75470996D02*
X120147368Y-74685282D01*
X120147368Y-74685282D02*
X120075939Y-74542425D01*
X120075939Y-74542425D02*
X119933082Y-74470996D01*
X119933082Y-74470996D02*
X119647368Y-74470996D01*
X119647368Y-74470996D02*
X119504510Y-74542425D01*
X120147368Y-75399568D02*
X120004510Y-75470996D01*
X120004510Y-75470996D02*
X119647368Y-75470996D01*
X119647368Y-75470996D02*
X119504510Y-75399568D01*
X119504510Y-75399568D02*
X119433082Y-75256710D01*
X119433082Y-75256710D02*
X119433082Y-75113853D01*
X119433082Y-75113853D02*
X119504510Y-74970996D01*
X119504510Y-74970996D02*
X119647368Y-74899568D01*
X119647368Y-74899568D02*
X120004510Y-74899568D01*
X120004510Y-74899568D02*
X120147368Y-74828139D01*
X120647368Y-74470996D02*
X121218796Y-74470996D01*
X120861653Y-73970996D02*
X120861653Y-75256710D01*
X120861653Y-75256710D02*
X120933082Y-75399568D01*
X120933082Y-75399568D02*
X121075939Y-75470996D01*
X121075939Y-75470996D02*
X121218796Y-75470996D01*
X122290225Y-75399568D02*
X122147368Y-75470996D01*
X122147368Y-75470996D02*
X121861654Y-75470996D01*
X121861654Y-75470996D02*
X121718796Y-75399568D01*
X121718796Y-75399568D02*
X121647368Y-75256710D01*
X121647368Y-75256710D02*
X121647368Y-74685282D01*
X121647368Y-74685282D02*
X121718796Y-74542425D01*
X121718796Y-74542425D02*
X121861654Y-74470996D01*
X121861654Y-74470996D02*
X122147368Y-74470996D01*
X122147368Y-74470996D02*
X122290225Y-74542425D01*
X122290225Y-74542425D02*
X122361654Y-74685282D01*
X122361654Y-74685282D02*
X122361654Y-74828139D01*
X122361654Y-74828139D02*
X121647368Y-74970996D01*
X124147367Y-75328139D02*
X124218796Y-75399568D01*
X124218796Y-75399568D02*
X124147367Y-75470996D01*
X124147367Y-75470996D02*
X124075939Y-75399568D01*
X124075939Y-75399568D02*
X124147367Y-75328139D01*
X124147367Y-75328139D02*
X124147367Y-75470996D01*
X124147367Y-74542425D02*
X124218796Y-74613853D01*
X124218796Y-74613853D02*
X124147367Y-74685282D01*
X124147367Y-74685282D02*
X124075939Y-74613853D01*
X124075939Y-74613853D02*
X124147367Y-74542425D01*
X124147367Y-74542425D02*
X124147367Y-74685282D01*
X125933082Y-74113853D02*
X126004510Y-74042425D01*
X126004510Y-74042425D02*
X126147368Y-73970996D01*
X126147368Y-73970996D02*
X126504510Y-73970996D01*
X126504510Y-73970996D02*
X126647368Y-74042425D01*
X126647368Y-74042425D02*
X126718796Y-74113853D01*
X126718796Y-74113853D02*
X126790225Y-74256710D01*
X126790225Y-74256710D02*
X126790225Y-74399568D01*
X126790225Y-74399568D02*
X126718796Y-74613853D01*
X126718796Y-74613853D02*
X125861653Y-75470996D01*
X125861653Y-75470996D02*
X126790225Y-75470996D01*
X127718796Y-73970996D02*
X127861653Y-73970996D01*
X127861653Y-73970996D02*
X128004510Y-74042425D01*
X128004510Y-74042425D02*
X128075939Y-74113853D01*
X128075939Y-74113853D02*
X128147367Y-74256710D01*
X128147367Y-74256710D02*
X128218796Y-74542425D01*
X128218796Y-74542425D02*
X128218796Y-74899568D01*
X128218796Y-74899568D02*
X128147367Y-75185282D01*
X128147367Y-75185282D02*
X128075939Y-75328139D01*
X128075939Y-75328139D02*
X128004510Y-75399568D01*
X128004510Y-75399568D02*
X127861653Y-75470996D01*
X127861653Y-75470996D02*
X127718796Y-75470996D01*
X127718796Y-75470996D02*
X127575939Y-75399568D01*
X127575939Y-75399568D02*
X127504510Y-75328139D01*
X127504510Y-75328139D02*
X127433081Y-75185282D01*
X127433081Y-75185282D02*
X127361653Y-74899568D01*
X127361653Y-74899568D02*
X127361653Y-74542425D01*
X127361653Y-74542425D02*
X127433081Y-74256710D01*
X127433081Y-74256710D02*
X127504510Y-74113853D01*
X127504510Y-74113853D02*
X127575939Y-74042425D01*
X127575939Y-74042425D02*
X127718796Y-73970996D01*
X128790224Y-74113853D02*
X128861652Y-74042425D01*
X128861652Y-74042425D02*
X129004510Y-73970996D01*
X129004510Y-73970996D02*
X129361652Y-73970996D01*
X129361652Y-73970996D02*
X129504510Y-74042425D01*
X129504510Y-74042425D02*
X129575938Y-74113853D01*
X129575938Y-74113853D02*
X129647367Y-74256710D01*
X129647367Y-74256710D02*
X129647367Y-74399568D01*
X129647367Y-74399568D02*
X129575938Y-74613853D01*
X129575938Y-74613853D02*
X128718795Y-75470996D01*
X128718795Y-75470996D02*
X129647367Y-75470996D01*
X131004509Y-73970996D02*
X130290223Y-73970996D01*
X130290223Y-73970996D02*
X130218795Y-74685282D01*
X130218795Y-74685282D02*
X130290223Y-74613853D01*
X130290223Y-74613853D02*
X130433081Y-74542425D01*
X130433081Y-74542425D02*
X130790223Y-74542425D01*
X130790223Y-74542425D02*
X130933081Y-74613853D01*
X130933081Y-74613853D02*
X131004509Y-74685282D01*
X131004509Y-74685282D02*
X131075938Y-74828139D01*
X131075938Y-74828139D02*
X131075938Y-75185282D01*
X131075938Y-75185282D02*
X131004509Y-75328139D01*
X131004509Y-75328139D02*
X130933081Y-75399568D01*
X130933081Y-75399568D02*
X130790223Y-75470996D01*
X130790223Y-75470996D02*
X130433081Y-75470996D01*
X130433081Y-75470996D02*
X130290223Y-75399568D01*
X130290223Y-75399568D02*
X130218795Y-75328139D01*
X131718794Y-74899568D02*
X132861652Y-74899568D01*
X134361652Y-75470996D02*
X133504509Y-75470996D01*
X133933080Y-75470996D02*
X133933080Y-73970996D01*
X133933080Y-73970996D02*
X133790223Y-74185282D01*
X133790223Y-74185282D02*
X133647366Y-74328139D01*
X133647366Y-74328139D02*
X133504509Y-74399568D01*
X135790223Y-75470996D02*
X134933080Y-75470996D01*
X135361651Y-75470996D02*
X135361651Y-73970996D01*
X135361651Y-73970996D02*
X135218794Y-74185282D01*
X135218794Y-74185282D02*
X135075937Y-74328139D01*
X135075937Y-74328139D02*
X134933080Y-74399568D01*
X136433079Y-74899568D02*
X137575937Y-74899568D01*
X138575937Y-73970996D02*
X138718794Y-73970996D01*
X138718794Y-73970996D02*
X138861651Y-74042425D01*
X138861651Y-74042425D02*
X138933080Y-74113853D01*
X138933080Y-74113853D02*
X139004508Y-74256710D01*
X139004508Y-74256710D02*
X139075937Y-74542425D01*
X139075937Y-74542425D02*
X139075937Y-74899568D01*
X139075937Y-74899568D02*
X139004508Y-75185282D01*
X139004508Y-75185282D02*
X138933080Y-75328139D01*
X138933080Y-75328139D02*
X138861651Y-75399568D01*
X138861651Y-75399568D02*
X138718794Y-75470996D01*
X138718794Y-75470996D02*
X138575937Y-75470996D01*
X138575937Y-75470996D02*
X138433080Y-75399568D01*
X138433080Y-75399568D02*
X138361651Y-75328139D01*
X138361651Y-75328139D02*
X138290222Y-75185282D01*
X138290222Y-75185282D02*
X138218794Y-74899568D01*
X138218794Y-74899568D02*
X138218794Y-74542425D01*
X138218794Y-74542425D02*
X138290222Y-74256710D01*
X138290222Y-74256710D02*
X138361651Y-74113853D01*
X138361651Y-74113853D02*
X138433080Y-74042425D01*
X138433080Y-74042425D02*
X138575937Y-73970996D01*
X140504508Y-75470996D02*
X139647365Y-75470996D01*
X140075936Y-75470996D02*
X140075936Y-73970996D01*
X140075936Y-73970996D02*
X139933079Y-74185282D01*
X139933079Y-74185282D02*
X139790222Y-74328139D01*
X139790222Y-74328139D02*
X139647365Y-74399568D01*
X117790225Y-76385912D02*
X118647368Y-76385912D01*
X118218796Y-77885912D02*
X118218796Y-76385912D01*
X119147367Y-77885912D02*
X119147367Y-76885912D01*
X119147367Y-76385912D02*
X119075939Y-76457341D01*
X119075939Y-76457341D02*
X119147367Y-76528769D01*
X119147367Y-76528769D02*
X119218796Y-76457341D01*
X119218796Y-76457341D02*
X119147367Y-76385912D01*
X119147367Y-76385912D02*
X119147367Y-76528769D01*
X119647368Y-76885912D02*
X120218796Y-76885912D01*
X119861653Y-76385912D02*
X119861653Y-77671626D01*
X119861653Y-77671626D02*
X119933082Y-77814484D01*
X119933082Y-77814484D02*
X120075939Y-77885912D01*
X120075939Y-77885912D02*
X120218796Y-77885912D01*
X120718796Y-77885912D02*
X120718796Y-76885912D01*
X120718796Y-77171626D02*
X120790225Y-77028769D01*
X120790225Y-77028769D02*
X120861654Y-76957341D01*
X120861654Y-76957341D02*
X121004511Y-76885912D01*
X121004511Y-76885912D02*
X121147368Y-76885912D01*
X122218796Y-77814484D02*
X122075939Y-77885912D01*
X122075939Y-77885912D02*
X121790225Y-77885912D01*
X121790225Y-77885912D02*
X121647367Y-77814484D01*
X121647367Y-77814484D02*
X121575939Y-77671626D01*
X121575939Y-77671626D02*
X121575939Y-77100198D01*
X121575939Y-77100198D02*
X121647367Y-76957341D01*
X121647367Y-76957341D02*
X121790225Y-76885912D01*
X121790225Y-76885912D02*
X122075939Y-76885912D01*
X122075939Y-76885912D02*
X122218796Y-76957341D01*
X122218796Y-76957341D02*
X122290225Y-77100198D01*
X122290225Y-77100198D02*
X122290225Y-77243055D01*
X122290225Y-77243055D02*
X121575939Y-77385912D01*
X124075938Y-77743055D02*
X124147367Y-77814484D01*
X124147367Y-77814484D02*
X124075938Y-77885912D01*
X124075938Y-77885912D02*
X124004510Y-77814484D01*
X124004510Y-77814484D02*
X124075938Y-77743055D01*
X124075938Y-77743055D02*
X124075938Y-77885912D01*
X124075938Y-76957341D02*
X124147367Y-77028769D01*
X124147367Y-77028769D02*
X124075938Y-77100198D01*
X124075938Y-77100198D02*
X124004510Y-77028769D01*
X124004510Y-77028769D02*
X124075938Y-76957341D01*
X124075938Y-76957341D02*
X124075938Y-77100198D01*
X126790224Y-77743055D02*
X126718796Y-77814484D01*
X126718796Y-77814484D02*
X126504510Y-77885912D01*
X126504510Y-77885912D02*
X126361653Y-77885912D01*
X126361653Y-77885912D02*
X126147367Y-77814484D01*
X126147367Y-77814484D02*
X126004510Y-77671626D01*
X126004510Y-77671626D02*
X125933081Y-77528769D01*
X125933081Y-77528769D02*
X125861653Y-77243055D01*
X125861653Y-77243055D02*
X125861653Y-77028769D01*
X125861653Y-77028769D02*
X125933081Y-76743055D01*
X125933081Y-76743055D02*
X126004510Y-76600198D01*
X126004510Y-76600198D02*
X126147367Y-76457341D01*
X126147367Y-76457341D02*
X126361653Y-76385912D01*
X126361653Y-76385912D02*
X126504510Y-76385912D01*
X126504510Y-76385912D02*
X126718796Y-76457341D01*
X126718796Y-76457341D02*
X126790224Y-76528769D01*
X127290224Y-76385912D02*
X128218796Y-76385912D01*
X128218796Y-76385912D02*
X127718796Y-76957341D01*
X127718796Y-76957341D02*
X127933081Y-76957341D01*
X127933081Y-76957341D02*
X128075939Y-77028769D01*
X128075939Y-77028769D02*
X128147367Y-77100198D01*
X128147367Y-77100198D02*
X128218796Y-77243055D01*
X128218796Y-77243055D02*
X128218796Y-77600198D01*
X128218796Y-77600198D02*
X128147367Y-77743055D01*
X128147367Y-77743055D02*
X128075939Y-77814484D01*
X128075939Y-77814484D02*
X127933081Y-77885912D01*
X127933081Y-77885912D02*
X127504510Y-77885912D01*
X127504510Y-77885912D02*
X127361653Y-77814484D01*
X127361653Y-77814484D02*
X127290224Y-77743055D01*
X128861652Y-77885912D02*
X128861652Y-76885912D01*
X128861652Y-76385912D02*
X128790224Y-76457341D01*
X128790224Y-76457341D02*
X128861652Y-76528769D01*
X128861652Y-76528769D02*
X128933081Y-76457341D01*
X128933081Y-76457341D02*
X128861652Y-76385912D01*
X128861652Y-76385912D02*
X128861652Y-76528769D01*
X131575938Y-77743055D02*
X131504510Y-77814484D01*
X131504510Y-77814484D02*
X131290224Y-77885912D01*
X131290224Y-77885912D02*
X131147367Y-77885912D01*
X131147367Y-77885912D02*
X130933081Y-77814484D01*
X130933081Y-77814484D02*
X130790224Y-77671626D01*
X130790224Y-77671626D02*
X130718795Y-77528769D01*
X130718795Y-77528769D02*
X130647367Y-77243055D01*
X130647367Y-77243055D02*
X130647367Y-77028769D01*
X130647367Y-77028769D02*
X130718795Y-76743055D01*
X130718795Y-76743055D02*
X130790224Y-76600198D01*
X130790224Y-76600198D02*
X130933081Y-76457341D01*
X130933081Y-76457341D02*
X131147367Y-76385912D01*
X131147367Y-76385912D02*
X131290224Y-76385912D01*
X131290224Y-76385912D02*
X131504510Y-76457341D01*
X131504510Y-76457341D02*
X131575938Y-76528769D01*
X132861653Y-77885912D02*
X132861653Y-77100198D01*
X132861653Y-77100198D02*
X132790224Y-76957341D01*
X132790224Y-76957341D02*
X132647367Y-76885912D01*
X132647367Y-76885912D02*
X132361653Y-76885912D01*
X132361653Y-76885912D02*
X132218795Y-76957341D01*
X132861653Y-77814484D02*
X132718795Y-77885912D01*
X132718795Y-77885912D02*
X132361653Y-77885912D01*
X132361653Y-77885912D02*
X132218795Y-77814484D01*
X132218795Y-77814484D02*
X132147367Y-77671626D01*
X132147367Y-77671626D02*
X132147367Y-77528769D01*
X132147367Y-77528769D02*
X132218795Y-77385912D01*
X132218795Y-77385912D02*
X132361653Y-77314484D01*
X132361653Y-77314484D02*
X132718795Y-77314484D01*
X132718795Y-77314484D02*
X132861653Y-77243055D01*
X133575938Y-77885912D02*
X133575938Y-76885912D01*
X133575938Y-77171626D02*
X133647367Y-77028769D01*
X133647367Y-77028769D02*
X133718796Y-76957341D01*
X133718796Y-76957341D02*
X133861653Y-76885912D01*
X133861653Y-76885912D02*
X134004510Y-76885912D01*
X134290224Y-76885912D02*
X134861652Y-76885912D01*
X134504509Y-76385912D02*
X134504509Y-77671626D01*
X134504509Y-77671626D02*
X134575938Y-77814484D01*
X134575938Y-77814484D02*
X134718795Y-77885912D01*
X134718795Y-77885912D02*
X134861652Y-77885912D01*
X135933081Y-77814484D02*
X135790224Y-77885912D01*
X135790224Y-77885912D02*
X135504510Y-77885912D01*
X135504510Y-77885912D02*
X135361652Y-77814484D01*
X135361652Y-77814484D02*
X135290224Y-77671626D01*
X135290224Y-77671626D02*
X135290224Y-77100198D01*
X135290224Y-77100198D02*
X135361652Y-76957341D01*
X135361652Y-76957341D02*
X135504510Y-76885912D01*
X135504510Y-76885912D02*
X135790224Y-76885912D01*
X135790224Y-76885912D02*
X135933081Y-76957341D01*
X135933081Y-76957341D02*
X136004510Y-77100198D01*
X136004510Y-77100198D02*
X136004510Y-77243055D01*
X136004510Y-77243055D02*
X135290224Y-77385912D01*
X137790223Y-76885912D02*
X137790223Y-78385912D01*
X137790223Y-76957341D02*
X137933081Y-76885912D01*
X137933081Y-76885912D02*
X138218795Y-76885912D01*
X138218795Y-76885912D02*
X138361652Y-76957341D01*
X138361652Y-76957341D02*
X138433081Y-77028769D01*
X138433081Y-77028769D02*
X138504509Y-77171626D01*
X138504509Y-77171626D02*
X138504509Y-77600198D01*
X138504509Y-77600198D02*
X138433081Y-77743055D01*
X138433081Y-77743055D02*
X138361652Y-77814484D01*
X138361652Y-77814484D02*
X138218795Y-77885912D01*
X138218795Y-77885912D02*
X137933081Y-77885912D01*
X137933081Y-77885912D02*
X137790223Y-77814484D01*
X139147366Y-77885912D02*
X139147366Y-76885912D01*
X139147366Y-77171626D02*
X139218795Y-77028769D01*
X139218795Y-77028769D02*
X139290224Y-76957341D01*
X139290224Y-76957341D02*
X139433081Y-76885912D01*
X139433081Y-76885912D02*
X139575938Y-76885912D01*
X140290223Y-77885912D02*
X140147366Y-77814484D01*
X140147366Y-77814484D02*
X140075937Y-77743055D01*
X140075937Y-77743055D02*
X140004509Y-77600198D01*
X140004509Y-77600198D02*
X140004509Y-77171626D01*
X140004509Y-77171626D02*
X140075937Y-77028769D01*
X140075937Y-77028769D02*
X140147366Y-76957341D01*
X140147366Y-76957341D02*
X140290223Y-76885912D01*
X140290223Y-76885912D02*
X140504509Y-76885912D01*
X140504509Y-76885912D02*
X140647366Y-76957341D01*
X140647366Y-76957341D02*
X140718795Y-77028769D01*
X140718795Y-77028769D02*
X140790223Y-77171626D01*
X140790223Y-77171626D02*
X140790223Y-77600198D01*
X140790223Y-77600198D02*
X140718795Y-77743055D01*
X140718795Y-77743055D02*
X140647366Y-77814484D01*
X140647366Y-77814484D02*
X140504509Y-77885912D01*
X140504509Y-77885912D02*
X140290223Y-77885912D01*
X141218795Y-76885912D02*
X141790223Y-76885912D01*
X141433080Y-77885912D02*
X141433080Y-76600198D01*
X141433080Y-76600198D02*
X141504509Y-76457341D01*
X141504509Y-76457341D02*
X141647366Y-76385912D01*
X141647366Y-76385912D02*
X141790223Y-76385912D01*
X142861652Y-77814484D02*
X142718795Y-77885912D01*
X142718795Y-77885912D02*
X142433081Y-77885912D01*
X142433081Y-77885912D02*
X142290223Y-77814484D01*
X142290223Y-77814484D02*
X142218795Y-77671626D01*
X142218795Y-77671626D02*
X142218795Y-77100198D01*
X142218795Y-77100198D02*
X142290223Y-76957341D01*
X142290223Y-76957341D02*
X142433081Y-76885912D01*
X142433081Y-76885912D02*
X142718795Y-76885912D01*
X142718795Y-76885912D02*
X142861652Y-76957341D01*
X142861652Y-76957341D02*
X142933081Y-77100198D01*
X142933081Y-77100198D02*
X142933081Y-77243055D01*
X142933081Y-77243055D02*
X142218795Y-77385912D01*
X143504509Y-77814484D02*
X143647366Y-77885912D01*
X143647366Y-77885912D02*
X143933080Y-77885912D01*
X143933080Y-77885912D02*
X144075937Y-77814484D01*
X144075937Y-77814484D02*
X144147366Y-77671626D01*
X144147366Y-77671626D02*
X144147366Y-77600198D01*
X144147366Y-77600198D02*
X144075937Y-77457341D01*
X144075937Y-77457341D02*
X143933080Y-77385912D01*
X143933080Y-77385912D02*
X143718795Y-77385912D01*
X143718795Y-77385912D02*
X143575937Y-77314484D01*
X143575937Y-77314484D02*
X143504509Y-77171626D01*
X143504509Y-77171626D02*
X143504509Y-77100198D01*
X143504509Y-77100198D02*
X143575937Y-76957341D01*
X143575937Y-76957341D02*
X143718795Y-76885912D01*
X143718795Y-76885912D02*
X143933080Y-76885912D01*
X143933080Y-76885912D02*
X144075937Y-76957341D01*
X144718795Y-77814484D02*
X144861652Y-77885912D01*
X144861652Y-77885912D02*
X145147366Y-77885912D01*
X145147366Y-77885912D02*
X145290223Y-77814484D01*
X145290223Y-77814484D02*
X145361652Y-77671626D01*
X145361652Y-77671626D02*
X145361652Y-77600198D01*
X145361652Y-77600198D02*
X145290223Y-77457341D01*
X145290223Y-77457341D02*
X145147366Y-77385912D01*
X145147366Y-77385912D02*
X144933081Y-77385912D01*
X144933081Y-77385912D02*
X144790223Y-77314484D01*
X144790223Y-77314484D02*
X144718795Y-77171626D01*
X144718795Y-77171626D02*
X144718795Y-77100198D01*
X144718795Y-77100198D02*
X144790223Y-76957341D01*
X144790223Y-76957341D02*
X144933081Y-76885912D01*
X144933081Y-76885912D02*
X145147366Y-76885912D01*
X145147366Y-76885912D02*
X145290223Y-76957341D01*
X146004509Y-77885912D02*
X146004509Y-76885912D01*
X146004509Y-76385912D02*
X145933081Y-76457341D01*
X145933081Y-76457341D02*
X146004509Y-76528769D01*
X146004509Y-76528769D02*
X146075938Y-76457341D01*
X146075938Y-76457341D02*
X146004509Y-76385912D01*
X146004509Y-76385912D02*
X146004509Y-76528769D01*
X146933081Y-77885912D02*
X146790224Y-77814484D01*
X146790224Y-77814484D02*
X146718795Y-77743055D01*
X146718795Y-77743055D02*
X146647367Y-77600198D01*
X146647367Y-77600198D02*
X146647367Y-77171626D01*
X146647367Y-77171626D02*
X146718795Y-77028769D01*
X146718795Y-77028769D02*
X146790224Y-76957341D01*
X146790224Y-76957341D02*
X146933081Y-76885912D01*
X146933081Y-76885912D02*
X147147367Y-76885912D01*
X147147367Y-76885912D02*
X147290224Y-76957341D01*
X147290224Y-76957341D02*
X147361653Y-77028769D01*
X147361653Y-77028769D02*
X147433081Y-77171626D01*
X147433081Y-77171626D02*
X147433081Y-77600198D01*
X147433081Y-77600198D02*
X147361653Y-77743055D01*
X147361653Y-77743055D02*
X147290224Y-77814484D01*
X147290224Y-77814484D02*
X147147367Y-77885912D01*
X147147367Y-77885912D02*
X146933081Y-77885912D01*
X148075938Y-76885912D02*
X148075938Y-77885912D01*
X148075938Y-77028769D02*
X148147367Y-76957341D01*
X148147367Y-76957341D02*
X148290224Y-76885912D01*
X148290224Y-76885912D02*
X148504510Y-76885912D01*
X148504510Y-76885912D02*
X148647367Y-76957341D01*
X148647367Y-76957341D02*
X148718796Y-77100198D01*
X148718796Y-77100198D02*
X148718796Y-77885912D01*
X150004510Y-77814484D02*
X149861653Y-77885912D01*
X149861653Y-77885912D02*
X149575939Y-77885912D01*
X149575939Y-77885912D02*
X149433081Y-77814484D01*
X149433081Y-77814484D02*
X149361653Y-77671626D01*
X149361653Y-77671626D02*
X149361653Y-77100198D01*
X149361653Y-77100198D02*
X149433081Y-76957341D01*
X149433081Y-76957341D02*
X149575939Y-76885912D01*
X149575939Y-76885912D02*
X149861653Y-76885912D01*
X149861653Y-76885912D02*
X150004510Y-76957341D01*
X150004510Y-76957341D02*
X150075939Y-77100198D01*
X150075939Y-77100198D02*
X150075939Y-77243055D01*
X150075939Y-77243055D02*
X149361653Y-77385912D01*
X150933081Y-77885912D02*
X150790224Y-77814484D01*
X150790224Y-77814484D02*
X150718795Y-77671626D01*
X150718795Y-77671626D02*
X150718795Y-76385912D01*
X151718795Y-77885912D02*
X151575938Y-77814484D01*
X151575938Y-77814484D02*
X151504509Y-77671626D01*
X151504509Y-77671626D02*
X151504509Y-76385912D01*
X152861652Y-77814484D02*
X152718795Y-77885912D01*
X152718795Y-77885912D02*
X152433081Y-77885912D01*
X152433081Y-77885912D02*
X152290223Y-77814484D01*
X152290223Y-77814484D02*
X152218795Y-77671626D01*
X152218795Y-77671626D02*
X152218795Y-77100198D01*
X152218795Y-77100198D02*
X152290223Y-76957341D01*
X152290223Y-76957341D02*
X152433081Y-76885912D01*
X152433081Y-76885912D02*
X152718795Y-76885912D01*
X152718795Y-76885912D02*
X152861652Y-76957341D01*
X152861652Y-76957341D02*
X152933081Y-77100198D01*
X152933081Y-77100198D02*
X152933081Y-77243055D01*
X152933081Y-77243055D02*
X152218795Y-77385912D01*
X154647366Y-76314484D02*
X153361652Y-78243055D01*
X154933081Y-76385912D02*
X155790224Y-76385912D01*
X155361652Y-77885912D02*
X155361652Y-76385912D01*
X156861652Y-77814484D02*
X156718795Y-77885912D01*
X156718795Y-77885912D02*
X156433081Y-77885912D01*
X156433081Y-77885912D02*
X156290223Y-77814484D01*
X156290223Y-77814484D02*
X156218795Y-77671626D01*
X156218795Y-77671626D02*
X156218795Y-77100198D01*
X156218795Y-77100198D02*
X156290223Y-76957341D01*
X156290223Y-76957341D02*
X156433081Y-76885912D01*
X156433081Y-76885912D02*
X156718795Y-76885912D01*
X156718795Y-76885912D02*
X156861652Y-76957341D01*
X156861652Y-76957341D02*
X156933081Y-77100198D01*
X156933081Y-77100198D02*
X156933081Y-77243055D01*
X156933081Y-77243055D02*
X156218795Y-77385912D01*
X157361652Y-76885912D02*
X157933080Y-76885912D01*
X157575937Y-76385912D02*
X157575937Y-77671626D01*
X157575937Y-77671626D02*
X157647366Y-77814484D01*
X157647366Y-77814484D02*
X157790223Y-77885912D01*
X157790223Y-77885912D02*
X157933080Y-77885912D01*
X158433080Y-77885912D02*
X158433080Y-76885912D01*
X158433080Y-77171626D02*
X158504509Y-77028769D01*
X158504509Y-77028769D02*
X158575938Y-76957341D01*
X158575938Y-76957341D02*
X158718795Y-76885912D01*
X158718795Y-76885912D02*
X158861652Y-76885912D01*
X159361651Y-77885912D02*
X159361651Y-76885912D01*
X159361651Y-76385912D02*
X159290223Y-76457341D01*
X159290223Y-76457341D02*
X159361651Y-76528769D01*
X159361651Y-76528769D02*
X159433080Y-76457341D01*
X159433080Y-76457341D02*
X159361651Y-76385912D01*
X159361651Y-76385912D02*
X159361651Y-76528769D01*
X160004509Y-77814484D02*
X160147366Y-77885912D01*
X160147366Y-77885912D02*
X160433080Y-77885912D01*
X160433080Y-77885912D02*
X160575937Y-77814484D01*
X160575937Y-77814484D02*
X160647366Y-77671626D01*
X160647366Y-77671626D02*
X160647366Y-77600198D01*
X160647366Y-77600198D02*
X160575937Y-77457341D01*
X160575937Y-77457341D02*
X160433080Y-77385912D01*
X160433080Y-77385912D02*
X160218795Y-77385912D01*
X160218795Y-77385912D02*
X160075937Y-77314484D01*
X160075937Y-77314484D02*
X160004509Y-77171626D01*
X160004509Y-77171626D02*
X160004509Y-77100198D01*
X160004509Y-77100198D02*
X160075937Y-76957341D01*
X160075937Y-76957341D02*
X160218795Y-76885912D01*
X160218795Y-76885912D02*
X160433080Y-76885912D01*
X160433080Y-76885912D02*
X160575937Y-76957341D01*
X162861652Y-76385912D02*
X162861652Y-77457341D01*
X162861652Y-77457341D02*
X162790223Y-77671626D01*
X162790223Y-77671626D02*
X162647366Y-77814484D01*
X162647366Y-77814484D02*
X162433080Y-77885912D01*
X162433080Y-77885912D02*
X162290223Y-77885912D01*
X163575937Y-77885912D02*
X163575937Y-76885912D01*
X163575937Y-77171626D02*
X163647366Y-77028769D01*
X163647366Y-77028769D02*
X163718795Y-76957341D01*
X163718795Y-76957341D02*
X163861652Y-76885912D01*
X163861652Y-76885912D02*
X164004509Y-76885912D01*
X117790225Y-78800828D02*
X118290225Y-80300828D01*
X118290225Y-80300828D02*
X118790225Y-78800828D01*
X119861653Y-80229400D02*
X119718796Y-80300828D01*
X119718796Y-80300828D02*
X119433082Y-80300828D01*
X119433082Y-80300828D02*
X119290224Y-80229400D01*
X119290224Y-80229400D02*
X119218796Y-80086542D01*
X119218796Y-80086542D02*
X119218796Y-79515114D01*
X119218796Y-79515114D02*
X119290224Y-79372257D01*
X119290224Y-79372257D02*
X119433082Y-79300828D01*
X119433082Y-79300828D02*
X119718796Y-79300828D01*
X119718796Y-79300828D02*
X119861653Y-79372257D01*
X119861653Y-79372257D02*
X119933082Y-79515114D01*
X119933082Y-79515114D02*
X119933082Y-79657971D01*
X119933082Y-79657971D02*
X119218796Y-79800828D01*
X120575938Y-80300828D02*
X120575938Y-79300828D01*
X120575938Y-79586542D02*
X120647367Y-79443685D01*
X120647367Y-79443685D02*
X120718796Y-79372257D01*
X120718796Y-79372257D02*
X120861653Y-79300828D01*
X120861653Y-79300828D02*
X121004510Y-79300828D01*
X121433081Y-80229400D02*
X121575938Y-80300828D01*
X121575938Y-80300828D02*
X121861652Y-80300828D01*
X121861652Y-80300828D02*
X122004509Y-80229400D01*
X122004509Y-80229400D02*
X122075938Y-80086542D01*
X122075938Y-80086542D02*
X122075938Y-80015114D01*
X122075938Y-80015114D02*
X122004509Y-79872257D01*
X122004509Y-79872257D02*
X121861652Y-79800828D01*
X121861652Y-79800828D02*
X121647367Y-79800828D01*
X121647367Y-79800828D02*
X121504509Y-79729400D01*
X121504509Y-79729400D02*
X121433081Y-79586542D01*
X121433081Y-79586542D02*
X121433081Y-79515114D01*
X121433081Y-79515114D02*
X121504509Y-79372257D01*
X121504509Y-79372257D02*
X121647367Y-79300828D01*
X121647367Y-79300828D02*
X121861652Y-79300828D01*
X121861652Y-79300828D02*
X122004509Y-79372257D01*
X122718795Y-80300828D02*
X122718795Y-79300828D01*
X122718795Y-78800828D02*
X122647367Y-78872257D01*
X122647367Y-78872257D02*
X122718795Y-78943685D01*
X122718795Y-78943685D02*
X122790224Y-78872257D01*
X122790224Y-78872257D02*
X122718795Y-78800828D01*
X122718795Y-78800828D02*
X122718795Y-78943685D01*
X123647367Y-80300828D02*
X123504510Y-80229400D01*
X123504510Y-80229400D02*
X123433081Y-80157971D01*
X123433081Y-80157971D02*
X123361653Y-80015114D01*
X123361653Y-80015114D02*
X123361653Y-79586542D01*
X123361653Y-79586542D02*
X123433081Y-79443685D01*
X123433081Y-79443685D02*
X123504510Y-79372257D01*
X123504510Y-79372257D02*
X123647367Y-79300828D01*
X123647367Y-79300828D02*
X123861653Y-79300828D01*
X123861653Y-79300828D02*
X124004510Y-79372257D01*
X124004510Y-79372257D02*
X124075939Y-79443685D01*
X124075939Y-79443685D02*
X124147367Y-79586542D01*
X124147367Y-79586542D02*
X124147367Y-80015114D01*
X124147367Y-80015114D02*
X124075939Y-80157971D01*
X124075939Y-80157971D02*
X124004510Y-80229400D01*
X124004510Y-80229400D02*
X123861653Y-80300828D01*
X123861653Y-80300828D02*
X123647367Y-80300828D01*
X124790224Y-79300828D02*
X124790224Y-80300828D01*
X124790224Y-79443685D02*
X124861653Y-79372257D01*
X124861653Y-79372257D02*
X125004510Y-79300828D01*
X125004510Y-79300828D02*
X125218796Y-79300828D01*
X125218796Y-79300828D02*
X125361653Y-79372257D01*
X125361653Y-79372257D02*
X125433082Y-79515114D01*
X125433082Y-79515114D02*
X125433082Y-80300828D01*
X127290224Y-80157971D02*
X127361653Y-80229400D01*
X127361653Y-80229400D02*
X127290224Y-80300828D01*
X127290224Y-80300828D02*
X127218796Y-80229400D01*
X127218796Y-80229400D02*
X127290224Y-80157971D01*
X127290224Y-80157971D02*
X127290224Y-80300828D01*
X127290224Y-79372257D02*
X127361653Y-79443685D01*
X127361653Y-79443685D02*
X127290224Y-79515114D01*
X127290224Y-79515114D02*
X127218796Y-79443685D01*
X127218796Y-79443685D02*
X127290224Y-79372257D01*
X127290224Y-79372257D02*
X127290224Y-79515114D01*
X128933082Y-78800828D02*
X129433082Y-80300828D01*
X129433082Y-80300828D02*
X129933082Y-78800828D01*
X131218796Y-80300828D02*
X130361653Y-80300828D01*
X130790224Y-80300828D02*
X130790224Y-78800828D01*
X130790224Y-78800828D02*
X130647367Y-79015114D01*
X130647367Y-79015114D02*
X130504510Y-79157971D01*
X130504510Y-79157971D02*
X130361653Y-79229400D01*
D11*
%TO.C,U4*%
X187112500Y-95450000D03*
X187112500Y-94500000D03*
X187112500Y-93550000D03*
X184837500Y-93550000D03*
X184837500Y-95450000D03*
%TD*%
D12*
%TO.C,JP4*%
X155380000Y-82400000D03*
X152840000Y-82400000D03*
X150300000Y-82400000D03*
X147760000Y-82400000D03*
X145220000Y-82400000D03*
X142680000Y-82400000D03*
X140140000Y-82400000D03*
X137600000Y-82400000D03*
X135060000Y-82400000D03*
X132520000Y-82400000D03*
X129980000Y-82400000D03*
X127440000Y-82400000D03*
X124900000Y-82400000D03*
%TD*%
D13*
%TO.C,C1*%
X146550000Y-97150000D03*
X146550000Y-99050000D03*
%TD*%
D12*
%TO.C,JP1*%
X155507000Y-107800000D03*
X152967000Y-107800000D03*
X150427000Y-107800000D03*
X147887000Y-107800000D03*
X145347000Y-107800000D03*
X142807000Y-107800000D03*
X140267000Y-107800000D03*
X137727000Y-107800000D03*
X135187000Y-107800000D03*
X132647000Y-107800000D03*
X130107000Y-107800000D03*
X127567000Y-107800000D03*
X125027000Y-107800000D03*
%TD*%
D14*
%TO.C,U2*%
X136450000Y-90275000D03*
X136450000Y-90925000D03*
X136450000Y-91575000D03*
X136450000Y-92225000D03*
X136450000Y-92875000D03*
X136450000Y-93525000D03*
X136450000Y-94175000D03*
X136450000Y-94825000D03*
X136450000Y-95475000D03*
X136450000Y-96125000D03*
X136450000Y-96775000D03*
X136450000Y-97425000D03*
X136450000Y-98075000D03*
X136450000Y-98725000D03*
X143650000Y-98725000D03*
X143650000Y-98075000D03*
X143650000Y-97425000D03*
X143650000Y-96775000D03*
X143650000Y-96125000D03*
X143650000Y-95475000D03*
X143650000Y-94825000D03*
X143650000Y-94175000D03*
X143650000Y-93525000D03*
X143650000Y-92875000D03*
X143650000Y-92225000D03*
X143650000Y-91575000D03*
X143650000Y-90925000D03*
X143650000Y-90275000D03*
%TD*%
D15*
%TO.C,C3*%
X122050000Y-108100000D03*
X120150000Y-108100000D03*
%TD*%
D16*
%TO.C,J1*%
X194222500Y-98000000D03*
D17*
X194222500Y-95500000D03*
X194222500Y-93500000D03*
X194222500Y-91000000D03*
D18*
X196932500Y-101175000D03*
X196932500Y-87825000D03*
%TD*%
D13*
%TO.C,C2*%
X174050000Y-93650000D03*
X174050000Y-95550000D03*
%TD*%
D19*
%TO.C,R1*%
X136550000Y-85687500D03*
X136550000Y-87512500D03*
%TD*%
D20*
%TO.C,U1*%
X118550000Y-103250000D03*
X120050000Y-103250000D03*
X121550000Y-103250000D03*
X123050000Y-103250000D03*
X124550000Y-103250000D03*
X126050000Y-103250000D03*
X127550000Y-103250000D03*
X129050000Y-103250000D03*
X130550000Y-103250000D03*
X130550000Y-85750000D03*
X129050000Y-85750000D03*
X127550000Y-85750000D03*
X126050000Y-85750000D03*
X124550000Y-85750000D03*
X123050000Y-85750000D03*
X121550000Y-85750000D03*
X120050000Y-85750000D03*
X118550000Y-85750000D03*
D21*
X124200000Y-94640000D03*
X125300000Y-94640000D03*
X123650000Y-94090000D03*
X124750000Y-94090000D03*
X125850000Y-94090000D03*
X124200000Y-93540000D03*
D22*
X124750000Y-93540000D03*
D21*
X125300000Y-93540000D03*
X123650000Y-92990000D03*
X124750000Y-92990000D03*
X125850000Y-92990000D03*
X124200000Y-92440000D03*
X125300000Y-92440000D03*
%TD*%
M02*
