%TF.GenerationSoftware,KiCad,Pcbnew,9.0.4*%
%TF.CreationDate,2025-11-02T13:41:35-05:00*%
%TF.ProjectId,C3I_TETRIS,4333495f-5445-4545-9249-532e6b696361,rev?*%
%TF.SameCoordinates,Original*%
%TF.FileFunction,Paste,Top*%
%TF.FilePolarity,Positive*%
%FSLAX46Y46*%
G04 Gerber Fmt 4.6, Leading zero omitted, Abs format (unit mm)*
G04 Created by KiCad (PCBNEW 9.0.4) date 2025-11-02 13:41:35*
%MOMM*%
%LPD*%
G01*
G04 APERTURE LIST*
G04 Aperture macros list*
%AMRoundRect*
0 Rectangle with rounded corners*
0 $1 Rounding radius*
0 $2 $3 $4 $5 $6 $7 $8 $9 X,Y pos of 4 corners*
0 Add a 4 corners polygon primitive as box body*
4,1,4,$2,$3,$4,$5,$6,$7,$8,$9,$2,$3,0*
0 Add four circle primitives for the rounded corners*
1,1,$1+$1,$2,$3*
1,1,$1+$1,$4,$5*
1,1,$1+$1,$6,$7*
1,1,$1+$1,$8,$9*
0 Add four rect primitives between the rounded corners*
20,1,$1+$1,$2,$3,$4,$5,0*
20,1,$1+$1,$4,$5,$6,$7,0*
20,1,$1+$1,$6,$7,$8,$9,0*
20,1,$1+$1,$8,$9,$2,$3,0*%
G04 Aperture macros list end*
%ADD10RoundRect,0.150000X0.512500X0.150000X-0.512500X0.150000X-0.512500X-0.150000X0.512500X-0.150000X0*%
%ADD11RoundRect,0.250000X-0.475000X0.250000X-0.475000X-0.250000X0.475000X-0.250000X0.475000X0.250000X0*%
%ADD12R,1.750000X0.450000*%
%ADD13RoundRect,0.250000X0.250000X0.475000X-0.250000X0.475000X-0.250000X-0.475000X0.250000X-0.475000X0*%
%ADD14RoundRect,0.250000X-0.450000X0.262500X-0.450000X-0.262500X0.450000X-0.262500X0.450000X0.262500X0*%
%ADD15R,0.700000X0.700000*%
%ADD16R,0.900000X1.500000*%
G04 APERTURE END LIST*
D10*
%TO.C,U4*%
X187112500Y-95450000D03*
X187112500Y-94500000D03*
X187112500Y-93550000D03*
X184837500Y-93550000D03*
X184837500Y-95450000D03*
%TD*%
D11*
%TO.C,C1*%
X146550000Y-97150000D03*
X146550000Y-99050000D03*
%TD*%
D12*
%TO.C,U2*%
X136450000Y-90275000D03*
X136450000Y-90925000D03*
X136450000Y-91575000D03*
X136450000Y-92225000D03*
X136450000Y-92875000D03*
X136450000Y-93525000D03*
X136450000Y-94175000D03*
X136450000Y-94825000D03*
X136450000Y-95475000D03*
X136450000Y-96125000D03*
X136450000Y-96775000D03*
X136450000Y-97425000D03*
X136450000Y-98075000D03*
X136450000Y-98725000D03*
X143650000Y-98725000D03*
X143650000Y-98075000D03*
X143650000Y-97425000D03*
X143650000Y-96775000D03*
X143650000Y-96125000D03*
X143650000Y-95475000D03*
X143650000Y-94825000D03*
X143650000Y-94175000D03*
X143650000Y-93525000D03*
X143650000Y-92875000D03*
X143650000Y-92225000D03*
X143650000Y-91575000D03*
X143650000Y-90925000D03*
X143650000Y-90275000D03*
%TD*%
D13*
%TO.C,C3*%
X122050000Y-108100000D03*
X120150000Y-108100000D03*
%TD*%
D11*
%TO.C,C2*%
X174050000Y-93650000D03*
X174050000Y-95550000D03*
%TD*%
D14*
%TO.C,R1*%
X136550000Y-85687500D03*
X136550000Y-87512500D03*
%TD*%
D15*
%TO.C,U1*%
X123650000Y-94640000D03*
X124750000Y-94640000D03*
X125850000Y-94640000D03*
X123650000Y-93540000D03*
X124750000Y-93540000D03*
X125850000Y-93540000D03*
X123650000Y-92440000D03*
X124750000Y-92440000D03*
X125850000Y-92440000D03*
D16*
X118550000Y-103250000D03*
X120050000Y-103250000D03*
X121550000Y-103250000D03*
X123050000Y-103250000D03*
X124550000Y-103250000D03*
X126050000Y-103250000D03*
X127550000Y-103250000D03*
X129050000Y-103250000D03*
X130550000Y-103250000D03*
X130550000Y-85750000D03*
X129050000Y-85750000D03*
X127550000Y-85750000D03*
X126050000Y-85750000D03*
X124550000Y-85750000D03*
X123050000Y-85750000D03*
X121550000Y-85750000D03*
X120050000Y-85750000D03*
X118550000Y-85750000D03*
%TD*%
M02*
