%TF.GenerationSoftware,KiCad,Pcbnew,9.0.4*%
%TF.CreationDate,2025-11-02T13:41:35-05:00*%
%TF.ProjectId,C3I_TETRIS,4333495f-5445-4545-9249-532e6b696361,rev?*%
%TF.SameCoordinates,Original*%
%TF.FileFunction,Legend,Bot*%
%TF.FilePolarity,Positive*%
%FSLAX46Y46*%
G04 Gerber Fmt 4.6, Leading zero omitted, Abs format (unit mm)*
G04 Created by KiCad (PCBNEW 9.0.4) date 2025-11-02 13:41:35*
%MOMM*%
%LPD*%
G01*
G04 APERTURE LIST*
%ADD10C,0.050000*%
%ADD11C,0.132080*%
%ADD12C,0.146304*%
%ADD13C,0.150000*%
%ADD14C,0.120000*%
G04 APERTURE END LIST*
D10*
X121090000Y-109070000D02*
X159190000Y-109070000D01*
X118550000Y-83670000D02*
X118550000Y-106530000D01*
X161730000Y-106530000D02*
X161730000Y-83670000D01*
X159190000Y-81130000D02*
X121090000Y-81130000D01*
D11*
X142427451Y-84448687D02*
X142469543Y-84490779D01*
X142469543Y-84490779D02*
X142553726Y-84532870D01*
X142553726Y-84532870D02*
X142764183Y-84532870D01*
X142764183Y-84532870D02*
X142848366Y-84490779D01*
X142848366Y-84490779D02*
X142890457Y-84448687D01*
X142890457Y-84448687D02*
X142932548Y-84364504D01*
X142932548Y-84364504D02*
X142932548Y-84280322D01*
X142932548Y-84280322D02*
X142890457Y-84154047D01*
X142890457Y-84154047D02*
X142385360Y-83648950D01*
X142385360Y-83648950D02*
X142932548Y-83648950D01*
X135270457Y-84532870D02*
X134849543Y-84532870D01*
X134849543Y-84532870D02*
X134807451Y-84111956D01*
X134807451Y-84111956D02*
X134849543Y-84154047D01*
X134849543Y-84154047D02*
X134933726Y-84196139D01*
X134933726Y-84196139D02*
X135144183Y-84196139D01*
X135144183Y-84196139D02*
X135228366Y-84154047D01*
X135228366Y-84154047D02*
X135270457Y-84111956D01*
X135270457Y-84111956D02*
X135312548Y-84027773D01*
X135312548Y-84027773D02*
X135312548Y-83817316D01*
X135312548Y-83817316D02*
X135270457Y-83733133D01*
X135270457Y-83733133D02*
X135228366Y-83691042D01*
X135228366Y-83691042D02*
X135144183Y-83648950D01*
X135144183Y-83648950D02*
X134933726Y-83648950D01*
X134933726Y-83648950D02*
X134849543Y-83691042D01*
X134849543Y-83691042D02*
X134807451Y-83733133D01*
X124731634Y-83648950D02*
X124900000Y-83648950D01*
X124900000Y-83648950D02*
X124984183Y-83691042D01*
X124984183Y-83691042D02*
X125026274Y-83733133D01*
X125026274Y-83733133D02*
X125110457Y-83859407D01*
X125110457Y-83859407D02*
X125152548Y-84027773D01*
X125152548Y-84027773D02*
X125152548Y-84364504D01*
X125152548Y-84364504D02*
X125110457Y-84448687D01*
X125110457Y-84448687D02*
X125068366Y-84490779D01*
X125068366Y-84490779D02*
X124984183Y-84532870D01*
X124984183Y-84532870D02*
X124815817Y-84532870D01*
X124815817Y-84532870D02*
X124731634Y-84490779D01*
X124731634Y-84490779D02*
X124689543Y-84448687D01*
X124689543Y-84448687D02*
X124647451Y-84364504D01*
X124647451Y-84364504D02*
X124647451Y-84154047D01*
X124647451Y-84154047D02*
X124689543Y-84069864D01*
X124689543Y-84069864D02*
X124731634Y-84027773D01*
X124731634Y-84027773D02*
X124815817Y-83985682D01*
X124815817Y-83985682D02*
X124984183Y-83985682D01*
X124984183Y-83985682D02*
X125068366Y-84027773D01*
X125068366Y-84027773D02*
X125110457Y-84069864D01*
X125110457Y-84069864D02*
X125152548Y-84154047D01*
X139845360Y-84532870D02*
X140392548Y-84532870D01*
X140392548Y-84532870D02*
X140097908Y-84196139D01*
X140097908Y-84196139D02*
X140224183Y-84196139D01*
X140224183Y-84196139D02*
X140308366Y-84154047D01*
X140308366Y-84154047D02*
X140350457Y-84111956D01*
X140350457Y-84111956D02*
X140392548Y-84027773D01*
X140392548Y-84027773D02*
X140392548Y-83817316D01*
X140392548Y-83817316D02*
X140350457Y-83733133D01*
X140350457Y-83733133D02*
X140308366Y-83691042D01*
X140308366Y-83691042D02*
X140224183Y-83648950D01*
X140224183Y-83648950D02*
X139971634Y-83648950D01*
X139971634Y-83648950D02*
X139887451Y-83691042D01*
X139887451Y-83691042D02*
X139845360Y-83733133D01*
X129685360Y-84532870D02*
X130274640Y-84532870D01*
X130274640Y-84532870D02*
X129895817Y-83648950D01*
X135312734Y-105701550D02*
X135481100Y-105701550D01*
X135481100Y-105701550D02*
X135565283Y-105743642D01*
X135565283Y-105743642D02*
X135607374Y-105785733D01*
X135607374Y-105785733D02*
X135691557Y-105912007D01*
X135691557Y-105912007D02*
X135733648Y-106080373D01*
X135733648Y-106080373D02*
X135733648Y-106417104D01*
X135733648Y-106417104D02*
X135691557Y-106501287D01*
X135691557Y-106501287D02*
X135649466Y-106543379D01*
X135649466Y-106543379D02*
X135565283Y-106585470D01*
X135565283Y-106585470D02*
X135396917Y-106585470D01*
X135396917Y-106585470D02*
X135312734Y-106543379D01*
X135312734Y-106543379D02*
X135270643Y-106501287D01*
X135270643Y-106501287D02*
X135228551Y-106417104D01*
X135228551Y-106417104D02*
X135228551Y-106206647D01*
X135228551Y-106206647D02*
X135270643Y-106122464D01*
X135270643Y-106122464D02*
X135312734Y-106080373D01*
X135312734Y-106080373D02*
X135396917Y-106038282D01*
X135396917Y-106038282D02*
X135565283Y-106038282D01*
X135565283Y-106038282D02*
X135649466Y-106080373D01*
X135649466Y-106080373D02*
X135691557Y-106122464D01*
X135691557Y-106122464D02*
X135733648Y-106206647D01*
X140266460Y-106585470D02*
X140855740Y-106585470D01*
X140855740Y-106585470D02*
X140476917Y-105701550D01*
X148349466Y-106290830D02*
X148349466Y-105701550D01*
X148139008Y-106627562D02*
X147928551Y-105996190D01*
X147928551Y-105996190D02*
X148475740Y-105996190D01*
X132688366Y-84532870D02*
X132520000Y-84532870D01*
X132520000Y-84532870D02*
X132435817Y-84490779D01*
X132435817Y-84490779D02*
X132393726Y-84448687D01*
X132393726Y-84448687D02*
X132309543Y-84322413D01*
X132309543Y-84322413D02*
X132267451Y-84154047D01*
X132267451Y-84154047D02*
X132267451Y-83817316D01*
X132267451Y-83817316D02*
X132309543Y-83733133D01*
X132309543Y-83733133D02*
X132351634Y-83691042D01*
X132351634Y-83691042D02*
X132435817Y-83648950D01*
X132435817Y-83648950D02*
X132604183Y-83648950D01*
X132604183Y-83648950D02*
X132688366Y-83691042D01*
X132688366Y-83691042D02*
X132730457Y-83733133D01*
X132730457Y-83733133D02*
X132772548Y-83817316D01*
X132772548Y-83817316D02*
X132772548Y-84027773D01*
X132772548Y-84027773D02*
X132730457Y-84111956D01*
X132730457Y-84111956D02*
X132688366Y-84154047D01*
X132688366Y-84154047D02*
X132604183Y-84196139D01*
X132604183Y-84196139D02*
X132435817Y-84196139D01*
X132435817Y-84196139D02*
X132351634Y-84154047D01*
X132351634Y-84154047D02*
X132309543Y-84111956D01*
X132309543Y-84111956D02*
X132267451Y-84027773D01*
X145599548Y-83648950D02*
X145094451Y-83648950D01*
X145347000Y-83648950D02*
X145347000Y-84532870D01*
X145347000Y-84532870D02*
X145262817Y-84406596D01*
X145262817Y-84406596D02*
X145178634Y-84322413D01*
X145178634Y-84322413D02*
X145094451Y-84280322D01*
X127355817Y-84154047D02*
X127271634Y-84196139D01*
X127271634Y-84196139D02*
X127229543Y-84238230D01*
X127229543Y-84238230D02*
X127187451Y-84322413D01*
X127187451Y-84322413D02*
X127187451Y-84364504D01*
X127187451Y-84364504D02*
X127229543Y-84448687D01*
X127229543Y-84448687D02*
X127271634Y-84490779D01*
X127271634Y-84490779D02*
X127355817Y-84532870D01*
X127355817Y-84532870D02*
X127524183Y-84532870D01*
X127524183Y-84532870D02*
X127608366Y-84490779D01*
X127608366Y-84490779D02*
X127650457Y-84448687D01*
X127650457Y-84448687D02*
X127692548Y-84364504D01*
X127692548Y-84364504D02*
X127692548Y-84322413D01*
X127692548Y-84322413D02*
X127650457Y-84238230D01*
X127650457Y-84238230D02*
X127608366Y-84196139D01*
X127608366Y-84196139D02*
X127524183Y-84154047D01*
X127524183Y-84154047D02*
X127355817Y-84154047D01*
X127355817Y-84154047D02*
X127271634Y-84111956D01*
X127271634Y-84111956D02*
X127229543Y-84069864D01*
X127229543Y-84069864D02*
X127187451Y-83985682D01*
X127187451Y-83985682D02*
X127187451Y-83817316D01*
X127187451Y-83817316D02*
X127229543Y-83733133D01*
X127229543Y-83733133D02*
X127271634Y-83691042D01*
X127271634Y-83691042D02*
X127355817Y-83648950D01*
X127355817Y-83648950D02*
X127524183Y-83648950D01*
X127524183Y-83648950D02*
X127608366Y-83691042D01*
X127608366Y-83691042D02*
X127650457Y-83733133D01*
X127650457Y-83733133D02*
X127692548Y-83817316D01*
X127692548Y-83817316D02*
X127692548Y-83985682D01*
X127692548Y-83985682D02*
X127650457Y-84069864D01*
X127650457Y-84069864D02*
X127608366Y-84111956D01*
X127608366Y-84111956D02*
X127524183Y-84154047D01*
X145851557Y-106585470D02*
X145430643Y-106585470D01*
X145430643Y-106585470D02*
X145388551Y-106164556D01*
X145388551Y-106164556D02*
X145430643Y-106206647D01*
X145430643Y-106206647D02*
X145514826Y-106248739D01*
X145514826Y-106248739D02*
X145725283Y-106248739D01*
X145725283Y-106248739D02*
X145809466Y-106206647D01*
X145809466Y-106206647D02*
X145851557Y-106164556D01*
X145851557Y-106164556D02*
X145893648Y-106080373D01*
X145893648Y-106080373D02*
X145893648Y-105869916D01*
X145893648Y-105869916D02*
X145851557Y-105785733D01*
X145851557Y-105785733D02*
X145809466Y-105743642D01*
X145809466Y-105743642D02*
X145725283Y-105701550D01*
X145725283Y-105701550D02*
X145514826Y-105701550D01*
X145514826Y-105701550D02*
X145430643Y-105743642D01*
X145430643Y-105743642D02*
X145388551Y-105785733D01*
X137936917Y-106206647D02*
X137852734Y-106248739D01*
X137852734Y-106248739D02*
X137810643Y-106290830D01*
X137810643Y-106290830D02*
X137768551Y-106375013D01*
X137768551Y-106375013D02*
X137768551Y-106417104D01*
X137768551Y-106417104D02*
X137810643Y-106501287D01*
X137810643Y-106501287D02*
X137852734Y-106543379D01*
X137852734Y-106543379D02*
X137936917Y-106585470D01*
X137936917Y-106585470D02*
X138105283Y-106585470D01*
X138105283Y-106585470D02*
X138189466Y-106543379D01*
X138189466Y-106543379D02*
X138231557Y-106501287D01*
X138231557Y-106501287D02*
X138273648Y-106417104D01*
X138273648Y-106417104D02*
X138273648Y-106375013D01*
X138273648Y-106375013D02*
X138231557Y-106290830D01*
X138231557Y-106290830D02*
X138189466Y-106248739D01*
X138189466Y-106248739D02*
X138105283Y-106206647D01*
X138105283Y-106206647D02*
X137936917Y-106206647D01*
X137936917Y-106206647D02*
X137852734Y-106164556D01*
X137852734Y-106164556D02*
X137810643Y-106122464D01*
X137810643Y-106122464D02*
X137768551Y-106038282D01*
X137768551Y-106038282D02*
X137768551Y-105869916D01*
X137768551Y-105869916D02*
X137810643Y-105785733D01*
X137810643Y-105785733D02*
X137852734Y-105743642D01*
X137852734Y-105743642D02*
X137936917Y-105701550D01*
X137936917Y-105701550D02*
X138105283Y-105701550D01*
X138105283Y-105701550D02*
X138189466Y-105743642D01*
X138189466Y-105743642D02*
X138231557Y-105785733D01*
X138231557Y-105785733D02*
X138273648Y-105869916D01*
X138273648Y-105869916D02*
X138273648Y-106038282D01*
X138273648Y-106038282D02*
X138231557Y-106122464D01*
X138231557Y-106122464D02*
X138189466Y-106164556D01*
X138189466Y-106164556D02*
X138105283Y-106206647D01*
X150426460Y-106585470D02*
X150973648Y-106585470D01*
X150973648Y-106585470D02*
X150679008Y-106248739D01*
X150679008Y-106248739D02*
X150805283Y-106248739D01*
X150805283Y-106248739D02*
X150889466Y-106206647D01*
X150889466Y-106206647D02*
X150931557Y-106164556D01*
X150931557Y-106164556D02*
X150973648Y-106080373D01*
X150973648Y-106080373D02*
X150973648Y-105869916D01*
X150973648Y-105869916D02*
X150931557Y-105785733D01*
X150931557Y-105785733D02*
X150889466Y-105743642D01*
X150889466Y-105743642D02*
X150805283Y-105701550D01*
X150805283Y-105701550D02*
X150552734Y-105701550D01*
X150552734Y-105701550D02*
X150468551Y-105743642D01*
X150468551Y-105743642D02*
X150426460Y-105785733D01*
X137768366Y-84238230D02*
X137768366Y-83648950D01*
X137557908Y-84574962D02*
X137347451Y-83943590D01*
X137347451Y-83943590D02*
X137894640Y-83943590D01*
X153008551Y-106501287D02*
X153050643Y-106543379D01*
X153050643Y-106543379D02*
X153134826Y-106585470D01*
X153134826Y-106585470D02*
X153345283Y-106585470D01*
X153345283Y-106585470D02*
X153429466Y-106543379D01*
X153429466Y-106543379D02*
X153471557Y-106501287D01*
X153471557Y-106501287D02*
X153513648Y-106417104D01*
X153513648Y-106417104D02*
X153513648Y-106332922D01*
X153513648Y-106332922D02*
X153471557Y-106206647D01*
X153471557Y-106206647D02*
X152966460Y-105701550D01*
X152966460Y-105701550D02*
X153513648Y-105701550D01*
X143269466Y-106585470D02*
X143101100Y-106585470D01*
X143101100Y-106585470D02*
X143016917Y-106543379D01*
X143016917Y-106543379D02*
X142974826Y-106501287D01*
X142974826Y-106501287D02*
X142890643Y-106375013D01*
X142890643Y-106375013D02*
X142848551Y-106206647D01*
X142848551Y-106206647D02*
X142848551Y-105869916D01*
X142848551Y-105869916D02*
X142890643Y-105785733D01*
X142890643Y-105785733D02*
X142932734Y-105743642D01*
X142932734Y-105743642D02*
X143016917Y-105701550D01*
X143016917Y-105701550D02*
X143185283Y-105701550D01*
X143185283Y-105701550D02*
X143269466Y-105743642D01*
X143269466Y-105743642D02*
X143311557Y-105785733D01*
X143311557Y-105785733D02*
X143353648Y-105869916D01*
X143353648Y-105869916D02*
X143353648Y-106080373D01*
X143353648Y-106080373D02*
X143311557Y-106164556D01*
X143311557Y-106164556D02*
X143269466Y-106206647D01*
X143269466Y-106206647D02*
X143185283Y-106248739D01*
X143185283Y-106248739D02*
X143016917Y-106248739D01*
X143016917Y-106248739D02*
X142932734Y-106206647D01*
X142932734Y-106206647D02*
X142890643Y-106164556D01*
X142890643Y-106164556D02*
X142848551Y-106080373D01*
X156180648Y-105701550D02*
X155675551Y-105701550D01*
X155928100Y-105701550D02*
X155928100Y-106585470D01*
X155928100Y-106585470D02*
X155843917Y-106459196D01*
X155843917Y-106459196D02*
X155759734Y-106375013D01*
X155759734Y-106375013D02*
X155675551Y-106332922D01*
D12*
X155445368Y-110384470D02*
X155445368Y-109908401D01*
X155445368Y-109908401D02*
X155413631Y-109813187D01*
X155413631Y-109813187D02*
X155350155Y-109749712D01*
X155350155Y-109749712D02*
X155254941Y-109717974D01*
X155254941Y-109717974D02*
X155191465Y-109717974D01*
X155762747Y-109717974D02*
X155762747Y-110384470D01*
X155762747Y-110384470D02*
X156016650Y-110384470D01*
X156016650Y-110384470D02*
X156080126Y-110352732D01*
X156080126Y-110352732D02*
X156111864Y-110320994D01*
X156111864Y-110320994D02*
X156143602Y-110257518D01*
X156143602Y-110257518D02*
X156143602Y-110162304D01*
X156143602Y-110162304D02*
X156111864Y-110098828D01*
X156111864Y-110098828D02*
X156080126Y-110067091D01*
X156080126Y-110067091D02*
X156016650Y-110035353D01*
X156016650Y-110035353D02*
X155762747Y-110035353D01*
X156778360Y-109717974D02*
X156397505Y-109717974D01*
X156587933Y-109717974D02*
X156587933Y-110384470D01*
X156587933Y-110384470D02*
X156524457Y-110289256D01*
X156524457Y-110289256D02*
X156460981Y-110225780D01*
X156460981Y-110225780D02*
X156397505Y-110194042D01*
D13*
X182157200Y-93166667D02*
X182204819Y-93309524D01*
X182204819Y-93309524D02*
X182204819Y-93547619D01*
X182204819Y-93547619D02*
X182157200Y-93642857D01*
X182157200Y-93642857D02*
X182109580Y-93690476D01*
X182109580Y-93690476D02*
X182014342Y-93738095D01*
X182014342Y-93738095D02*
X181919104Y-93738095D01*
X181919104Y-93738095D02*
X181823866Y-93690476D01*
X181823866Y-93690476D02*
X181776247Y-93642857D01*
X181776247Y-93642857D02*
X181728628Y-93547619D01*
X181728628Y-93547619D02*
X181681009Y-93357143D01*
X181681009Y-93357143D02*
X181633390Y-93261905D01*
X181633390Y-93261905D02*
X181585771Y-93214286D01*
X181585771Y-93214286D02*
X181490533Y-93166667D01*
X181490533Y-93166667D02*
X181395295Y-93166667D01*
X181395295Y-93166667D02*
X181300057Y-93214286D01*
X181300057Y-93214286D02*
X181252438Y-93261905D01*
X181252438Y-93261905D02*
X181204819Y-93357143D01*
X181204819Y-93357143D02*
X181204819Y-93595238D01*
X181204819Y-93595238D02*
X181252438Y-93738095D01*
X181204819Y-94071429D02*
X182204819Y-94309524D01*
X182204819Y-94309524D02*
X181490533Y-94500000D01*
X181490533Y-94500000D02*
X182204819Y-94690476D01*
X182204819Y-94690476D02*
X181204819Y-94928572D01*
X181300057Y-95261905D02*
X181252438Y-95309524D01*
X181252438Y-95309524D02*
X181204819Y-95404762D01*
X181204819Y-95404762D02*
X181204819Y-95642857D01*
X181204819Y-95642857D02*
X181252438Y-95738095D01*
X181252438Y-95738095D02*
X181300057Y-95785714D01*
X181300057Y-95785714D02*
X181395295Y-95833333D01*
X181395295Y-95833333D02*
X181490533Y-95833333D01*
X181490533Y-95833333D02*
X181633390Y-95785714D01*
X181633390Y-95785714D02*
X182204819Y-95214286D01*
X182204819Y-95214286D02*
X182204819Y-95833333D01*
X179104819Y-81933333D02*
X178628628Y-81600000D01*
X179104819Y-81361905D02*
X178104819Y-81361905D01*
X178104819Y-81361905D02*
X178104819Y-81742857D01*
X178104819Y-81742857D02*
X178152438Y-81838095D01*
X178152438Y-81838095D02*
X178200057Y-81885714D01*
X178200057Y-81885714D02*
X178295295Y-81933333D01*
X178295295Y-81933333D02*
X178438152Y-81933333D01*
X178438152Y-81933333D02*
X178533390Y-81885714D01*
X178533390Y-81885714D02*
X178581009Y-81838095D01*
X178581009Y-81838095D02*
X178628628Y-81742857D01*
X178628628Y-81742857D02*
X178628628Y-81361905D01*
X178104819Y-82790476D02*
X178104819Y-82600000D01*
X178104819Y-82600000D02*
X178152438Y-82504762D01*
X178152438Y-82504762D02*
X178200057Y-82457143D01*
X178200057Y-82457143D02*
X178342914Y-82361905D01*
X178342914Y-82361905D02*
X178533390Y-82314286D01*
X178533390Y-82314286D02*
X178914342Y-82314286D01*
X178914342Y-82314286D02*
X179009580Y-82361905D01*
X179009580Y-82361905D02*
X179057200Y-82409524D01*
X179057200Y-82409524D02*
X179104819Y-82504762D01*
X179104819Y-82504762D02*
X179104819Y-82695238D01*
X179104819Y-82695238D02*
X179057200Y-82790476D01*
X179057200Y-82790476D02*
X179009580Y-82838095D01*
X179009580Y-82838095D02*
X178914342Y-82885714D01*
X178914342Y-82885714D02*
X178676247Y-82885714D01*
X178676247Y-82885714D02*
X178581009Y-82838095D01*
X178581009Y-82838095D02*
X178533390Y-82790476D01*
X178533390Y-82790476D02*
X178485771Y-82695238D01*
X178485771Y-82695238D02*
X178485771Y-82504762D01*
X178485771Y-82504762D02*
X178533390Y-82409524D01*
X178533390Y-82409524D02*
X178581009Y-82361905D01*
X178581009Y-82361905D02*
X178676247Y-82314286D01*
X179104819Y-112733333D02*
X178628628Y-112400000D01*
X179104819Y-112161905D02*
X178104819Y-112161905D01*
X178104819Y-112161905D02*
X178104819Y-112542857D01*
X178104819Y-112542857D02*
X178152438Y-112638095D01*
X178152438Y-112638095D02*
X178200057Y-112685714D01*
X178200057Y-112685714D02*
X178295295Y-112733333D01*
X178295295Y-112733333D02*
X178438152Y-112733333D01*
X178438152Y-112733333D02*
X178533390Y-112685714D01*
X178533390Y-112685714D02*
X178581009Y-112638095D01*
X178581009Y-112638095D02*
X178628628Y-112542857D01*
X178628628Y-112542857D02*
X178628628Y-112161905D01*
X178533390Y-113304762D02*
X178485771Y-113209524D01*
X178485771Y-113209524D02*
X178438152Y-113161905D01*
X178438152Y-113161905D02*
X178342914Y-113114286D01*
X178342914Y-113114286D02*
X178295295Y-113114286D01*
X178295295Y-113114286D02*
X178200057Y-113161905D01*
X178200057Y-113161905D02*
X178152438Y-113209524D01*
X178152438Y-113209524D02*
X178104819Y-113304762D01*
X178104819Y-113304762D02*
X178104819Y-113495238D01*
X178104819Y-113495238D02*
X178152438Y-113590476D01*
X178152438Y-113590476D02*
X178200057Y-113638095D01*
X178200057Y-113638095D02*
X178295295Y-113685714D01*
X178295295Y-113685714D02*
X178342914Y-113685714D01*
X178342914Y-113685714D02*
X178438152Y-113638095D01*
X178438152Y-113638095D02*
X178485771Y-113590476D01*
X178485771Y-113590476D02*
X178533390Y-113495238D01*
X178533390Y-113495238D02*
X178533390Y-113304762D01*
X178533390Y-113304762D02*
X178581009Y-113209524D01*
X178581009Y-113209524D02*
X178628628Y-113161905D01*
X178628628Y-113161905D02*
X178723866Y-113114286D01*
X178723866Y-113114286D02*
X178914342Y-113114286D01*
X178914342Y-113114286D02*
X179009580Y-113161905D01*
X179009580Y-113161905D02*
X179057200Y-113209524D01*
X179057200Y-113209524D02*
X179104819Y-113304762D01*
X179104819Y-113304762D02*
X179104819Y-113495238D01*
X179104819Y-113495238D02*
X179057200Y-113590476D01*
X179057200Y-113590476D02*
X179009580Y-113638095D01*
X179009580Y-113638095D02*
X178914342Y-113685714D01*
X178914342Y-113685714D02*
X178723866Y-113685714D01*
X178723866Y-113685714D02*
X178628628Y-113638095D01*
X178628628Y-113638095D02*
X178581009Y-113590476D01*
X178581009Y-113590476D02*
X178533390Y-113495238D01*
X178816666Y-97954819D02*
X179149999Y-97478628D01*
X179388094Y-97954819D02*
X179388094Y-96954819D01*
X179388094Y-96954819D02*
X179007142Y-96954819D01*
X179007142Y-96954819D02*
X178911904Y-97002438D01*
X178911904Y-97002438D02*
X178864285Y-97050057D01*
X178864285Y-97050057D02*
X178816666Y-97145295D01*
X178816666Y-97145295D02*
X178816666Y-97288152D01*
X178816666Y-97288152D02*
X178864285Y-97383390D01*
X178864285Y-97383390D02*
X178911904Y-97431009D01*
X178911904Y-97431009D02*
X179007142Y-97478628D01*
X179007142Y-97478628D02*
X179388094Y-97478628D01*
X178483332Y-96954819D02*
X177816666Y-96954819D01*
X177816666Y-96954819D02*
X178245237Y-97954819D01*
X182157200Y-108566667D02*
X182204819Y-108709524D01*
X182204819Y-108709524D02*
X182204819Y-108947619D01*
X182204819Y-108947619D02*
X182157200Y-109042857D01*
X182157200Y-109042857D02*
X182109580Y-109090476D01*
X182109580Y-109090476D02*
X182014342Y-109138095D01*
X182014342Y-109138095D02*
X181919104Y-109138095D01*
X181919104Y-109138095D02*
X181823866Y-109090476D01*
X181823866Y-109090476D02*
X181776247Y-109042857D01*
X181776247Y-109042857D02*
X181728628Y-108947619D01*
X181728628Y-108947619D02*
X181681009Y-108757143D01*
X181681009Y-108757143D02*
X181633390Y-108661905D01*
X181633390Y-108661905D02*
X181585771Y-108614286D01*
X181585771Y-108614286D02*
X181490533Y-108566667D01*
X181490533Y-108566667D02*
X181395295Y-108566667D01*
X181395295Y-108566667D02*
X181300057Y-108614286D01*
X181300057Y-108614286D02*
X181252438Y-108661905D01*
X181252438Y-108661905D02*
X181204819Y-108757143D01*
X181204819Y-108757143D02*
X181204819Y-108995238D01*
X181204819Y-108995238D02*
X181252438Y-109138095D01*
X181204819Y-109471429D02*
X182204819Y-109709524D01*
X182204819Y-109709524D02*
X181490533Y-109900000D01*
X181490533Y-109900000D02*
X182204819Y-110090476D01*
X182204819Y-110090476D02*
X181204819Y-110328572D01*
X181204819Y-110614286D02*
X181204819Y-111233333D01*
X181204819Y-111233333D02*
X181585771Y-110900000D01*
X181585771Y-110900000D02*
X181585771Y-111042857D01*
X181585771Y-111042857D02*
X181633390Y-111138095D01*
X181633390Y-111138095D02*
X181681009Y-111185714D01*
X181681009Y-111185714D02*
X181776247Y-111233333D01*
X181776247Y-111233333D02*
X182014342Y-111233333D01*
X182014342Y-111233333D02*
X182109580Y-111185714D01*
X182109580Y-111185714D02*
X182157200Y-111138095D01*
X182157200Y-111138095D02*
X182204819Y-111042857D01*
X182204819Y-111042857D02*
X182204819Y-110757143D01*
X182204819Y-110757143D02*
X182157200Y-110661905D01*
X182157200Y-110661905D02*
X182109580Y-110614286D01*
X182157200Y-77766667D02*
X182204819Y-77909524D01*
X182204819Y-77909524D02*
X182204819Y-78147619D01*
X182204819Y-78147619D02*
X182157200Y-78242857D01*
X182157200Y-78242857D02*
X182109580Y-78290476D01*
X182109580Y-78290476D02*
X182014342Y-78338095D01*
X182014342Y-78338095D02*
X181919104Y-78338095D01*
X181919104Y-78338095D02*
X181823866Y-78290476D01*
X181823866Y-78290476D02*
X181776247Y-78242857D01*
X181776247Y-78242857D02*
X181728628Y-78147619D01*
X181728628Y-78147619D02*
X181681009Y-77957143D01*
X181681009Y-77957143D02*
X181633390Y-77861905D01*
X181633390Y-77861905D02*
X181585771Y-77814286D01*
X181585771Y-77814286D02*
X181490533Y-77766667D01*
X181490533Y-77766667D02*
X181395295Y-77766667D01*
X181395295Y-77766667D02*
X181300057Y-77814286D01*
X181300057Y-77814286D02*
X181252438Y-77861905D01*
X181252438Y-77861905D02*
X181204819Y-77957143D01*
X181204819Y-77957143D02*
X181204819Y-78195238D01*
X181204819Y-78195238D02*
X181252438Y-78338095D01*
X181204819Y-78671429D02*
X182204819Y-78909524D01*
X182204819Y-78909524D02*
X181490533Y-79100000D01*
X181490533Y-79100000D02*
X182204819Y-79290476D01*
X182204819Y-79290476D02*
X181204819Y-79528572D01*
X182204819Y-80433333D02*
X182204819Y-79861905D01*
X182204819Y-80147619D02*
X181204819Y-80147619D01*
X181204819Y-80147619D02*
X181347676Y-80052381D01*
X181347676Y-80052381D02*
X181442914Y-79957143D01*
X181442914Y-79957143D02*
X181490533Y-79861905D01*
D14*
%TO.C,SW2*%
X182750000Y-89400000D02*
X182750000Y-90400000D01*
X182800000Y-97400000D02*
X182800000Y-91600000D01*
X183750000Y-89400000D02*
X182750000Y-89400000D01*
X184750000Y-91400000D02*
X187350000Y-91400000D01*
X184750000Y-97600000D02*
X187350000Y-97600000D01*
X189300000Y-97500000D02*
X189300000Y-91500000D01*
%TO.C,R6*%
X177915000Y-78872936D02*
X177915000Y-79327064D01*
X179385000Y-78872936D02*
X179385000Y-79327064D01*
%TO.C,R8*%
X177915000Y-109672936D02*
X177915000Y-110127064D01*
X179385000Y-109672936D02*
X179385000Y-110127064D01*
%TO.C,R7*%
X177915000Y-94272936D02*
X177915000Y-94727064D01*
X179385000Y-94272936D02*
X179385000Y-94727064D01*
%TO.C,SW3*%
X182750000Y-104800000D02*
X182750000Y-105800000D01*
X182800000Y-112800000D02*
X182800000Y-107000000D01*
X183750000Y-104800000D02*
X182750000Y-104800000D01*
X184750000Y-106800000D02*
X187350000Y-106800000D01*
X184750000Y-113000000D02*
X187350000Y-113000000D01*
X189300000Y-112900000D02*
X189300000Y-106900000D01*
%TO.C,SW1*%
X182750000Y-74000000D02*
X182750000Y-75000000D01*
X182800000Y-82000000D02*
X182800000Y-76200000D01*
X183750000Y-74000000D02*
X182750000Y-74000000D01*
X184750000Y-76000000D02*
X187350000Y-76000000D01*
X184750000Y-82200000D02*
X187350000Y-82200000D01*
X189300000Y-82100000D02*
X189300000Y-76100000D01*
%TD*%
M02*
